M48
;DRILL file {KiCad 5.0.2} date mar. 26 mai 2020 14:16:47 CEST
;FORMAT={-:-/ absolute / inch / decimal}
FMAT,2
INCH,TZ
T1C0.0120
T2C0.0394
T3C0.0512
T4C0.0600
%
G90
G05
T1
X5.3031Y-3.0173
X5.3031Y-3.1791
X5.3051Y-3.2677
X5.3051Y-3.4051
X5.3386Y-3.0173
X5.3386Y-3.1791
X5.3701Y-3.4016
X5.4331Y-3.4016
X5.4764Y-3.278
X5.5118Y-3.1732
X5.5315Y-4.4094
X5.5512Y-3.1732
X5.5906Y-3.1732
X5.6102Y-3.3465
X5.6299Y-4.5079
X5.6484Y-3.1957
X5.6811Y-3.5976
X5.6823Y-3.45
X5.6823Y-3.4843
X5.6823Y-3.5185
X5.7185Y-3.5976
X5.7224Y-3.0217
X5.7559Y-3.5976
X5.8012Y-4.1346
X5.8012Y-4.2921
X5.8012Y-4.4988
X5.8465Y-3.5205
X5.8465Y-3.7567
X5.8957Y-3.3563
X5.9055Y-4.1457
X5.935Y-3.2992
X5.9646Y-3.6122
X5.9697Y-3.5591
X5.9843Y-3.6516
X5.9843Y-3.7008
X6.0039Y-4.0256
X6.0437Y-4.0256
X6.0437Y-4.2126
X6.0531Y-3.4969
X6.0575Y-3.311
X6.1024Y-3.124
X6.1157Y-3.8421
X6.1319Y-3.124
X6.1476Y-3.2673
X6.1614Y-3.124
X6.2929Y-3.4807
X6.326Y-3.7106
X6.3331Y-3.4055
X6.3331Y-3.4406
X6.3484Y-3.1201
X6.3819Y-3.1201
X6.4173Y-3.1201
X6.4469Y-3.8228
X6.4476Y-4.0236
T2
X6.25Y-4.2126
X6.25Y-4.3602
X5.6201Y-4.2126
X5.6201Y-4.3602
X5.9744Y-4.2126
X5.9744Y-4.3602
X5.3445Y-4.2126
X5.3445Y-4.3602
T3
X6.25Y-4.8031
X6.25Y-5.
X6.25Y-5.1969
X5.6201Y-4.8031
X5.6201Y-5.
X5.6201Y-5.1969
X5.9744Y-4.8031
X5.9744Y-5.
X5.9744Y-5.1969
X5.3445Y-4.8031
X5.3445Y-5.
X5.3445Y-5.1969
T4
X5.9465Y-5.6366
X6.1465Y-5.6366
X6.3465Y-5.6366
X5.9465Y-2.6311
X6.1465Y-2.6311
X6.3465Y-2.6311
X5.3465Y-2.6311
X5.5465Y-2.6311
X5.7465Y-2.6311
X5.3465Y-5.6366
X5.5465Y-5.6366
X5.7465Y-5.6366
T0
M30
