%TF.GenerationSoftware,KiCad,Pcbnew,5.0.2*%
%TF.CreationDate,2020-05-26T14:16:45+02:00*%
%TF.ProjectId,cowdin-2-shutter,636f7764-696e-42d3-922d-736875747465,0.1*%
%TF.SameCoordinates,Original*%
%TF.FileFunction,Copper,L1,Top*%
%TF.FilePolarity,Positive*%
%FSLAX46Y46*%
G04 Gerber Fmt 4.6, Leading zero omitted, Abs format (unit mm)*
G04 Created by KiCad (PCBNEW 5.0.2) date mar. 26 mai 2020 14:16:45 CEST*
%MOMM*%
%LPD*%
G01*
G04 APERTURE LIST*
%TA.AperFunction,NonConductor*%
%ADD10C,0.152400*%
%TD*%
%TA.AperFunction,SMDPad,CuDef*%
%ADD11R,0.910000X1.220000*%
%TD*%
%TA.AperFunction,SMDPad,CuDef*%
%ADD12R,1.600000X2.900000*%
%TD*%
%TA.AperFunction,SMDPad,CuDef*%
%ADD13R,2.500000X2.500000*%
%TD*%
%TA.AperFunction,SMDPad,CuDef*%
%ADD14R,3.560000X1.780000*%
%TD*%
%TA.AperFunction,SMDPad,CuDef*%
%ADD15R,2.100000X1.800000*%
%TD*%
%TA.AperFunction,SMDPad,CuDef*%
%ADD16R,1.570000X1.880000*%
%TD*%
%TA.AperFunction,SMDPad,CuDef*%
%ADD17R,1.600000X0.300000*%
%TD*%
%TA.AperFunction,SMDPad,CuDef*%
%ADD18R,1.143000X0.635000*%
%TD*%
%TA.AperFunction,SMDPad,CuDef*%
%ADD19R,0.635000X1.143000*%
%TD*%
%TA.AperFunction,ComponentPad*%
%ADD20C,2.200000*%
%TD*%
%TA.AperFunction,ComponentPad*%
%ADD21C,2.000000*%
%TD*%
%TA.AperFunction,SMDPad,CuDef*%
%ADD22R,2.900000X1.600000*%
%TD*%
%TA.AperFunction,ComponentPad*%
%ADD23C,2.540000*%
%TD*%
%TA.AperFunction,ComponentPad*%
%ADD24R,2.540000X2.540000*%
%TD*%
%TA.AperFunction,SMDPad,CuDef*%
%ADD25R,0.300000X1.524000*%
%TD*%
%TA.AperFunction,SMDPad,CuDef*%
%ADD26R,1.524000X0.300000*%
%TD*%
%TA.AperFunction,SMDPad,CuDef*%
%ADD27R,0.508000X1.143000*%
%TD*%
%TA.AperFunction,SMDPad,CuDef*%
%ADD28R,0.914400X0.914400*%
%TD*%
%TA.AperFunction,SMDPad,CuDef*%
%ADD29R,1.220000X0.910000*%
%TD*%
%TA.AperFunction,SMDPad,CuDef*%
%ADD30R,1.800000X2.100000*%
%TD*%
%TA.AperFunction,ViaPad*%
%ADD31C,0.711200*%
%TD*%
%TA.AperFunction,Conductor*%
%ADD32C,1.524000*%
%TD*%
%TA.AperFunction,Conductor*%
%ADD33C,0.304800*%
%TD*%
%TA.AperFunction,Conductor*%
%ADD34C,0.406400*%
%TD*%
%TA.AperFunction,Conductor*%
%ADD35C,1.016000*%
%TD*%
%TA.AperFunction,Conductor*%
%ADD36C,0.203200*%
%TD*%
%TA.AperFunction,Conductor*%
%ADD37C,0.711200*%
%TD*%
%TA.AperFunction,Conductor*%
%ADD38C,0.254000*%
%TD*%
G04 APERTURE END LIST*
D10*
X164126666Y-135013333D02*
X164126666Y-134537142D01*
X164412380Y-135108571D02*
X163412380Y-134775238D01*
X164412380Y-134441904D01*
X163745714Y-133680000D02*
X164555238Y-133680000D01*
X164650476Y-133727619D01*
X164698095Y-133775238D01*
X164745714Y-133870476D01*
X164745714Y-134013333D01*
X164698095Y-134108571D01*
X164364761Y-133680000D02*
X164412380Y-133775238D01*
X164412380Y-133965714D01*
X164364761Y-134060952D01*
X164317142Y-134108571D01*
X164221904Y-134156190D01*
X163936190Y-134156190D01*
X163840952Y-134108571D01*
X163793333Y-134060952D01*
X163745714Y-133965714D01*
X163745714Y-133775238D01*
X163793333Y-133680000D01*
X164412380Y-133203809D02*
X163745714Y-133203809D01*
X163412380Y-133203809D02*
X163460000Y-133251428D01*
X163507619Y-133203809D01*
X163460000Y-133156190D01*
X163412380Y-133203809D01*
X163507619Y-133203809D01*
X164412380Y-132584761D02*
X164364761Y-132680000D01*
X164269523Y-132727619D01*
X163412380Y-132727619D01*
X164412380Y-131775238D02*
X163888571Y-131775238D01*
X163793333Y-131822857D01*
X163745714Y-131918095D01*
X163745714Y-132108571D01*
X163793333Y-132203809D01*
X164364761Y-131775238D02*
X164412380Y-131870476D01*
X164412380Y-132108571D01*
X164364761Y-132203809D01*
X164269523Y-132251428D01*
X164174285Y-132251428D01*
X164079047Y-132203809D01*
X164031428Y-132108571D01*
X164031428Y-131870476D01*
X163983809Y-131775238D01*
X164364761Y-130870476D02*
X164412380Y-130965714D01*
X164412380Y-131156190D01*
X164364761Y-131251428D01*
X164317142Y-131299047D01*
X164221904Y-131346666D01*
X163936190Y-131346666D01*
X163840952Y-131299047D01*
X163793333Y-131251428D01*
X163745714Y-131156190D01*
X163745714Y-130965714D01*
X163793333Y-130870476D01*
X164412380Y-130441904D02*
X163412380Y-130441904D01*
X164031428Y-130346666D02*
X164412380Y-130060952D01*
X163745714Y-130060952D02*
X164126666Y-130441904D01*
X164317142Y-128299047D02*
X164364761Y-128346666D01*
X164412380Y-128489523D01*
X164412380Y-128584761D01*
X164364761Y-128727619D01*
X164269523Y-128822857D01*
X164174285Y-128870476D01*
X163983809Y-128918095D01*
X163840952Y-128918095D01*
X163650476Y-128870476D01*
X163555238Y-128822857D01*
X163460000Y-128727619D01*
X163412380Y-128584761D01*
X163412380Y-128489523D01*
X163460000Y-128346666D01*
X163507619Y-128299047D01*
X164317142Y-127299047D02*
X164364761Y-127346666D01*
X164412380Y-127489523D01*
X164412380Y-127584761D01*
X164364761Y-127727619D01*
X164269523Y-127822857D01*
X164174285Y-127870476D01*
X163983809Y-127918095D01*
X163840952Y-127918095D01*
X163650476Y-127870476D01*
X163555238Y-127822857D01*
X163460000Y-127727619D01*
X163412380Y-127584761D01*
X163412380Y-127489523D01*
X163460000Y-127346666D01*
X163507619Y-127299047D01*
X164031428Y-126870476D02*
X164031428Y-126108571D01*
X164412380Y-125632380D02*
X163412380Y-125632380D01*
X163793333Y-125632380D02*
X163745714Y-125537142D01*
X163745714Y-125346666D01*
X163793333Y-125251428D01*
X163840952Y-125203809D01*
X163936190Y-125156190D01*
X164221904Y-125156190D01*
X164317142Y-125203809D01*
X164364761Y-125251428D01*
X164412380Y-125346666D01*
X164412380Y-125537142D01*
X164364761Y-125632380D01*
X163745714Y-124822857D02*
X164412380Y-124584761D01*
X163745714Y-124346666D02*
X164412380Y-124584761D01*
X164650476Y-124680000D01*
X164698095Y-124727619D01*
X164745714Y-124822857D01*
X164031428Y-123965714D02*
X164031428Y-123203809D01*
X164364761Y-122775238D02*
X164412380Y-122632380D01*
X164412380Y-122394285D01*
X164364761Y-122299047D01*
X164317142Y-122251428D01*
X164221904Y-122203809D01*
X164126666Y-122203809D01*
X164031428Y-122251428D01*
X163983809Y-122299047D01*
X163936190Y-122394285D01*
X163888571Y-122584761D01*
X163840952Y-122680000D01*
X163793333Y-122727619D01*
X163698095Y-122775238D01*
X163602857Y-122775238D01*
X163507619Y-122727619D01*
X163460000Y-122680000D01*
X163412380Y-122584761D01*
X163412380Y-122346666D01*
X163460000Y-122203809D01*
X164126666Y-121822857D02*
X164126666Y-121346666D01*
X164412380Y-121918095D02*
X163412380Y-121584761D01*
X164412380Y-121251428D01*
X133504761Y-134000476D02*
X133552380Y-134095714D01*
X133552380Y-134286190D01*
X133504761Y-134381428D01*
X133457142Y-134429047D01*
X133361904Y-134476666D01*
X133076190Y-134476666D01*
X132980952Y-134429047D01*
X132933333Y-134381428D01*
X132885714Y-134286190D01*
X132885714Y-134095714D01*
X132933333Y-134000476D01*
X133552380Y-133429047D02*
X133504761Y-133524285D01*
X133457142Y-133571904D01*
X133361904Y-133619523D01*
X133076190Y-133619523D01*
X132980952Y-133571904D01*
X132933333Y-133524285D01*
X132885714Y-133429047D01*
X132885714Y-133286190D01*
X132933333Y-133190952D01*
X132980952Y-133143333D01*
X133076190Y-133095714D01*
X133361904Y-133095714D01*
X133457142Y-133143333D01*
X133504761Y-133190952D01*
X133552380Y-133286190D01*
X133552380Y-133429047D01*
X132885714Y-132762380D02*
X133552380Y-132571904D01*
X133076190Y-132381428D01*
X133552380Y-132190952D01*
X132885714Y-132000476D01*
X133552380Y-131190952D02*
X132552380Y-131190952D01*
X133504761Y-131190952D02*
X133552380Y-131286190D01*
X133552380Y-131476666D01*
X133504761Y-131571904D01*
X133457142Y-131619523D01*
X133361904Y-131667142D01*
X133076190Y-131667142D01*
X132980952Y-131619523D01*
X132933333Y-131571904D01*
X132885714Y-131476666D01*
X132885714Y-131286190D01*
X132933333Y-131190952D01*
X133552380Y-130714761D02*
X132885714Y-130714761D01*
X132552380Y-130714761D02*
X132600000Y-130762380D01*
X132647619Y-130714761D01*
X132600000Y-130667142D01*
X132552380Y-130714761D01*
X132647619Y-130714761D01*
X132885714Y-130238571D02*
X133552380Y-130238571D01*
X132980952Y-130238571D02*
X132933333Y-130190952D01*
X132885714Y-130095714D01*
X132885714Y-129952857D01*
X132933333Y-129857619D01*
X133028571Y-129810000D01*
X133552380Y-129810000D01*
X133171428Y-129333809D02*
X133171428Y-128571904D01*
X132647619Y-128143333D02*
X132600000Y-128095714D01*
X132552380Y-128000476D01*
X132552380Y-127762380D01*
X132600000Y-127667142D01*
X132647619Y-127619523D01*
X132742857Y-127571904D01*
X132838095Y-127571904D01*
X132980952Y-127619523D01*
X133552380Y-128190952D01*
X133552380Y-127571904D01*
X133171428Y-127143333D02*
X133171428Y-126381428D01*
X133504761Y-125952857D02*
X133552380Y-125857619D01*
X133552380Y-125667142D01*
X133504761Y-125571904D01*
X133409523Y-125524285D01*
X133361904Y-125524285D01*
X133266666Y-125571904D01*
X133219047Y-125667142D01*
X133219047Y-125810000D01*
X133171428Y-125905238D01*
X133076190Y-125952857D01*
X133028571Y-125952857D01*
X132933333Y-125905238D01*
X132885714Y-125810000D01*
X132885714Y-125667142D01*
X132933333Y-125571904D01*
X133552380Y-125095714D02*
X132552380Y-125095714D01*
X133552380Y-124667142D02*
X133028571Y-124667142D01*
X132933333Y-124714761D01*
X132885714Y-124810000D01*
X132885714Y-124952857D01*
X132933333Y-125048095D01*
X132980952Y-125095714D01*
X132885714Y-123762380D02*
X133552380Y-123762380D01*
X132885714Y-124190952D02*
X133409523Y-124190952D01*
X133504761Y-124143333D01*
X133552380Y-124048095D01*
X133552380Y-123905238D01*
X133504761Y-123810000D01*
X133457142Y-123762380D01*
X132885714Y-123429047D02*
X132885714Y-123048095D01*
X132552380Y-123286190D02*
X133409523Y-123286190D01*
X133504761Y-123238571D01*
X133552380Y-123143333D01*
X133552380Y-123048095D01*
X132885714Y-122857619D02*
X132885714Y-122476666D01*
X132552380Y-122714761D02*
X133409523Y-122714761D01*
X133504761Y-122667142D01*
X133552380Y-122571904D01*
X133552380Y-122476666D01*
X133504761Y-121762380D02*
X133552380Y-121857619D01*
X133552380Y-122048095D01*
X133504761Y-122143333D01*
X133409523Y-122190952D01*
X133028571Y-122190952D01*
X132933333Y-122143333D01*
X132885714Y-122048095D01*
X132885714Y-121857619D01*
X132933333Y-121762380D01*
X133028571Y-121714761D01*
X133123809Y-121714761D01*
X133219047Y-122190952D01*
X133552380Y-121286190D02*
X132885714Y-121286190D01*
X133076190Y-121286190D02*
X132980952Y-121238571D01*
X132933333Y-121190952D01*
X132885714Y-121095714D01*
X132885714Y-121000476D01*
X133552380Y-119905238D02*
X132885714Y-119905238D01*
X133076190Y-119905238D02*
X132980952Y-119857619D01*
X132933333Y-119810000D01*
X132885714Y-119714761D01*
X132885714Y-119619523D01*
X133504761Y-118905238D02*
X133552380Y-119000476D01*
X133552380Y-119190952D01*
X133504761Y-119286190D01*
X133409523Y-119333809D01*
X133028571Y-119333809D01*
X132933333Y-119286190D01*
X132885714Y-119190952D01*
X132885714Y-119000476D01*
X132933333Y-118905238D01*
X133028571Y-118857619D01*
X133123809Y-118857619D01*
X133219047Y-119333809D01*
X132885714Y-118524285D02*
X133552380Y-118286190D01*
X132885714Y-118048095D01*
X133552380Y-117143333D02*
X133552380Y-117714761D01*
X133552380Y-117429047D02*
X132552380Y-117429047D01*
X132695238Y-117524285D01*
X132790476Y-117619523D01*
X132838095Y-117714761D01*
D11*
%TO.P,D2,1*%
%TO.N,Net-(D2-Pad1)*%
X142365000Y-103750000D03*
%TO.P,D2,2*%
%TO.N,VIn*%
X145635000Y-103750000D03*
%TD*%
%TO.P,D1,1*%
%TO.N,Net-(D1-Pad1)*%
X138635000Y-103750000D03*
%TO.P,D1,2*%
%TO.N,VIn*%
X135365000Y-103750000D03*
%TD*%
D12*
%TO.P,C10,2*%
%TO.N,GND*%
X135150000Y-78750000D03*
%TO.P,C10,1*%
%TO.N,VIn*%
X138350000Y-78750000D03*
%TD*%
D13*
%TO.P,C16,2*%
%TO.N,GND*%
X145250000Y-93350000D03*
%TO.P,C16,1*%
%TO.N,5V*%
X145250000Y-100650000D03*
%TD*%
D14*
%TO.P,L11,2*%
%TO.N,5V*%
X137500000Y-100700000D03*
%TO.P,L11,1*%
%TO.N,/V5_SW*%
X137500000Y-91300000D03*
%TD*%
D15*
%TO.P,D12,2*%
%TO.N,/V5_SW*%
X138100000Y-88500000D03*
%TO.P,D12,1*%
%TO.N,GND*%
X142500000Y-88500000D03*
%TD*%
D16*
%TO.P,U3,PAD*%
%TO.N,GND*%
X142500000Y-85000000D03*
D17*
%TO.P,U3,10*%
%TO.N,/V5_SW*%
X140400000Y-86000000D03*
%TO.P,U3,9*%
%TO.N,GND*%
X140400000Y-85500000D03*
%TO.P,U3,8*%
%TO.N,Net-(C14-Pad1)*%
X140400000Y-85000000D03*
%TO.P,U3,7*%
%TO.N,Net-(R16-Pad2)*%
X140400000Y-84500000D03*
%TO.P,U3,6*%
%TO.N,Net-(U3-Pad6)*%
X140400000Y-84000000D03*
%TO.P,U3,5*%
%TO.N,Net-(R14-Pad1)*%
X144600000Y-84000000D03*
%TO.P,U3,4*%
%TO.N,Net-(C12-Pad1)*%
X144600000Y-84500000D03*
%TO.P,U3,3*%
%TO.N,Net-(U3-Pad3)*%
X144600000Y-85000000D03*
%TO.P,U3,2*%
%TO.N,VIn*%
X144600000Y-85500000D03*
%TO.P,U3,1*%
%TO.N,Net-(C13-Pad1)*%
X144600000Y-86000000D03*
%TD*%
D18*
%TO.P,C13,2*%
%TO.N,/V5_SW*%
X146000000Y-88762000D03*
%TO.P,C13,1*%
%TO.N,Net-(C13-Pad1)*%
X146000000Y-87238000D03*
%TD*%
D19*
%TO.P,C12,2*%
%TO.N,GND*%
X144648000Y-80780000D03*
%TO.P,C12,1*%
%TO.N,Net-(C12-Pad1)*%
X146172000Y-80780000D03*
%TD*%
%TO.P,R14,2*%
%TO.N,GND*%
X143078000Y-82500000D03*
%TO.P,R14,1*%
%TO.N,Net-(R14-Pad1)*%
X144602000Y-82500000D03*
%TD*%
%TO.P,R15,2*%
%TO.N,Net-(C15-Pad1)*%
X136438000Y-82630000D03*
%TO.P,R15,1*%
%TO.N,Net-(C14-Pad1)*%
X137962000Y-82630000D03*
%TD*%
D18*
%TO.P,C14,2*%
%TO.N,GND*%
X138000000Y-85502000D03*
%TO.P,C14,1*%
%TO.N,Net-(C14-Pad1)*%
X138000000Y-83978000D03*
%TD*%
%TO.P,C15,2*%
%TO.N,GND*%
X136400000Y-85502000D03*
%TO.P,C15,1*%
%TO.N,Net-(C15-Pad1)*%
X136400000Y-83978000D03*
%TD*%
%TO.P,R17,2*%
%TO.N,GND*%
X134750000Y-83988000D03*
%TO.P,R17,1*%
%TO.N,Net-(R16-Pad2)*%
X134750000Y-85512000D03*
%TD*%
%TO.P,R16,2*%
%TO.N,Net-(R16-Pad2)*%
X134750000Y-87448000D03*
%TO.P,R16,1*%
%TO.N,5V*%
X134750000Y-88972000D03*
%TD*%
D20*
%TO.P,RL1,14*%
%TO.N,Net-(P2-Pad1)*%
X135750000Y-132000000D03*
%TO.P,RL1,11*%
%TO.N,Net-(RL1-Pad11)*%
X135750000Y-127000000D03*
%TO.P,RL1,12*%
%TO.N,Net-(RL1-Pad12)*%
X135750000Y-122000000D03*
D21*
%TO.P,RL1,A1*%
%TO.N,Net-(D1-Pad1)*%
X135750000Y-110750000D03*
%TO.P,RL1,A2*%
%TO.N,VIn*%
X135750000Y-107000000D03*
%TD*%
%TO.P,RL2,A2*%
%TO.N,Net-(D2-Pad1)*%
X142750000Y-107000000D03*
%TO.P,RL2,A1*%
%TO.N,VIn*%
X142750000Y-110750000D03*
D20*
%TO.P,RL2,12*%
%TO.N,Net-(P2-Pad3)*%
X142750000Y-122000000D03*
%TO.P,RL2,11*%
%TO.N,Net-(RL1-Pad11)*%
X142750000Y-127000000D03*
%TO.P,RL2,14*%
%TO.N,Net-(P2-Pad2)*%
X142750000Y-132000000D03*
%TD*%
%TO.P,RL3,14*%
%TO.N,Net-(P4-Pad1)*%
X151750000Y-132000000D03*
%TO.P,RL3,11*%
%TO.N,Net-(RL3-Pad11)*%
X151750000Y-127000000D03*
%TO.P,RL3,12*%
%TO.N,Net-(RL3-Pad12)*%
X151750000Y-122000000D03*
D21*
%TO.P,RL3,A1*%
%TO.N,Net-(D3-Pad1)*%
X151750000Y-110750000D03*
%TO.P,RL3,A2*%
%TO.N,VIn*%
X151750000Y-107000000D03*
%TD*%
%TO.P,RL4,A2*%
%TO.N,Net-(D4-Pad1)*%
X158750000Y-107000000D03*
%TO.P,RL4,A1*%
%TO.N,VIn*%
X158750000Y-110750000D03*
D20*
%TO.P,RL4,12*%
%TO.N,Net-(P4-Pad3)*%
X158750000Y-122000000D03*
%TO.P,RL4,11*%
%TO.N,Net-(RL3-Pad11)*%
X158750000Y-127000000D03*
%TO.P,RL4,14*%
%TO.N,Net-(P4-Pad2)*%
X158750000Y-132000000D03*
%TD*%
D22*
%TO.P,C11,1*%
%TO.N,VIn*%
X141000000Y-78750000D03*
%TO.P,C11,2*%
%TO.N,GND*%
X141000000Y-81950000D03*
%TD*%
D23*
%TO.P,P1,2*%
%TO.N,VIn*%
X140880000Y-66830000D03*
%TO.P,P1,3*%
%TO.N,CAN_H*%
X145960000Y-66830000D03*
D24*
%TO.P,P1,1*%
%TO.N,GND*%
X135800000Y-66830000D03*
%TD*%
%TO.P,P3,1*%
%TO.N,CAN_L*%
X151040000Y-66830000D03*
D23*
%TO.P,P3,3*%
%TO.N,IN_2*%
X161200000Y-66830000D03*
%TO.P,P3,2*%
%TO.N,IN_1*%
X156120000Y-66830000D03*
%TD*%
D25*
%TO.P,U1,1*%
%TO.N,Net-(U1-Pad1)*%
X152340000Y-98912000D03*
%TO.P,U1,2*%
%TO.N,REL3*%
X152840000Y-98912000D03*
%TO.P,U1,3*%
%TO.N,REL2*%
X153340000Y-98912000D03*
%TO.P,U1,4*%
%TO.N,REL1*%
X153840000Y-98912000D03*
%TO.P,U1,5*%
%TO.N,Net-(U1-Pad5)*%
X154340000Y-98912000D03*
%TO.P,U1,6*%
%TO.N,Net-(U1-Pad6)*%
X154840000Y-98912000D03*
%TO.P,U1,7*%
%TO.N,GND*%
X155340000Y-98912000D03*
%TO.P,U1,8*%
%TO.N,5V*%
X155840000Y-98912000D03*
%TO.P,U1,9*%
%TO.N,Net-(U1-Pad9)*%
X156340000Y-98912000D03*
%TO.P,U1,10*%
%TO.N,Net-(U1-Pad10)*%
X156840000Y-98912000D03*
%TO.P,U1,11*%
%TO.N,Net-(U1-Pad11)*%
X157340000Y-98912000D03*
%TO.P,U1,12*%
%TO.N,Net-(U1-Pad12)*%
X157840000Y-98912000D03*
%TO.P,U1,13*%
%TO.N,Net-(U1-Pad13)*%
X158340000Y-98912000D03*
%TO.P,U1,14*%
%TO.N,Net-(U1-Pad14)*%
X158840000Y-98912000D03*
%TO.P,U1,15*%
%TO.N,Net-(U1-Pad15)*%
X159340000Y-98912000D03*
%TO.P,U1,16*%
%TO.N,REL4*%
X159840000Y-98912000D03*
D26*
%TO.P,U1,17*%
%TO.N,Net-(U1-Pad17)*%
X162002000Y-96750000D03*
%TO.P,U1,18*%
%TO.N,Net-(U1-Pad18)*%
X162002000Y-96250000D03*
%TO.P,U1,19*%
%TO.N,Net-(U1-Pad19)*%
X162002000Y-95750000D03*
%TO.P,U1,20*%
%TO.N,Net-(U1-Pad20)*%
X162002000Y-95250000D03*
%TO.P,U1,21*%
%TO.N,5V*%
X162002000Y-94750000D03*
%TO.P,U1,22*%
%TO.N,GND*%
X162002000Y-94250000D03*
%TO.P,U1,23*%
%TO.N,Net-(U1-Pad23)*%
X162002000Y-93750000D03*
%TO.P,U1,24*%
%TO.N,Net-(U1-Pad24)*%
X162002000Y-93250000D03*
D25*
%TO.P,U1,33*%
%TO.N,GND*%
X159840000Y-87088000D03*
%TO.P,U1,34*%
%TO.N,5V*%
X159340000Y-87088000D03*
%TO.P,U1,35*%
%TO.N,Net-(U1-Pad35)*%
X158840000Y-87088000D03*
%TO.P,U1,36*%
%TO.N,IN_DN*%
X158340000Y-87088000D03*
%TO.P,U1,37*%
%TO.N,Net-(U1-Pad37)*%
X157840000Y-87088000D03*
%TO.P,U1,38*%
%TO.N,Net-(U1-Pad38)*%
X157340000Y-87088000D03*
%TO.P,U1,39*%
%TO.N,Net-(U1-Pad39)*%
X156840000Y-87088000D03*
%TO.P,U1,40*%
%TO.N,Net-(U1-Pad40)*%
X156340000Y-87088000D03*
%TO.P,U1,41*%
%TO.N,Net-(U1-Pad41)*%
X155840000Y-87088000D03*
%TO.P,U1,42*%
%TO.N,Net-(U1-Pad42)*%
X155340000Y-87088000D03*
%TO.P,U1,43*%
%TO.N,Net-(U1-Pad43)*%
X154840000Y-87088000D03*
%TO.P,U1,44*%
%TO.N,Net-(U1-Pad44)*%
X154340000Y-87088000D03*
D26*
%TO.P,U1,49*%
%TO.N,CAN0_TX*%
X150178000Y-89250000D03*
%TO.P,U1,50*%
%TO.N,CAN0_RX*%
X150178000Y-89750000D03*
%TO.P,U1,51*%
%TO.N,Net-(U1-Pad51)*%
X150178000Y-90250000D03*
%TO.P,U1,52*%
%TO.N,RESET*%
X150178000Y-90750000D03*
%TO.P,U1,53*%
%TO.N,Net-(U1-Pad53)*%
X150178000Y-91250000D03*
%TO.P,U1,54*%
%TO.N,GND*%
X150178000Y-91750000D03*
%TO.P,U1,55*%
%TO.N,Net-(C9-Pad2)*%
X150178000Y-92250000D03*
%TO.P,U1,56*%
%TO.N,5V*%
X150178000Y-92750000D03*
%TO.P,U1,57*%
%TO.N,SWD_CLK*%
X150178000Y-93250000D03*
%TO.P,U1,58*%
%TO.N,SWD_DAT*%
X150178000Y-93750000D03*
%TO.P,U1,59*%
%TO.N,Net-(U1-Pad59)*%
X150178000Y-94250000D03*
%TO.P,U1,60*%
%TO.N,Net-(U1-Pad60)*%
X150178000Y-94750000D03*
%TO.P,U1,25*%
%TO.N,Net-(U1-Pad25)*%
X162002000Y-92750000D03*
%TO.P,U1,26*%
%TO.N,Net-(U1-Pad26)*%
X162002000Y-92250000D03*
%TO.P,U1,27*%
%TO.N,Net-(U1-Pad27)*%
X162002000Y-91750000D03*
%TO.P,U1,28*%
%TO.N,Net-(U1-Pad28)*%
X162002000Y-91250000D03*
%TO.P,U1,29*%
%TO.N,Net-(U1-Pad29)*%
X162002000Y-90750000D03*
%TO.P,U1,30*%
%TO.N,Net-(U1-Pad30)*%
X162002000Y-90250000D03*
%TO.P,U1,31*%
%TO.N,Net-(U1-Pad31)*%
X162002000Y-89750000D03*
%TO.P,U1,32*%
%TO.N,IN_UP*%
X162002000Y-89250000D03*
D25*
%TO.P,U1,45*%
%TO.N,Net-(U1-Pad45)*%
X153840000Y-87088000D03*
%TO.P,U1,46*%
%TO.N,Net-(U1-Pad46)*%
X153340000Y-87088000D03*
%TO.P,U1,47*%
%TO.N,GND*%
X152840000Y-87088000D03*
%TO.P,U1,48*%
%TO.N,5V*%
X152340000Y-87088000D03*
D26*
%TO.P,U1,61*%
%TO.N,Net-(U1-Pad61)*%
X150178000Y-95250000D03*
%TO.P,U1,62*%
%TO.N,Net-(U1-Pad62)*%
X150178000Y-95750000D03*
%TO.P,U1,63*%
%TO.N,Net-(U1-Pad63)*%
X150178000Y-96250000D03*
%TO.P,U1,64*%
%TO.N,Net-(U1-Pad64)*%
X150178000Y-96750000D03*
%TD*%
D27*
%TO.P,U2,8*%
%TO.N,Net-(R10-Pad1)*%
X149475000Y-77333000D03*
%TO.P,U2,1*%
%TO.N,CAN0_TX*%
X149475000Y-82667000D03*
%TO.P,U2,7*%
%TO.N,CAN_H*%
X150745000Y-77333000D03*
%TO.P,U2,6*%
%TO.N,CAN_L*%
X152015000Y-77333000D03*
%TO.P,U2,5*%
%TO.N,5V*%
X153285000Y-77333000D03*
%TO.P,U2,2*%
%TO.N,GND*%
X150745000Y-82667000D03*
%TO.P,U2,3*%
%TO.N,5V*%
X152015000Y-82667000D03*
%TO.P,U2,4*%
%TO.N,CAN0_RX*%
X153285000Y-82667000D03*
%TD*%
D19*
%TO.P,R10,1*%
%TO.N,Net-(R10-Pad1)*%
X147762000Y-76750000D03*
%TO.P,R10,2*%
%TO.N,GND*%
X146238000Y-76750000D03*
%TD*%
D18*
%TO.P,C8,1*%
%TO.N,5V*%
X148500000Y-92908000D03*
%TO.P,C8,2*%
%TO.N,GND*%
X148500000Y-94432000D03*
%TD*%
%TO.P,C9,2*%
%TO.N,Net-(C9-Pad2)*%
X148500000Y-91932000D03*
%TO.P,C9,1*%
%TO.N,GND*%
X148500000Y-90408000D03*
%TD*%
D19*
%TO.P,C7,1*%
%TO.N,5V*%
X152338000Y-85250000D03*
%TO.P,C7,2*%
%TO.N,GND*%
X153862000Y-85250000D03*
%TD*%
%TO.P,C1,2*%
%TO.N,GND*%
X148238000Y-87900000D03*
%TO.P,C1,1*%
%TO.N,RESET*%
X149762000Y-87900000D03*
%TD*%
%TO.P,R1,1*%
%TO.N,RESET*%
X149762000Y-86400000D03*
%TO.P,R1,2*%
%TO.N,5V*%
X148238000Y-86400000D03*
%TD*%
%TO.P,C6,1*%
%TO.N,5V*%
X159338000Y-85250000D03*
%TO.P,C6,2*%
%TO.N,GND*%
X160862000Y-85250000D03*
%TD*%
D18*
%TO.P,C2,1*%
%TO.N,5V*%
X155000000Y-82578000D03*
%TO.P,C2,2*%
%TO.N,GND*%
X155000000Y-84102000D03*
%TD*%
%TO.P,C5,1*%
%TO.N,5V*%
X163750000Y-94738000D03*
%TO.P,C5,2*%
%TO.N,GND*%
X163750000Y-96262000D03*
%TD*%
D28*
%TO.P,Q1,3*%
%TO.N,GND*%
X148500000Y-114266000D03*
%TO.P,Q1,1*%
%TO.N,REL1*%
X149389000Y-112234000D03*
%TO.P,Q1,2*%
%TO.N,Net-(D1-Pad1)*%
X147611000Y-112234000D03*
%TD*%
%TO.P,Q2,2*%
%TO.N,Net-(D2-Pad1)*%
X147611000Y-106984000D03*
%TO.P,Q2,1*%
%TO.N,REL2*%
X149389000Y-106984000D03*
%TO.P,Q2,3*%
%TO.N,GND*%
X148500000Y-109016000D03*
%TD*%
D11*
%TO.P,D3,1*%
%TO.N,Net-(D3-Pad1)*%
X151365000Y-104000000D03*
%TO.P,D3,2*%
%TO.N,VIn*%
X154635000Y-104000000D03*
%TD*%
%TO.P,D4,2*%
%TO.N,VIn*%
X161635000Y-104000000D03*
%TO.P,D4,1*%
%TO.N,Net-(D4-Pad1)*%
X158365000Y-104000000D03*
%TD*%
D28*
%TO.P,Q3,3*%
%TO.N,GND*%
X148500000Y-105016000D03*
%TO.P,Q3,1*%
%TO.N,REL3*%
X149389000Y-102984000D03*
%TO.P,Q3,2*%
%TO.N,Net-(D3-Pad1)*%
X147611000Y-102984000D03*
%TD*%
%TO.P,Q4,2*%
%TO.N,Net-(D4-Pad1)*%
X161734000Y-101889000D03*
%TO.P,Q4,1*%
%TO.N,REL4*%
X161734000Y-100111000D03*
%TO.P,Q4,3*%
%TO.N,GND*%
X163766000Y-101000000D03*
%TD*%
D24*
%TO.P,P2,1*%
%TO.N,Net-(P2-Pad1)*%
X135800000Y-143170000D03*
D23*
%TO.P,P2,3*%
%TO.N,Net-(P2-Pad3)*%
X145960000Y-143170000D03*
%TO.P,P2,2*%
%TO.N,Net-(P2-Pad2)*%
X140880000Y-143170000D03*
%TD*%
D24*
%TO.P,P4,1*%
%TO.N,Net-(P4-Pad1)*%
X151040000Y-143170000D03*
D23*
%TO.P,P4,3*%
%TO.N,Net-(P4-Pad3)*%
X161200000Y-143170000D03*
%TO.P,P4,2*%
%TO.N,Net-(P4-Pad2)*%
X156120000Y-143170000D03*
%TD*%
D29*
%TO.P,D5,1*%
%TO.N,IN_DN*%
X158500000Y-79885000D03*
%TO.P,D5,2*%
%TO.N,IN_1*%
X158500000Y-76615000D03*
%TD*%
D30*
%TO.P,D6,2*%
%TO.N,IN_1*%
X155750000Y-76550000D03*
%TO.P,D6,1*%
%TO.N,GND*%
X155750000Y-80950000D03*
%TD*%
D29*
%TO.P,D7,2*%
%TO.N,IN_2*%
X162750000Y-82865000D03*
%TO.P,D7,1*%
%TO.N,IN_UP*%
X162750000Y-86135000D03*
%TD*%
D30*
%TO.P,D8,1*%
%TO.N,GND*%
X162100000Y-80950000D03*
%TO.P,D8,2*%
%TO.N,IN_2*%
X162100000Y-76550000D03*
%TD*%
D19*
%TO.P,C3,1*%
%TO.N,IN_DN*%
X158512000Y-82990000D03*
%TO.P,C3,2*%
%TO.N,GND*%
X156988000Y-82990000D03*
%TD*%
%TO.P,C4,2*%
%TO.N,GND*%
X161988000Y-87750000D03*
%TO.P,C4,1*%
%TO.N,IN_UP*%
X163512000Y-87750000D03*
%TD*%
D31*
%TO.N,GND*%
X144330000Y-88500000D03*
X145250000Y-91380000D03*
X142500000Y-85000000D03*
X138000000Y-86400000D03*
X136400000Y-86400000D03*
X144300000Y-91380000D03*
X146200000Y-91380000D03*
X143470000Y-81170000D03*
X141000000Y-80600000D03*
X140000000Y-80600000D03*
X142000000Y-80600000D03*
X134750000Y-83000000D03*
X135600000Y-76640000D03*
X134700000Y-76640000D03*
X134700000Y-80750000D03*
X135600000Y-80750000D03*
X145350000Y-76750000D03*
X150750000Y-83800000D03*
X151500000Y-91750000D03*
X148500000Y-89420000D03*
X148500000Y-95420000D03*
X155340000Y-97590000D03*
X159840000Y-88410000D03*
X160680000Y-94250000D03*
X153860000Y-84100000D03*
X144330000Y-87630000D03*
X144330000Y-89370000D03*
X160860000Y-86500000D03*
X163750000Y-97100000D03*
X147350000Y-114270000D03*
X147350000Y-105020000D03*
X147350000Y-109020000D03*
X163770000Y-102200000D03*
X153750000Y-88820000D03*
X155750000Y-79350000D03*
X155000000Y-79350000D03*
X156500000Y-79350000D03*
X162100000Y-79250000D03*
X161250000Y-79250000D03*
X163000000Y-79250000D03*
X156150000Y-82990000D03*
X160860000Y-87390000D03*
%TO.N,Net-(R16-Pad2)*%
X134750000Y-86490000D03*
X139100000Y-83260000D03*
%TO.N,RESET*%
X149750000Y-85250000D03*
X151630000Y-90400000D03*
%TO.N,SWD_CLK*%
X152000000Y-92750000D03*
%TO.N,SWD_DAT*%
X152000000Y-94000000D03*
%TO.N,REL1*%
X153510000Y-107000000D03*
X153510000Y-102250000D03*
%TO.N,REL2*%
X150000000Y-105300000D03*
X152500000Y-102250000D03*
%TO.N,Net-(D1-Pad1)*%
X140500000Y-112000000D03*
X143000000Y-114500000D03*
%TD*%
D32*
%TO.N,Net-(P2-Pad1)*%
X135750000Y-132000000D02*
X135750000Y-136080000D01*
X135750000Y-136080000D02*
X135800000Y-136130000D01*
X135800000Y-136130000D02*
X135800000Y-143170000D01*
%TO.N,Net-(P2-Pad3)*%
X145960000Y-143170000D02*
X145960000Y-125210000D01*
X145960000Y-125210000D02*
X142750000Y-122000000D01*
%TO.N,Net-(P2-Pad2)*%
X140880000Y-143170000D02*
X140880000Y-133870000D01*
X140880000Y-133870000D02*
X142750000Y-132000000D01*
%TO.N,Net-(P4-Pad1)*%
X151040000Y-143170000D02*
X151040000Y-136850000D01*
X151040000Y-136850000D02*
X151750000Y-136140000D01*
X151750000Y-136140000D02*
X151750000Y-132000000D01*
%TO.N,Net-(P4-Pad3)*%
X162050000Y-135280000D02*
X162050000Y-125300000D01*
X162050000Y-125300000D02*
X158750000Y-122000000D01*
X161200000Y-143170000D02*
X161200000Y-136130000D01*
X161200000Y-136130000D02*
X162050000Y-135280000D01*
%TO.N,Net-(P4-Pad2)*%
X156120000Y-143170000D02*
X156120000Y-134630000D01*
X156120000Y-134630000D02*
X158750000Y-132000000D01*
%TO.N,Net-(RL1-Pad11)*%
X135750000Y-127000000D02*
X142750000Y-127000000D01*
%TO.N,Net-(RL3-Pad11)*%
X151750000Y-127000000D02*
X158750000Y-127000000D01*
D33*
%TO.N,GND*%
X142500000Y-88500000D02*
X144330000Y-88500000D01*
D34*
X145250000Y-93400000D02*
X145250000Y-91380000D01*
D35*
X142500000Y-88500000D02*
X142500000Y-85000000D01*
D34*
X143078000Y-82500000D02*
X143078000Y-84422000D01*
X143078000Y-84422000D02*
X142500000Y-85000000D01*
D33*
X138000000Y-85502000D02*
X136400000Y-85502000D01*
X138000000Y-86400000D02*
X138000000Y-85502000D01*
X136400000Y-86400000D02*
X136400000Y-85502000D01*
X139100000Y-85500000D02*
X138002000Y-85500000D01*
X138002000Y-85500000D02*
X138000000Y-85502000D01*
D36*
X140400000Y-85500000D02*
X139100000Y-85500000D01*
X138002000Y-85500000D02*
X138000000Y-85502000D01*
D34*
X145250000Y-91380000D02*
X144300000Y-91380000D01*
X145250000Y-91380000D02*
X146200000Y-91380000D01*
X143078000Y-82500000D02*
X143078000Y-81562000D01*
X143078000Y-81562000D02*
X143470000Y-81170000D01*
X144648000Y-80780000D02*
X143860000Y-80780000D01*
X143860000Y-80780000D02*
X143470000Y-81170000D01*
D33*
X141000000Y-81950000D02*
X141000000Y-80600000D01*
X141000000Y-80600000D02*
X140000000Y-80600000D01*
X140000000Y-80600000D02*
X140000000Y-80950000D01*
X140000000Y-80950000D02*
X141000000Y-81950000D01*
X141000000Y-80600000D02*
X142000000Y-80600000D01*
X142000000Y-80600000D02*
X142000000Y-80950000D01*
X142000000Y-80950000D02*
X141000000Y-81950000D01*
D37*
X134750000Y-83988000D02*
X134750000Y-83000000D01*
D34*
X135600000Y-76640000D02*
X135600000Y-78300000D01*
X135600000Y-78300000D02*
X135150000Y-78750000D01*
X135600000Y-76640000D02*
X134700000Y-76640000D01*
X134700000Y-76640000D02*
X134700000Y-78300000D01*
X134700000Y-78300000D02*
X135150000Y-78750000D01*
X134700000Y-80750000D02*
X134700000Y-79200000D01*
X134700000Y-79200000D02*
X135150000Y-78750000D01*
X135600000Y-80750000D02*
X135600000Y-79200000D01*
X135600000Y-79200000D02*
X135150000Y-78750000D01*
X146238000Y-76750000D02*
X145350000Y-76750000D01*
X150745000Y-82667000D02*
X150745000Y-83795000D01*
X150745000Y-83795000D02*
X150750000Y-83800000D01*
D36*
X150178000Y-91750000D02*
X151500000Y-91750000D01*
D34*
X148500000Y-90408000D02*
X148500000Y-89420000D01*
X148500000Y-94432000D02*
X148500000Y-95420000D01*
D36*
X155340000Y-98912000D02*
X155340000Y-97590000D01*
X159840000Y-87088000D02*
X159840000Y-88410000D01*
X162002000Y-94250000D02*
X160680000Y-94250000D01*
D34*
X153862000Y-85250000D02*
X153862000Y-84102000D01*
X153862000Y-84102000D02*
X153860000Y-84100000D01*
D33*
X144330000Y-88500000D02*
X144330000Y-87630000D01*
X144330000Y-88500000D02*
X144330000Y-89370000D01*
D34*
X148500000Y-89420000D02*
X148500000Y-88870000D01*
X148500000Y-88870000D02*
X148238000Y-88608000D01*
X148238000Y-88608000D02*
X148238000Y-87900000D01*
X160860000Y-86500000D02*
X160860000Y-85252000D01*
X160860000Y-85252000D02*
X160862000Y-85250000D01*
X163750000Y-96262000D02*
X163750000Y-97100000D01*
X147350000Y-114270000D02*
X148496000Y-114270000D01*
X148496000Y-114270000D02*
X148500000Y-114266000D01*
D37*
X147350000Y-105020000D02*
X148496000Y-105020000D01*
X148496000Y-105020000D02*
X148500000Y-105016000D01*
X147350000Y-109020000D02*
X148496000Y-109020000D01*
X148496000Y-109020000D02*
X148500000Y-109016000D01*
X163766000Y-101000000D02*
X163766000Y-102196000D01*
X163766000Y-102196000D02*
X163770000Y-102200000D01*
D33*
X152840000Y-87088000D02*
X152840000Y-88420000D01*
X152840000Y-88420000D02*
X153240000Y-88820000D01*
X153240000Y-88820000D02*
X153750000Y-88820000D01*
D34*
X153860000Y-84100000D02*
X154998000Y-84100000D01*
X154998000Y-84100000D02*
X155000000Y-84102000D01*
X155750000Y-80950000D02*
X155750000Y-79350000D01*
X155750000Y-79350000D02*
X155000000Y-79350000D01*
X155750000Y-79350000D02*
X156500000Y-79350000D01*
D37*
X162100000Y-80950000D02*
X162100000Y-79250000D01*
X162100000Y-79250000D02*
X161250000Y-79250000D01*
X162100000Y-79250000D02*
X163000000Y-79250000D01*
D33*
X156988000Y-82990000D02*
X156150000Y-82990000D01*
D34*
X156150000Y-82990000D02*
X156150000Y-81350000D01*
X156150000Y-81350000D02*
X155750000Y-80950000D01*
X160860000Y-87390000D02*
X161628000Y-87390000D01*
X161628000Y-87390000D02*
X161988000Y-87750000D01*
D37*
%TO.N,VIn*%
X146550000Y-78750000D02*
X147530000Y-79730000D01*
D33*
X144600000Y-85500000D02*
X146370000Y-85500000D01*
D32*
X138350000Y-76350000D02*
X138350000Y-78750000D01*
X138350000Y-78750000D02*
X141000000Y-78750000D01*
X141000000Y-78750000D02*
X146550000Y-78750000D01*
X140880000Y-66830000D02*
X140880000Y-73820000D01*
X140880000Y-73820000D02*
X138350000Y-76350000D01*
D37*
X147530000Y-79730000D02*
X147530000Y-84340000D01*
X147530000Y-84340000D02*
X146370000Y-85500000D01*
X138350000Y-76350000D02*
X137000000Y-75000000D01*
X137000000Y-75000000D02*
X134370000Y-75000000D01*
X134370000Y-75000000D02*
X133000000Y-76370000D01*
X133000000Y-76370000D02*
X133000000Y-103750000D01*
X135365000Y-103750000D02*
X133000000Y-103750000D01*
X135365000Y-103750000D02*
X135365000Y-104995000D01*
X135365000Y-104995000D02*
X135750000Y-105380000D01*
X135750000Y-105380000D02*
X135750000Y-107000000D01*
X144410000Y-109090000D02*
X144410000Y-104200000D01*
X144410000Y-104200000D02*
X144860000Y-103750000D01*
X144860000Y-103750000D02*
X145635000Y-103750000D01*
X144410000Y-109090000D02*
X142750000Y-110750000D01*
X145635000Y-103750000D02*
X145635000Y-111545000D01*
X145635000Y-111545000D02*
X144000000Y-113180000D01*
X139180000Y-116250000D02*
X152330000Y-116250000D01*
X152330000Y-116250000D02*
X159620000Y-116250000D01*
X154635000Y-104000000D02*
X154635000Y-113945000D01*
X154635000Y-113945000D02*
X152330000Y-116250000D01*
X154635000Y-104000000D02*
X153670000Y-104000000D01*
X153670000Y-104000000D02*
X152990000Y-104680000D01*
X152990000Y-104680000D02*
X152990000Y-105760000D01*
X152990000Y-105760000D02*
X151750000Y-107000000D01*
X161635000Y-104000000D02*
X160880000Y-104000000D01*
X160880000Y-104000000D02*
X160410000Y-104470000D01*
X160410000Y-104470000D02*
X160410000Y-109090000D01*
X160410000Y-109090000D02*
X158750000Y-110750000D01*
X161635000Y-104000000D02*
X161635000Y-114235000D01*
X161635000Y-114235000D02*
X159620000Y-116250000D01*
X133000000Y-103750000D02*
X133000000Y-114020000D01*
X133000000Y-114020000D02*
X135230000Y-116250000D01*
X135230000Y-116250000D02*
X139180000Y-116250000D01*
X144000000Y-113180000D02*
X142250000Y-113180000D01*
X142250000Y-113180000D02*
X139180000Y-116250000D01*
D36*
%TO.N,Net-(C13-Pad1)*%
X144600000Y-86000000D02*
X145710000Y-86000000D01*
X145710000Y-86000000D02*
X146000000Y-86290000D01*
X146000000Y-86290000D02*
X146000000Y-87238000D01*
%TO.N,Net-(C12-Pad1)*%
X146172000Y-80780000D02*
X146172000Y-82322000D01*
X145850000Y-84500000D02*
X144600000Y-84500000D01*
X146430000Y-83920000D02*
X145850000Y-84500000D01*
X146430000Y-82580000D02*
X146430000Y-83920000D01*
X146172000Y-82322000D02*
X146430000Y-82580000D01*
%TO.N,Net-(R14-Pad1)*%
X144600000Y-84000000D02*
X145720000Y-84000000D01*
X145720000Y-84000000D02*
X146010000Y-83710000D01*
X146010000Y-83710000D02*
X146010000Y-82820000D01*
X146010000Y-82820000D02*
X145690000Y-82500000D01*
X145690000Y-82500000D02*
X144602000Y-82500000D01*
%TO.N,Net-(R16-Pad2)*%
X140400000Y-84500000D02*
X139280000Y-84500000D01*
X139100000Y-84320000D02*
X139100000Y-83260000D01*
X139280000Y-84500000D02*
X139100000Y-84320000D01*
D34*
X134750000Y-85512000D02*
X134750000Y-86490000D01*
X134750000Y-87448000D02*
X134750000Y-86490000D01*
D36*
%TO.N,Net-(C14-Pad1)*%
X140400000Y-85000000D02*
X139022000Y-85000000D01*
X139022000Y-85000000D02*
X138000000Y-83978000D01*
D33*
X137962000Y-82630000D02*
X137962000Y-83940000D01*
X137962000Y-83940000D02*
X138000000Y-83978000D01*
D36*
%TO.N,/V5_SW*%
X137500000Y-91300000D02*
X143190000Y-91300000D01*
X143190000Y-91300000D02*
X144240000Y-90250000D01*
D35*
X138100000Y-88500000D02*
X138100000Y-90700000D01*
X138100000Y-90700000D02*
X137500000Y-91300000D01*
D36*
X140400000Y-86000000D02*
X140400000Y-86200000D01*
X140400000Y-86200000D02*
X138100000Y-88500000D01*
X144240000Y-90250000D02*
X145290000Y-90250000D01*
X145290000Y-90250000D02*
X146000000Y-89540000D01*
X146000000Y-89540000D02*
X146000000Y-88762000D01*
D33*
%TO.N,Net-(C15-Pad1)*%
X136438000Y-82630000D02*
X136438000Y-83940000D01*
X136438000Y-83940000D02*
X136400000Y-83978000D01*
D32*
%TO.N,5V*%
X137500000Y-100700000D02*
X145550000Y-100700000D01*
D34*
X134750000Y-88972000D02*
X134750000Y-93410000D01*
X134750000Y-93410000D02*
X137130000Y-95790000D01*
D36*
X150178000Y-92750000D02*
X148658000Y-92750000D01*
X148658000Y-92750000D02*
X148500000Y-92908000D01*
D34*
X148500000Y-92908000D02*
X147310000Y-92908000D01*
X152015000Y-82667000D02*
X152015000Y-81585000D01*
X152015000Y-81585000D02*
X151510000Y-81080000D01*
X151510000Y-81080000D02*
X149540000Y-81080000D01*
X149540000Y-81080000D02*
X148560000Y-82060000D01*
X148560000Y-82060000D02*
X148560000Y-84550000D01*
X137130000Y-95790000D02*
X140390000Y-95790000D01*
X140390000Y-95790000D02*
X145250000Y-100650000D01*
X147310000Y-92908000D02*
X147310000Y-98590000D01*
X147310000Y-98590000D02*
X145250000Y-100650000D01*
D36*
X152340000Y-87088000D02*
X152340000Y-85252000D01*
X152340000Y-85252000D02*
X152338000Y-85250000D01*
D34*
X147310000Y-98590000D02*
X150500000Y-98590000D01*
X150500000Y-98590000D02*
X152400000Y-96690000D01*
X152160000Y-89360000D02*
X152160000Y-88820000D01*
D33*
X152160000Y-88820000D02*
X152160000Y-88150000D01*
X152160000Y-88150000D02*
X152340000Y-87970000D01*
X152340000Y-87970000D02*
X152340000Y-87088000D01*
D34*
X152400000Y-89600000D02*
X152160000Y-89360000D01*
D36*
X155840000Y-98912000D02*
X155840000Y-97960000D01*
X155840000Y-97960000D02*
X156010000Y-97790000D01*
X156010000Y-97790000D02*
X156010000Y-97250000D01*
D34*
X152400000Y-96690000D02*
X155660000Y-96690000D01*
X155660000Y-96690000D02*
X156010000Y-97040000D01*
X156010000Y-97040000D02*
X156010000Y-97250000D01*
X147310000Y-92908000D02*
X147310000Y-86400000D01*
X147310000Y-86400000D02*
X147310000Y-85800000D01*
X147310000Y-85800000D02*
X148560000Y-84550000D01*
X148238000Y-86400000D02*
X147310000Y-86400000D01*
D36*
X159340000Y-87088000D02*
X159340000Y-85252000D01*
X159340000Y-85252000D02*
X159338000Y-85250000D01*
D34*
X152400000Y-89600000D02*
X157880000Y-89600000D01*
X157880000Y-89600000D02*
X159070000Y-88410000D01*
D33*
X159340000Y-87088000D02*
X159340000Y-87970000D01*
X159340000Y-87970000D02*
X159180000Y-88130000D01*
X159180000Y-88130000D02*
X159180000Y-88300000D01*
X159180000Y-88300000D02*
X159070000Y-88410000D01*
D36*
X162002000Y-94750000D02*
X161050000Y-94750000D01*
X161050000Y-94750000D02*
X160920000Y-94880000D01*
D34*
X157470000Y-94880000D02*
X155660000Y-96690000D01*
X157470000Y-94880000D02*
X160130000Y-94880000D01*
D36*
X160130000Y-94880000D02*
X160920000Y-94880000D01*
D34*
X152050000Y-80540000D02*
X151510000Y-81080000D01*
X152400000Y-89600000D02*
X152400000Y-91750000D01*
X152400000Y-91750000D02*
X153030000Y-92380000D01*
X153030000Y-92380000D02*
X153030000Y-94410000D01*
X153030000Y-94410000D02*
X152400000Y-95040000D01*
X152400000Y-95040000D02*
X152400000Y-96690000D01*
D36*
X162002000Y-94750000D02*
X163738000Y-94750000D01*
X163738000Y-94750000D02*
X163750000Y-94738000D01*
D34*
X155000000Y-82578000D02*
X154748000Y-82578000D01*
X154748000Y-82578000D02*
X154200000Y-82030000D01*
X154200000Y-82030000D02*
X152710000Y-80540000D01*
X152710000Y-80540000D02*
X152050000Y-80540000D01*
X153285000Y-77333000D02*
X153285000Y-79395000D01*
X153285000Y-79395000D02*
X154200000Y-80310000D01*
X154200000Y-80310000D02*
X154200000Y-82030000D01*
D36*
%TO.N,CAN0_TX*%
X149475000Y-82667000D02*
X149475000Y-83785000D01*
X149475000Y-83785000D02*
X151190000Y-85500000D01*
X151190000Y-89130000D02*
X151070000Y-89250000D01*
X151070000Y-89250000D02*
X150178000Y-89250000D01*
X151190000Y-89130000D02*
X151190000Y-85500000D01*
%TO.N,CAN0_RX*%
X151690000Y-89250000D02*
X151190000Y-89750000D01*
X151190000Y-89750000D02*
X150178000Y-89750000D01*
X151690000Y-89250000D02*
X151690000Y-84090000D01*
X151690000Y-84090000D02*
X152050000Y-83730000D01*
X152050000Y-83730000D02*
X153050000Y-83730000D01*
X153050000Y-83730000D02*
X153285000Y-83495000D01*
X153285000Y-83495000D02*
X153285000Y-82667000D01*
%TO.N,Net-(C9-Pad2)*%
X150178000Y-92250000D02*
X149220000Y-92250000D01*
X149220000Y-92250000D02*
X148902000Y-91932000D01*
X148902000Y-91932000D02*
X148500000Y-91932000D01*
D34*
%TO.N,CAN_H*%
X150745000Y-77333000D02*
X150745000Y-76245000D01*
X150745000Y-76245000D02*
X149250000Y-74750000D01*
X149250000Y-74750000D02*
X147290000Y-74750000D01*
X147290000Y-74750000D02*
X145960000Y-73420000D01*
X145960000Y-73420000D02*
X145960000Y-66830000D01*
%TO.N,CAN_L*%
X152015000Y-77333000D02*
X152015000Y-75415000D01*
X152015000Y-75415000D02*
X151040000Y-74440000D01*
X151040000Y-74440000D02*
X151040000Y-66830000D01*
%TO.N,Net-(R10-Pad1)*%
X147762000Y-76750000D02*
X147762000Y-77832000D01*
X147762000Y-77832000D02*
X148690000Y-78760000D01*
X148690000Y-78760000D02*
X149100000Y-78760000D01*
X149100000Y-78760000D02*
X149475000Y-78385000D01*
X149475000Y-78385000D02*
X149475000Y-77333000D01*
%TO.N,RESET*%
X149762000Y-87900000D02*
X149762000Y-86400000D01*
X149750000Y-85250000D02*
X149750000Y-86388000D01*
X149750000Y-86388000D02*
X149762000Y-86400000D01*
D36*
X150178000Y-90750000D02*
X151280000Y-90750000D01*
X151280000Y-90750000D02*
X151630000Y-90400000D01*
%TO.N,SWD_CLK*%
X150178000Y-93250000D02*
X151500000Y-93250000D01*
X151500000Y-93250000D02*
X152000000Y-92750000D01*
%TO.N,SWD_DAT*%
X150178000Y-93750000D02*
X151220000Y-93750000D01*
X151220000Y-93750000D02*
X151470000Y-94000000D01*
X151470000Y-94000000D02*
X152000000Y-94000000D01*
D33*
%TO.N,REL1*%
X149389000Y-112234000D02*
X150734000Y-112234000D01*
X150734000Y-112234000D02*
X151170000Y-112670000D01*
X151170000Y-112670000D02*
X152170000Y-112670000D01*
X152170000Y-112670000D02*
X153510000Y-111330000D01*
X153510000Y-111330000D02*
X153510000Y-107000000D01*
D36*
X153840000Y-99970000D02*
X153840000Y-98912000D01*
D33*
X153840000Y-99970000D02*
X153840000Y-101110000D01*
X153840000Y-101110000D02*
X153510000Y-101440000D01*
X153510000Y-101440000D02*
X153510000Y-102250000D01*
%TO.N,REL2*%
X149389000Y-106984000D02*
X149389000Y-105911000D01*
X149389000Y-105911000D02*
X150000000Y-105300000D01*
X152500000Y-102250000D02*
X153000000Y-101750000D01*
D36*
X153340000Y-99970000D02*
X153340000Y-98912000D01*
D33*
X153340000Y-99970000D02*
X153340000Y-100890000D01*
X153340000Y-100890000D02*
X153000000Y-101230000D01*
X153000000Y-101230000D02*
X153000000Y-101750000D01*
D37*
%TO.N,Net-(D1-Pad1)*%
X138635000Y-103750000D02*
X138635000Y-107865000D01*
X138635000Y-107865000D02*
X135750000Y-110750000D01*
D34*
X147611000Y-112234000D02*
X146766000Y-112234000D01*
X146766000Y-112234000D02*
X144500000Y-114500000D01*
X144500000Y-114500000D02*
X143000000Y-114500000D01*
X140500000Y-112000000D02*
X140500000Y-104810000D01*
X140500000Y-104810000D02*
X139440000Y-103750000D01*
X139440000Y-103750000D02*
X138635000Y-103750000D01*
D37*
%TO.N,Net-(D2-Pad1)*%
X142365000Y-103750000D02*
X142365000Y-104995000D01*
X142365000Y-104995000D02*
X142750000Y-105380000D01*
X142750000Y-105380000D02*
X142750000Y-107000000D01*
D34*
X146590000Y-102910000D02*
X146180000Y-102500000D01*
X146180000Y-102500000D02*
X142810000Y-102500000D01*
X142810000Y-102500000D02*
X142365000Y-102945000D01*
X142365000Y-102945000D02*
X142365000Y-103750000D01*
X146590000Y-102910000D02*
X146590000Y-105970000D01*
X146590000Y-105970000D02*
X147604000Y-106984000D01*
X147604000Y-106984000D02*
X147611000Y-106984000D01*
%TO.N,Net-(D3-Pad1)*%
X147611000Y-102984000D02*
X147611000Y-103111000D01*
X147611000Y-103111000D02*
X148500000Y-104000000D01*
X148500000Y-104000000D02*
X151365000Y-104000000D01*
X151365000Y-104000000D02*
X151365000Y-105255000D01*
X151365000Y-105255000D02*
X150320000Y-106300000D01*
X150320000Y-106300000D02*
X150320000Y-109320000D01*
X150320000Y-109320000D02*
X151750000Y-110750000D01*
D37*
%TO.N,Net-(D4-Pad1)*%
X158365000Y-104000000D02*
X158365000Y-105125000D01*
X158365000Y-105125000D02*
X158750000Y-105510000D01*
X158750000Y-105510000D02*
X158750000Y-107000000D01*
D34*
X161734000Y-101889000D02*
X160901000Y-101889000D01*
X160901000Y-101889000D02*
X159840000Y-102950000D01*
X159840000Y-102950000D02*
X159260000Y-102950000D01*
X159260000Y-102950000D02*
X158365000Y-103845000D01*
X158365000Y-103845000D02*
X158365000Y-104000000D01*
D33*
%TO.N,REL3*%
X152840000Y-100450000D02*
X150306000Y-102984000D01*
X150306000Y-102984000D02*
X149389000Y-102984000D01*
X152840000Y-100450000D02*
X152840000Y-99970000D01*
D36*
X152840000Y-99970000D02*
X152840000Y-98912000D01*
D33*
%TO.N,REL4*%
X161734000Y-100111000D02*
X160001000Y-100111000D01*
X160001000Y-100111000D02*
X159840000Y-99950000D01*
D36*
X159840000Y-98912000D02*
X159840000Y-99950000D01*
D37*
%TO.N,IN_1*%
X155750000Y-76550000D02*
X155750000Y-69700000D01*
X155750000Y-69700000D02*
X156120000Y-69330000D01*
X156120000Y-69330000D02*
X156120000Y-66830000D01*
X158500000Y-76615000D02*
X155815000Y-76615000D01*
X155815000Y-76615000D02*
X155750000Y-76550000D01*
%TO.N,IN_2*%
X162100000Y-76550000D02*
X162100000Y-70830000D01*
X162100000Y-70830000D02*
X161200000Y-69930000D01*
X161200000Y-69930000D02*
X161200000Y-66830000D01*
D33*
X160100000Y-81800000D02*
X160100000Y-77350000D01*
X160100000Y-77350000D02*
X160900000Y-76550000D01*
X160900000Y-76550000D02*
X162100000Y-76550000D01*
X162750000Y-82865000D02*
X161165000Y-82865000D01*
X161165000Y-82865000D02*
X160100000Y-81800000D01*
%TO.N,IN_DN*%
X158340000Y-85280000D02*
X158340000Y-86030000D01*
D36*
X158340000Y-86030000D02*
X158340000Y-87088000D01*
D34*
X158512000Y-82990000D02*
X158512000Y-79897000D01*
X158512000Y-79897000D02*
X158500000Y-79885000D01*
D33*
X158512000Y-82990000D02*
X158512000Y-85108000D01*
X158512000Y-85108000D02*
X158340000Y-85280000D01*
%TO.N,IN_UP*%
X163270000Y-89250000D02*
X163070000Y-89250000D01*
D36*
X163070000Y-89250000D02*
X162002000Y-89250000D01*
D33*
X163512000Y-87750000D02*
X163512000Y-89008000D01*
X163512000Y-89008000D02*
X163270000Y-89250000D01*
X162750000Y-86135000D02*
X162750000Y-86730000D01*
X162750000Y-86730000D02*
X163512000Y-87492000D01*
X163512000Y-87492000D02*
X163512000Y-87750000D01*
%TD*%
D38*
%TO.N,/V5_SW*%
G36*
X141273000Y-86317394D02*
X139910197Y-87680197D01*
X139882667Y-87721399D01*
X139873000Y-87770000D01*
X139873000Y-92263000D01*
X135847000Y-92263000D01*
X135847000Y-87527000D01*
X137840000Y-87527000D01*
X137888601Y-87517333D01*
X137929513Y-87490091D01*
X139452366Y-85977000D01*
X141273000Y-85977000D01*
X141273000Y-86317394D01*
X141273000Y-86317394D01*
G37*
X141273000Y-86317394D02*
X139910197Y-87680197D01*
X139882667Y-87721399D01*
X139873000Y-87770000D01*
X139873000Y-92263000D01*
X135847000Y-92263000D01*
X135847000Y-87527000D01*
X137840000Y-87527000D01*
X137888601Y-87517333D01*
X137929513Y-87490091D01*
X139452366Y-85977000D01*
X141273000Y-85977000D01*
X141273000Y-86317394D01*
%TO.N,5V*%
G36*
X146623000Y-101873000D02*
X143127000Y-101873000D01*
X143127000Y-99127000D01*
X146623000Y-99127000D01*
X146623000Y-101873000D01*
X146623000Y-101873000D01*
G37*
X146623000Y-101873000D02*
X143127000Y-101873000D01*
X143127000Y-99127000D01*
X146623000Y-99127000D01*
X146623000Y-101873000D01*
%TO.N,GND*%
G36*
X146523000Y-94523000D02*
X144277000Y-94523000D01*
X144277000Y-91127000D01*
X146523000Y-91127000D01*
X146523000Y-94523000D01*
X146523000Y-94523000D01*
G37*
X146523000Y-94523000D02*
X144277000Y-94523000D01*
X144277000Y-91127000D01*
X146523000Y-91127000D01*
X146523000Y-94523000D01*
G36*
X142323000Y-82623000D02*
X139677000Y-82623000D01*
X139677000Y-80367000D01*
X142323000Y-80367000D01*
X142323000Y-82623000D01*
X142323000Y-82623000D01*
G37*
X142323000Y-82623000D02*
X139677000Y-82623000D01*
X139677000Y-80367000D01*
X142323000Y-80367000D01*
X142323000Y-82623000D01*
G36*
X135833000Y-80983000D02*
X134467000Y-80983000D01*
X134467000Y-76407000D01*
X135833000Y-76407000D01*
X135833000Y-80983000D01*
X135833000Y-80983000D01*
G37*
X135833000Y-80983000D02*
X134467000Y-80983000D01*
X134467000Y-76407000D01*
X135833000Y-76407000D01*
X135833000Y-80983000D01*
G36*
X144623000Y-89623000D02*
X141427000Y-89623000D01*
X141427000Y-87377000D01*
X144623000Y-87377000D01*
X144623000Y-89623000D01*
X144623000Y-89623000D01*
G37*
X144623000Y-89623000D02*
X141427000Y-89623000D01*
X141427000Y-87377000D01*
X144623000Y-87377000D01*
X144623000Y-89623000D01*
%TO.N,5V*%
G36*
X152408201Y-88377473D02*
X152399742Y-88420000D01*
X152433254Y-88588479D01*
X152504601Y-88695258D01*
X152504603Y-88695260D01*
X152528691Y-88731310D01*
X152564741Y-88755398D01*
X152904600Y-89095257D01*
X152928690Y-89131310D01*
X153071520Y-89226746D01*
X153197474Y-89251800D01*
X153197478Y-89251800D01*
X153239999Y-89260258D01*
X153282520Y-89251800D01*
X153283775Y-89251800D01*
X153390302Y-89358327D01*
X153623691Y-89455000D01*
X153876309Y-89455000D01*
X154109698Y-89358327D01*
X154288327Y-89179698D01*
X154385000Y-88946309D01*
X154385000Y-88693691D01*
X154288327Y-88460302D01*
X154109698Y-88281673D01*
X153876309Y-88185000D01*
X153623691Y-88185000D01*
X153390302Y-88281673D01*
X153351316Y-88320659D01*
X153271800Y-88241143D01*
X153271800Y-88134873D01*
X153490000Y-88134873D01*
X153529579Y-88127000D01*
X153650421Y-88127000D01*
X153690000Y-88134873D01*
X153990000Y-88134873D01*
X154029579Y-88127000D01*
X154150421Y-88127000D01*
X154190000Y-88134873D01*
X154490000Y-88134873D01*
X154529579Y-88127000D01*
X154650421Y-88127000D01*
X154690000Y-88134873D01*
X154990000Y-88134873D01*
X155029579Y-88127000D01*
X155150421Y-88127000D01*
X155190000Y-88134873D01*
X155490000Y-88134873D01*
X155529579Y-88127000D01*
X155650421Y-88127000D01*
X155690000Y-88134873D01*
X155990000Y-88134873D01*
X156029579Y-88127000D01*
X156150421Y-88127000D01*
X156190000Y-88134873D01*
X156490000Y-88134873D01*
X156529579Y-88127000D01*
X156650421Y-88127000D01*
X156690000Y-88134873D01*
X156990000Y-88134873D01*
X157029579Y-88127000D01*
X157150421Y-88127000D01*
X157190000Y-88134873D01*
X157490000Y-88134873D01*
X157529579Y-88127000D01*
X157650421Y-88127000D01*
X157690000Y-88134873D01*
X157990000Y-88134873D01*
X158029579Y-88127000D01*
X158150421Y-88127000D01*
X158190000Y-88134873D01*
X158490000Y-88134873D01*
X158529579Y-88127000D01*
X158650421Y-88127000D01*
X158690000Y-88134873D01*
X158990000Y-88134873D01*
X159029580Y-88127000D01*
X159269904Y-88127000D01*
X159205000Y-88283691D01*
X159205000Y-88536309D01*
X159301673Y-88769698D01*
X159480302Y-88948327D01*
X159713691Y-89045000D01*
X159966309Y-89045000D01*
X160199698Y-88948327D01*
X160378327Y-88769698D01*
X160475000Y-88536309D01*
X160475000Y-88283691D01*
X160410096Y-88127000D01*
X160963000Y-88127000D01*
X160963000Y-89060420D01*
X160955127Y-89100000D01*
X160955127Y-89400000D01*
X160963000Y-89439579D01*
X160963000Y-89560421D01*
X160955127Y-89600000D01*
X160955127Y-89900000D01*
X160963000Y-89939579D01*
X160963000Y-90060421D01*
X160955127Y-90100000D01*
X160955127Y-90400000D01*
X160963000Y-90439579D01*
X160963000Y-90560421D01*
X160955127Y-90600000D01*
X160955127Y-90900000D01*
X160963000Y-90939579D01*
X160963000Y-91060421D01*
X160955127Y-91100000D01*
X160955127Y-91400000D01*
X160963000Y-91439579D01*
X160963000Y-91560421D01*
X160955127Y-91600000D01*
X160955127Y-91900000D01*
X160963000Y-91939579D01*
X160963000Y-92060421D01*
X160955127Y-92100000D01*
X160955127Y-92400000D01*
X160963000Y-92439579D01*
X160963000Y-92560421D01*
X160955127Y-92600000D01*
X160955127Y-92900000D01*
X160963000Y-92939579D01*
X160963000Y-93060421D01*
X160955127Y-93100000D01*
X160955127Y-93400000D01*
X160963000Y-93439579D01*
X160963000Y-93560421D01*
X160955127Y-93600000D01*
X160955127Y-93676643D01*
X160806309Y-93615000D01*
X160553691Y-93615000D01*
X160320302Y-93711673D01*
X160141673Y-93890302D01*
X160045000Y-94123691D01*
X160045000Y-94376309D01*
X160141673Y-94609698D01*
X160320302Y-94788327D01*
X160553691Y-94885000D01*
X160806309Y-94885000D01*
X160963000Y-94820096D01*
X160963000Y-95060420D01*
X160955127Y-95100000D01*
X160955127Y-95400000D01*
X160963000Y-95439579D01*
X160963000Y-95560421D01*
X160955127Y-95600000D01*
X160955127Y-95900000D01*
X160963000Y-95939579D01*
X160963000Y-96060421D01*
X160955127Y-96100000D01*
X160955127Y-96400000D01*
X160963000Y-96439579D01*
X160963000Y-96560421D01*
X160955127Y-96600000D01*
X160955127Y-96900000D01*
X160963000Y-96939580D01*
X160963000Y-97873000D01*
X160029580Y-97873000D01*
X159990000Y-97865127D01*
X159690000Y-97865127D01*
X159650421Y-97873000D01*
X159529579Y-97873000D01*
X159490000Y-97865127D01*
X159190000Y-97865127D01*
X159150421Y-97873000D01*
X159029579Y-97873000D01*
X158990000Y-97865127D01*
X158690000Y-97865127D01*
X158650421Y-97873000D01*
X158529579Y-97873000D01*
X158490000Y-97865127D01*
X158190000Y-97865127D01*
X158150421Y-97873000D01*
X158029579Y-97873000D01*
X157990000Y-97865127D01*
X157690000Y-97865127D01*
X157650421Y-97873000D01*
X157529579Y-97873000D01*
X157490000Y-97865127D01*
X157190000Y-97865127D01*
X157150421Y-97873000D01*
X157029579Y-97873000D01*
X156990000Y-97865127D01*
X156690000Y-97865127D01*
X156650421Y-97873000D01*
X156529579Y-97873000D01*
X156490000Y-97865127D01*
X156190000Y-97865127D01*
X156150420Y-97873000D01*
X155910096Y-97873000D01*
X155975000Y-97716309D01*
X155975000Y-97463691D01*
X155878327Y-97230302D01*
X155699698Y-97051673D01*
X155466309Y-96955000D01*
X155213691Y-96955000D01*
X154980302Y-97051673D01*
X154801673Y-97230302D01*
X154705000Y-97463691D01*
X154705000Y-97716309D01*
X154766643Y-97865127D01*
X154690000Y-97865127D01*
X154650421Y-97873000D01*
X154529579Y-97873000D01*
X154490000Y-97865127D01*
X154190000Y-97865127D01*
X154150421Y-97873000D01*
X154029579Y-97873000D01*
X153990000Y-97865127D01*
X153690000Y-97865127D01*
X153650421Y-97873000D01*
X153529579Y-97873000D01*
X153490000Y-97865127D01*
X153190000Y-97865127D01*
X153150421Y-97873000D01*
X153029579Y-97873000D01*
X152990000Y-97865127D01*
X152690000Y-97865127D01*
X152650421Y-97873000D01*
X152529579Y-97873000D01*
X152490000Y-97865127D01*
X152190000Y-97865127D01*
X152150420Y-97873000D01*
X151217000Y-97873000D01*
X151217000Y-96939580D01*
X151224873Y-96900000D01*
X151224873Y-96600000D01*
X151217000Y-96560421D01*
X151217000Y-96439579D01*
X151224873Y-96400000D01*
X151224873Y-96100000D01*
X151217000Y-96060421D01*
X151217000Y-95939579D01*
X151224873Y-95900000D01*
X151224873Y-95600000D01*
X151217000Y-95560421D01*
X151217000Y-95439579D01*
X151224873Y-95400000D01*
X151224873Y-95100000D01*
X151217000Y-95060421D01*
X151217000Y-94939579D01*
X151224873Y-94900000D01*
X151224873Y-94600000D01*
X151217000Y-94560421D01*
X151217000Y-94439579D01*
X151224873Y-94400000D01*
X151224873Y-94294437D01*
X151321341Y-94358894D01*
X151432476Y-94381000D01*
X151469999Y-94388464D01*
X151487048Y-94385073D01*
X151640302Y-94538327D01*
X151873691Y-94635000D01*
X152126309Y-94635000D01*
X152359698Y-94538327D01*
X152538327Y-94359698D01*
X152635000Y-94126309D01*
X152635000Y-93873691D01*
X152538327Y-93640302D01*
X152359698Y-93461673D01*
X152150451Y-93375000D01*
X152359698Y-93288327D01*
X152538327Y-93109698D01*
X152635000Y-92876309D01*
X152635000Y-92623691D01*
X152538327Y-92390302D01*
X152359698Y-92211673D01*
X152126309Y-92115000D01*
X152033025Y-92115000D01*
X152038327Y-92109698D01*
X152135000Y-91876309D01*
X152135000Y-91623691D01*
X152038327Y-91390302D01*
X151859698Y-91211673D01*
X151626309Y-91115000D01*
X151397962Y-91115000D01*
X151428659Y-91108894D01*
X151539250Y-91035000D01*
X151756309Y-91035000D01*
X151989698Y-90938327D01*
X152168327Y-90759698D01*
X152265000Y-90526309D01*
X152265000Y-90273691D01*
X152168327Y-90040302D01*
X151989698Y-89861673D01*
X151756309Y-89765000D01*
X151713816Y-89765000D01*
X151932875Y-89545941D01*
X151964686Y-89524686D01*
X152048894Y-89398659D01*
X152054794Y-89369000D01*
X152078464Y-89250000D01*
X152071000Y-89212476D01*
X152071000Y-88127000D01*
X152408201Y-88127000D01*
X152408201Y-88377473D01*
X152408201Y-88377473D01*
G37*
X152408201Y-88377473D02*
X152399742Y-88420000D01*
X152433254Y-88588479D01*
X152504601Y-88695258D01*
X152504603Y-88695260D01*
X152528691Y-88731310D01*
X152564741Y-88755398D01*
X152904600Y-89095257D01*
X152928690Y-89131310D01*
X153071520Y-89226746D01*
X153197474Y-89251800D01*
X153197478Y-89251800D01*
X153239999Y-89260258D01*
X153282520Y-89251800D01*
X153283775Y-89251800D01*
X153390302Y-89358327D01*
X153623691Y-89455000D01*
X153876309Y-89455000D01*
X154109698Y-89358327D01*
X154288327Y-89179698D01*
X154385000Y-88946309D01*
X154385000Y-88693691D01*
X154288327Y-88460302D01*
X154109698Y-88281673D01*
X153876309Y-88185000D01*
X153623691Y-88185000D01*
X153390302Y-88281673D01*
X153351316Y-88320659D01*
X153271800Y-88241143D01*
X153271800Y-88134873D01*
X153490000Y-88134873D01*
X153529579Y-88127000D01*
X153650421Y-88127000D01*
X153690000Y-88134873D01*
X153990000Y-88134873D01*
X154029579Y-88127000D01*
X154150421Y-88127000D01*
X154190000Y-88134873D01*
X154490000Y-88134873D01*
X154529579Y-88127000D01*
X154650421Y-88127000D01*
X154690000Y-88134873D01*
X154990000Y-88134873D01*
X155029579Y-88127000D01*
X155150421Y-88127000D01*
X155190000Y-88134873D01*
X155490000Y-88134873D01*
X155529579Y-88127000D01*
X155650421Y-88127000D01*
X155690000Y-88134873D01*
X155990000Y-88134873D01*
X156029579Y-88127000D01*
X156150421Y-88127000D01*
X156190000Y-88134873D01*
X156490000Y-88134873D01*
X156529579Y-88127000D01*
X156650421Y-88127000D01*
X156690000Y-88134873D01*
X156990000Y-88134873D01*
X157029579Y-88127000D01*
X157150421Y-88127000D01*
X157190000Y-88134873D01*
X157490000Y-88134873D01*
X157529579Y-88127000D01*
X157650421Y-88127000D01*
X157690000Y-88134873D01*
X157990000Y-88134873D01*
X158029579Y-88127000D01*
X158150421Y-88127000D01*
X158190000Y-88134873D01*
X158490000Y-88134873D01*
X158529579Y-88127000D01*
X158650421Y-88127000D01*
X158690000Y-88134873D01*
X158990000Y-88134873D01*
X159029580Y-88127000D01*
X159269904Y-88127000D01*
X159205000Y-88283691D01*
X159205000Y-88536309D01*
X159301673Y-88769698D01*
X159480302Y-88948327D01*
X159713691Y-89045000D01*
X159966309Y-89045000D01*
X160199698Y-88948327D01*
X160378327Y-88769698D01*
X160475000Y-88536309D01*
X160475000Y-88283691D01*
X160410096Y-88127000D01*
X160963000Y-88127000D01*
X160963000Y-89060420D01*
X160955127Y-89100000D01*
X160955127Y-89400000D01*
X160963000Y-89439579D01*
X160963000Y-89560421D01*
X160955127Y-89600000D01*
X160955127Y-89900000D01*
X160963000Y-89939579D01*
X160963000Y-90060421D01*
X160955127Y-90100000D01*
X160955127Y-90400000D01*
X160963000Y-90439579D01*
X160963000Y-90560421D01*
X160955127Y-90600000D01*
X160955127Y-90900000D01*
X160963000Y-90939579D01*
X160963000Y-91060421D01*
X160955127Y-91100000D01*
X160955127Y-91400000D01*
X160963000Y-91439579D01*
X160963000Y-91560421D01*
X160955127Y-91600000D01*
X160955127Y-91900000D01*
X160963000Y-91939579D01*
X160963000Y-92060421D01*
X160955127Y-92100000D01*
X160955127Y-92400000D01*
X160963000Y-92439579D01*
X160963000Y-92560421D01*
X160955127Y-92600000D01*
X160955127Y-92900000D01*
X160963000Y-92939579D01*
X160963000Y-93060421D01*
X160955127Y-93100000D01*
X160955127Y-93400000D01*
X160963000Y-93439579D01*
X160963000Y-93560421D01*
X160955127Y-93600000D01*
X160955127Y-93676643D01*
X160806309Y-93615000D01*
X160553691Y-93615000D01*
X160320302Y-93711673D01*
X160141673Y-93890302D01*
X160045000Y-94123691D01*
X160045000Y-94376309D01*
X160141673Y-94609698D01*
X160320302Y-94788327D01*
X160553691Y-94885000D01*
X160806309Y-94885000D01*
X160963000Y-94820096D01*
X160963000Y-95060420D01*
X160955127Y-95100000D01*
X160955127Y-95400000D01*
X160963000Y-95439579D01*
X160963000Y-95560421D01*
X160955127Y-95600000D01*
X160955127Y-95900000D01*
X160963000Y-95939579D01*
X160963000Y-96060421D01*
X160955127Y-96100000D01*
X160955127Y-96400000D01*
X160963000Y-96439579D01*
X160963000Y-96560421D01*
X160955127Y-96600000D01*
X160955127Y-96900000D01*
X160963000Y-96939580D01*
X160963000Y-97873000D01*
X160029580Y-97873000D01*
X159990000Y-97865127D01*
X159690000Y-97865127D01*
X159650421Y-97873000D01*
X159529579Y-97873000D01*
X159490000Y-97865127D01*
X159190000Y-97865127D01*
X159150421Y-97873000D01*
X159029579Y-97873000D01*
X158990000Y-97865127D01*
X158690000Y-97865127D01*
X158650421Y-97873000D01*
X158529579Y-97873000D01*
X158490000Y-97865127D01*
X158190000Y-97865127D01*
X158150421Y-97873000D01*
X158029579Y-97873000D01*
X157990000Y-97865127D01*
X157690000Y-97865127D01*
X157650421Y-97873000D01*
X157529579Y-97873000D01*
X157490000Y-97865127D01*
X157190000Y-97865127D01*
X157150421Y-97873000D01*
X157029579Y-97873000D01*
X156990000Y-97865127D01*
X156690000Y-97865127D01*
X156650421Y-97873000D01*
X156529579Y-97873000D01*
X156490000Y-97865127D01*
X156190000Y-97865127D01*
X156150420Y-97873000D01*
X155910096Y-97873000D01*
X155975000Y-97716309D01*
X155975000Y-97463691D01*
X155878327Y-97230302D01*
X155699698Y-97051673D01*
X155466309Y-96955000D01*
X155213691Y-96955000D01*
X154980302Y-97051673D01*
X154801673Y-97230302D01*
X154705000Y-97463691D01*
X154705000Y-97716309D01*
X154766643Y-97865127D01*
X154690000Y-97865127D01*
X154650421Y-97873000D01*
X154529579Y-97873000D01*
X154490000Y-97865127D01*
X154190000Y-97865127D01*
X154150421Y-97873000D01*
X154029579Y-97873000D01*
X153990000Y-97865127D01*
X153690000Y-97865127D01*
X153650421Y-97873000D01*
X153529579Y-97873000D01*
X153490000Y-97865127D01*
X153190000Y-97865127D01*
X153150421Y-97873000D01*
X153029579Y-97873000D01*
X152990000Y-97865127D01*
X152690000Y-97865127D01*
X152650421Y-97873000D01*
X152529579Y-97873000D01*
X152490000Y-97865127D01*
X152190000Y-97865127D01*
X152150420Y-97873000D01*
X151217000Y-97873000D01*
X151217000Y-96939580D01*
X151224873Y-96900000D01*
X151224873Y-96600000D01*
X151217000Y-96560421D01*
X151217000Y-96439579D01*
X151224873Y-96400000D01*
X151224873Y-96100000D01*
X151217000Y-96060421D01*
X151217000Y-95939579D01*
X151224873Y-95900000D01*
X151224873Y-95600000D01*
X151217000Y-95560421D01*
X151217000Y-95439579D01*
X151224873Y-95400000D01*
X151224873Y-95100000D01*
X151217000Y-95060421D01*
X151217000Y-94939579D01*
X151224873Y-94900000D01*
X151224873Y-94600000D01*
X151217000Y-94560421D01*
X151217000Y-94439579D01*
X151224873Y-94400000D01*
X151224873Y-94294437D01*
X151321341Y-94358894D01*
X151432476Y-94381000D01*
X151469999Y-94388464D01*
X151487048Y-94385073D01*
X151640302Y-94538327D01*
X151873691Y-94635000D01*
X152126309Y-94635000D01*
X152359698Y-94538327D01*
X152538327Y-94359698D01*
X152635000Y-94126309D01*
X152635000Y-93873691D01*
X152538327Y-93640302D01*
X152359698Y-93461673D01*
X152150451Y-93375000D01*
X152359698Y-93288327D01*
X152538327Y-93109698D01*
X152635000Y-92876309D01*
X152635000Y-92623691D01*
X152538327Y-92390302D01*
X152359698Y-92211673D01*
X152126309Y-92115000D01*
X152033025Y-92115000D01*
X152038327Y-92109698D01*
X152135000Y-91876309D01*
X152135000Y-91623691D01*
X152038327Y-91390302D01*
X151859698Y-91211673D01*
X151626309Y-91115000D01*
X151397962Y-91115000D01*
X151428659Y-91108894D01*
X151539250Y-91035000D01*
X151756309Y-91035000D01*
X151989698Y-90938327D01*
X152168327Y-90759698D01*
X152265000Y-90526309D01*
X152265000Y-90273691D01*
X152168327Y-90040302D01*
X151989698Y-89861673D01*
X151756309Y-89765000D01*
X151713816Y-89765000D01*
X151932875Y-89545941D01*
X151964686Y-89524686D01*
X152048894Y-89398659D01*
X152054794Y-89369000D01*
X152078464Y-89250000D01*
X152071000Y-89212476D01*
X152071000Y-88127000D01*
X152408201Y-88127000D01*
X152408201Y-88377473D01*
%TO.N,GND*%
G36*
X156733000Y-81873000D02*
X154767000Y-81873000D01*
X154767000Y-79117000D01*
X156733000Y-79117000D01*
X156733000Y-81873000D01*
X156733000Y-81873000D01*
G37*
X156733000Y-81873000D02*
X154767000Y-81873000D01*
X154767000Y-79117000D01*
X156733000Y-79117000D01*
X156733000Y-81873000D01*
G36*
X163233000Y-81873000D02*
X161017000Y-81873000D01*
X161017000Y-79017000D01*
X163233000Y-79017000D01*
X163233000Y-81873000D01*
X163233000Y-81873000D01*
G37*
X163233000Y-81873000D02*
X161017000Y-81873000D01*
X161017000Y-79017000D01*
X163233000Y-79017000D01*
X163233000Y-81873000D01*
%TD*%
M02*
