%TF.GenerationSoftware,KiCad,Pcbnew,5.0.2*%
%TF.CreationDate,2020-05-26T14:16:45+02:00*%
%TF.ProjectId,cowdin-2-shutter,636f7764-696e-42d3-922d-736875747465,0.1*%
%TF.SameCoordinates,Original*%
%TF.FileFunction,Legend,Top*%
%TF.FilePolarity,Positive*%
%FSLAX46Y46*%
G04 Gerber Fmt 4.6, Leading zero omitted, Abs format (unit mm)*
G04 Created by KiCad (PCBNEW 5.0.2) date mar. 26 mai 2020 14:16:45 CEST*
%MOMM*%
%LPD*%
G01*
G04 APERTURE LIST*
%ADD10C,0.152400*%
%ADD11C,0.150000*%
%ADD12C,0.101600*%
%ADD13C,0.050800*%
%ADD14C,0.127000*%
G04 APERTURE END LIST*
D10*
X132000000Y-74000000D02*
X165000000Y-74000000D01*
D11*
%TO.C,D2*%
X146000000Y-104650000D02*
X142460000Y-104650000D01*
X146000000Y-102850000D02*
X142460000Y-102850000D01*
X144317500Y-104258000D02*
X144317500Y-103242000D01*
X143682500Y-103369000D02*
X144317500Y-103750000D01*
X143682500Y-104131000D02*
X143682500Y-103369000D01*
X144317500Y-103750000D02*
X143682500Y-104131000D01*
X144698500Y-103750000D02*
X144317500Y-103750000D01*
X143682500Y-103750000D02*
X143301500Y-103750000D01*
%TO.C,D1*%
X135000000Y-102850000D02*
X138540000Y-102850000D01*
X135000000Y-104650000D02*
X138540000Y-104650000D01*
X136682500Y-103242000D02*
X136682500Y-104258000D01*
X137317500Y-104131000D02*
X136682500Y-103750000D01*
X137317500Y-103369000D02*
X137317500Y-104131000D01*
X136682500Y-103750000D02*
X137317500Y-103369000D01*
X136301500Y-103750000D02*
X136682500Y-103750000D01*
X137317500Y-103750000D02*
X137698500Y-103750000D01*
D12*
%TO.C,C16*%
X143100000Y-100650000D02*
X143100000Y-93350000D01*
X147400000Y-93350000D02*
X147400000Y-100650000D01*
X143100000Y-100650000D02*
X143900000Y-100650000D01*
X143100000Y-93350000D02*
X143900000Y-93350000D01*
X147400000Y-100650000D02*
X146600000Y-100650000D01*
X147400000Y-93350000D02*
X146600000Y-93350000D01*
D13*
%TO.C,L11*%
X132496200Y-90899680D02*
X135437520Y-90899680D01*
X141503040Y-90899680D02*
X142503800Y-91900440D01*
X141503040Y-90899680D02*
X139562480Y-90899680D01*
X141503040Y-101100320D02*
X142503800Y-100099560D01*
X142503800Y-100099560D02*
X142503800Y-91900440D01*
X141503040Y-101100320D02*
X139562480Y-101100320D01*
X133496960Y-101100320D02*
X132496200Y-100099560D01*
X133496960Y-101100320D02*
X135437520Y-101100320D01*
X132496200Y-90899680D02*
X132496200Y-100099560D01*
D11*
%TO.C,D12*%
X138000000Y-87100000D02*
X138000000Y-87500000D01*
X142600000Y-87100000D02*
X138000000Y-87100000D01*
X142600000Y-89900000D02*
X142600000Y-89500000D01*
X138000000Y-89900000D02*
X142600000Y-89900000D01*
X139500000Y-89900000D02*
X139500000Y-87100000D01*
X142600000Y-87500000D02*
X142600000Y-87100000D01*
X138000000Y-89900000D02*
X138000000Y-89500000D01*
D13*
%TO.C,U3*%
X144003680Y-83496320D02*
X144003680Y-83567440D01*
X140996320Y-83496320D02*
X144003680Y-83496320D01*
X140996320Y-83496320D02*
X140996320Y-83567440D01*
X144003680Y-86503680D02*
X144003680Y-86432560D01*
X140996320Y-86503680D02*
X144003680Y-86503680D01*
X140996320Y-86503680D02*
X140996320Y-86432560D01*
D14*
%TO.C,C13*%
X145365000Y-86857000D02*
X146635000Y-86857000D01*
X145365000Y-89143000D02*
X145365000Y-86857000D01*
X146635000Y-89143000D02*
X145365000Y-89143000D01*
X146635000Y-86857000D02*
X146635000Y-89143000D01*
%TO.C,C12*%
X146553000Y-80145000D02*
X146553000Y-81415000D01*
X144267000Y-80145000D02*
X146553000Y-80145000D01*
X144267000Y-81415000D02*
X144267000Y-80145000D01*
X146553000Y-81415000D02*
X144267000Y-81415000D01*
%TO.C,R14*%
X144983000Y-81865000D02*
X144983000Y-83135000D01*
X142697000Y-81865000D02*
X144983000Y-81865000D01*
X142697000Y-83135000D02*
X142697000Y-81865000D01*
X144983000Y-83135000D02*
X142697000Y-83135000D01*
%TO.C,R15*%
X138343000Y-81995000D02*
X138343000Y-83265000D01*
X136057000Y-81995000D02*
X138343000Y-81995000D01*
X136057000Y-83265000D02*
X136057000Y-81995000D01*
X138343000Y-83265000D02*
X136057000Y-83265000D01*
%TO.C,C14*%
X137365000Y-83597000D02*
X138635000Y-83597000D01*
X137365000Y-85883000D02*
X137365000Y-83597000D01*
X138635000Y-85883000D02*
X137365000Y-85883000D01*
X138635000Y-83597000D02*
X138635000Y-85883000D01*
%TO.C,C15*%
X135765000Y-83597000D02*
X137035000Y-83597000D01*
X135765000Y-85883000D02*
X135765000Y-83597000D01*
X137035000Y-85883000D02*
X135765000Y-85883000D01*
X137035000Y-83597000D02*
X137035000Y-85883000D01*
%TO.C,R17*%
X135385000Y-85893000D02*
X134115000Y-85893000D01*
X135385000Y-83607000D02*
X135385000Y-85893000D01*
X134115000Y-83607000D02*
X135385000Y-83607000D01*
X134115000Y-85893000D02*
X134115000Y-83607000D01*
%TO.C,R16*%
X135385000Y-89353000D02*
X134115000Y-89353000D01*
X135385000Y-87067000D02*
X135385000Y-89353000D01*
X134115000Y-87067000D02*
X135385000Y-87067000D01*
X134115000Y-89353000D02*
X134115000Y-87067000D01*
D11*
%TO.C,RL1*%
X139450000Y-105900000D02*
X134450000Y-105900000D01*
X139450000Y-105900000D02*
X139450000Y-133900000D01*
X139450000Y-133900000D02*
X134450000Y-133900000D01*
X134450000Y-105900000D02*
X134450000Y-133900000D01*
%TO.C,RL2*%
X141450000Y-105900000D02*
X141450000Y-133900000D01*
X146450000Y-133900000D02*
X141450000Y-133900000D01*
X146450000Y-105900000D02*
X146450000Y-133900000D01*
X146450000Y-105900000D02*
X141450000Y-105900000D01*
%TO.C,RL3*%
X155450000Y-105900000D02*
X150450000Y-105900000D01*
X155450000Y-105900000D02*
X155450000Y-133900000D01*
X155450000Y-133900000D02*
X150450000Y-133900000D01*
X150450000Y-105900000D02*
X150450000Y-133900000D01*
%TO.C,RL4*%
X157450000Y-105900000D02*
X157450000Y-133900000D01*
X162450000Y-133900000D02*
X157450000Y-133900000D01*
X162450000Y-105900000D02*
X162450000Y-133900000D01*
X162450000Y-105900000D02*
X157450000Y-105900000D01*
D12*
%TO.C,P1*%
X148500000Y-61750000D02*
X148500000Y-71910000D01*
X133260000Y-71910000D02*
X133260000Y-61750000D01*
X133260000Y-61750000D02*
X148500000Y-61750000D01*
X133260000Y-71910000D02*
X148500000Y-71910000D01*
%TO.C,P3*%
X148500000Y-71910000D02*
X163740000Y-71910000D01*
X148500000Y-61750000D02*
X163740000Y-61750000D01*
X148500000Y-71910000D02*
X148500000Y-61750000D01*
X163740000Y-61750000D02*
X163740000Y-71910000D01*
%TO.C,U1*%
X151090000Y-88000000D02*
X151090000Y-88793760D01*
X151883760Y-88000000D02*
X151090000Y-88000000D01*
X161090000Y-88000000D02*
X160296240Y-88000000D01*
X161090000Y-88793760D02*
X161090000Y-88000000D01*
X161090000Y-98000000D02*
X160296240Y-98000000D01*
X161090000Y-97206240D02*
X161090000Y-98000000D01*
X152601919Y-96750000D02*
G75*
G03X152601919Y-96750000I-261919J0D01*
G01*
X151090000Y-98000000D02*
X151883760Y-98000000D01*
X151090000Y-97206240D02*
X151090000Y-98000000D01*
D14*
%TO.C,U2*%
X148713000Y-81778000D02*
X148713000Y-81905000D01*
X148713000Y-81905000D02*
X154047000Y-81905000D01*
X154047000Y-78095000D02*
X148713000Y-78095000D01*
X148713000Y-78095000D02*
X148713000Y-81778000D01*
X148713000Y-79492000D02*
X149221000Y-79492000D01*
X149221000Y-79492000D02*
X149221000Y-80508000D01*
X149221000Y-80508000D02*
X148713000Y-80508000D01*
X154047000Y-78095000D02*
X154047000Y-81905000D01*
%TO.C,R10*%
X148143000Y-77385000D02*
X145857000Y-77385000D01*
X145857000Y-77385000D02*
X145857000Y-76115000D01*
X145857000Y-76115000D02*
X148143000Y-76115000D01*
X148143000Y-76115000D02*
X148143000Y-77385000D01*
%TO.C,C8*%
X149135000Y-92527000D02*
X149135000Y-94813000D01*
X149135000Y-94813000D02*
X147865000Y-94813000D01*
X147865000Y-94813000D02*
X147865000Y-92527000D01*
X147865000Y-92527000D02*
X149135000Y-92527000D01*
%TO.C,C9*%
X147865000Y-90027000D02*
X149135000Y-90027000D01*
X147865000Y-92313000D02*
X147865000Y-90027000D01*
X149135000Y-92313000D02*
X147865000Y-92313000D01*
X149135000Y-90027000D02*
X149135000Y-92313000D01*
%TO.C,C7*%
X151957000Y-84615000D02*
X154243000Y-84615000D01*
X154243000Y-84615000D02*
X154243000Y-85885000D01*
X154243000Y-85885000D02*
X151957000Y-85885000D01*
X151957000Y-85885000D02*
X151957000Y-84615000D01*
%TO.C,C1*%
X150143000Y-87265000D02*
X150143000Y-88535000D01*
X147857000Y-87265000D02*
X150143000Y-87265000D01*
X147857000Y-88535000D02*
X147857000Y-87265000D01*
X150143000Y-88535000D02*
X147857000Y-88535000D01*
%TO.C,R1*%
X150143000Y-87035000D02*
X147857000Y-87035000D01*
X147857000Y-87035000D02*
X147857000Y-85765000D01*
X147857000Y-85765000D02*
X150143000Y-85765000D01*
X150143000Y-85765000D02*
X150143000Y-87035000D01*
%TO.C,C6*%
X158957000Y-84615000D02*
X161243000Y-84615000D01*
X161243000Y-84615000D02*
X161243000Y-85885000D01*
X161243000Y-85885000D02*
X158957000Y-85885000D01*
X158957000Y-85885000D02*
X158957000Y-84615000D01*
%TO.C,C2*%
X155635000Y-82197000D02*
X155635000Y-84483000D01*
X155635000Y-84483000D02*
X154365000Y-84483000D01*
X154365000Y-84483000D02*
X154365000Y-82197000D01*
X154365000Y-82197000D02*
X155635000Y-82197000D01*
%TO.C,C5*%
X164385000Y-94357000D02*
X164385000Y-96643000D01*
X164385000Y-96643000D02*
X163115000Y-96643000D01*
X163115000Y-96643000D02*
X163115000Y-94357000D01*
X163115000Y-94357000D02*
X164385000Y-94357000D01*
%TO.C,Q1*%
X146976000Y-113631000D02*
X146976000Y-112869000D01*
X150024000Y-113631000D02*
X146976000Y-113631000D01*
X150024000Y-112869000D02*
X150024000Y-113631000D01*
X146976000Y-112869000D02*
X150024000Y-112869000D01*
%TO.C,Q2*%
X146976000Y-107619000D02*
X150024000Y-107619000D01*
X150024000Y-107619000D02*
X150024000Y-108381000D01*
X150024000Y-108381000D02*
X146976000Y-108381000D01*
X146976000Y-108381000D02*
X146976000Y-107619000D01*
D11*
%TO.C,D3*%
X155000000Y-104900000D02*
X151460000Y-104900000D01*
X155000000Y-103100000D02*
X151460000Y-103100000D01*
X153317500Y-104508000D02*
X153317500Y-103492000D01*
X152682500Y-103619000D02*
X153317500Y-104000000D01*
X152682500Y-104381000D02*
X152682500Y-103619000D01*
X153317500Y-104000000D02*
X152682500Y-104381000D01*
X153698500Y-104000000D02*
X153317500Y-104000000D01*
X152682500Y-104000000D02*
X152301500Y-104000000D01*
%TO.C,D4*%
X159682500Y-104000000D02*
X159301500Y-104000000D01*
X160698500Y-104000000D02*
X160317500Y-104000000D01*
X160317500Y-104000000D02*
X159682500Y-104381000D01*
X159682500Y-104381000D02*
X159682500Y-103619000D01*
X159682500Y-103619000D02*
X160317500Y-104000000D01*
X160317500Y-104508000D02*
X160317500Y-103492000D01*
X162000000Y-103100000D02*
X158460000Y-103100000D01*
X162000000Y-104900000D02*
X158460000Y-104900000D01*
D14*
%TO.C,Q3*%
X146976000Y-104381000D02*
X146976000Y-103619000D01*
X150024000Y-104381000D02*
X146976000Y-104381000D01*
X150024000Y-103619000D02*
X150024000Y-104381000D01*
X146976000Y-103619000D02*
X150024000Y-103619000D01*
%TO.C,Q4*%
X162369000Y-102524000D02*
X162369000Y-99476000D01*
X162369000Y-99476000D02*
X163131000Y-99476000D01*
X163131000Y-99476000D02*
X163131000Y-102524000D01*
X163131000Y-102524000D02*
X162369000Y-102524000D01*
D12*
%TO.C,P2*%
X133260000Y-148250000D02*
X148500000Y-148250000D01*
X133260000Y-138090000D02*
X148500000Y-138090000D01*
X133260000Y-148250000D02*
X133260000Y-138090000D01*
X148500000Y-138090000D02*
X148500000Y-148250000D01*
%TO.C,P4*%
X148500000Y-148250000D02*
X163740000Y-148250000D01*
X148500000Y-138090000D02*
X163740000Y-138090000D01*
X148500000Y-148250000D02*
X148500000Y-138090000D01*
X163740000Y-138090000D02*
X163740000Y-148250000D01*
D11*
%TO.C,D5*%
X159400000Y-76250000D02*
X159400000Y-79790000D01*
X157600000Y-76250000D02*
X157600000Y-79790000D01*
X159008000Y-77932500D02*
X157992000Y-77932500D01*
X158119000Y-78567500D02*
X158500000Y-77932500D01*
X158881000Y-78567500D02*
X158119000Y-78567500D01*
X158500000Y-77932500D02*
X158881000Y-78567500D01*
X158500000Y-77551500D02*
X158500000Y-77932500D01*
X158500000Y-78567500D02*
X158500000Y-78948500D01*
%TO.C,D6*%
X157150000Y-76450000D02*
X156750000Y-76450000D01*
X157150000Y-81050000D02*
X157150000Y-76450000D01*
X154350000Y-81050000D02*
X154750000Y-81050000D01*
X154350000Y-76450000D02*
X154350000Y-81050000D01*
X154350000Y-77950000D02*
X157150000Y-77950000D01*
X156750000Y-81050000D02*
X157150000Y-81050000D01*
X154350000Y-76450000D02*
X154750000Y-76450000D01*
%TO.C,D7*%
X162750000Y-84817500D02*
X162750000Y-85198500D01*
X162750000Y-83801500D02*
X162750000Y-84182500D01*
X162750000Y-84182500D02*
X163131000Y-84817500D01*
X163131000Y-84817500D02*
X162369000Y-84817500D01*
X162369000Y-84817500D02*
X162750000Y-84182500D01*
X163258000Y-84182500D02*
X162242000Y-84182500D01*
X161850000Y-82500000D02*
X161850000Y-86040000D01*
X163650000Y-82500000D02*
X163650000Y-86040000D01*
%TO.C,D8*%
X160700000Y-76450000D02*
X161100000Y-76450000D01*
X163100000Y-81050000D02*
X163500000Y-81050000D01*
X160700000Y-77950000D02*
X163500000Y-77950000D01*
X160700000Y-76450000D02*
X160700000Y-81050000D01*
X160700000Y-81050000D02*
X161100000Y-81050000D01*
X163500000Y-81050000D02*
X163500000Y-76450000D01*
X163500000Y-76450000D02*
X163100000Y-76450000D01*
D14*
%TO.C,C3*%
X158893000Y-83625000D02*
X156607000Y-83625000D01*
X156607000Y-83625000D02*
X156607000Y-82355000D01*
X156607000Y-82355000D02*
X158893000Y-82355000D01*
X158893000Y-82355000D02*
X158893000Y-83625000D01*
%TO.C,C4*%
X163893000Y-87115000D02*
X163893000Y-88385000D01*
X161607000Y-87115000D02*
X163893000Y-87115000D01*
X161607000Y-88385000D02*
X161607000Y-87115000D01*
X163893000Y-88385000D02*
X161607000Y-88385000D01*
%TO.C,D2*%
D11*
X141452380Y-104488095D02*
X140452380Y-104488095D01*
X140452380Y-104250000D01*
X140500000Y-104107142D01*
X140595238Y-104011904D01*
X140690476Y-103964285D01*
X140880952Y-103916666D01*
X141023809Y-103916666D01*
X141214285Y-103964285D01*
X141309523Y-104011904D01*
X141404761Y-104107142D01*
X141452380Y-104250000D01*
X141452380Y-104488095D01*
X140547619Y-103535714D02*
X140500000Y-103488095D01*
X140452380Y-103392857D01*
X140452380Y-103154761D01*
X140500000Y-103059523D01*
X140547619Y-103011904D01*
X140642857Y-102964285D01*
X140738095Y-102964285D01*
X140880952Y-103011904D01*
X141452380Y-103583333D01*
X141452380Y-102964285D01*
%TO.C,D1*%
X134452380Y-104488095D02*
X133452380Y-104488095D01*
X133452380Y-104250000D01*
X133500000Y-104107142D01*
X133595238Y-104011904D01*
X133690476Y-103964285D01*
X133880952Y-103916666D01*
X134023809Y-103916666D01*
X134214285Y-103964285D01*
X134309523Y-104011904D01*
X134404761Y-104107142D01*
X134452380Y-104250000D01*
X134452380Y-104488095D01*
X134452380Y-102964285D02*
X134452380Y-103535714D01*
X134452380Y-103250000D02*
X133452380Y-103250000D01*
X133595238Y-103345238D01*
X133690476Y-103440476D01*
X133738095Y-103535714D01*
%TO.C,C10*%
D12*
X137010142Y-76712142D02*
X136973857Y-76748428D01*
X136865000Y-76784714D01*
X136792428Y-76784714D01*
X136683571Y-76748428D01*
X136611000Y-76675857D01*
X136574714Y-76603285D01*
X136538428Y-76458142D01*
X136538428Y-76349285D01*
X136574714Y-76204142D01*
X136611000Y-76131571D01*
X136683571Y-76059000D01*
X136792428Y-76022714D01*
X136865000Y-76022714D01*
X136973857Y-76059000D01*
X137010142Y-76095285D01*
X137735857Y-76784714D02*
X137300428Y-76784714D01*
X137518142Y-76784714D02*
X137518142Y-76022714D01*
X137445571Y-76131571D01*
X137373000Y-76204142D01*
X137300428Y-76240428D01*
X138207571Y-76022714D02*
X138280142Y-76022714D01*
X138352714Y-76059000D01*
X138389000Y-76095285D01*
X138425285Y-76167857D01*
X138461571Y-76313000D01*
X138461571Y-76494428D01*
X138425285Y-76639571D01*
X138389000Y-76712142D01*
X138352714Y-76748428D01*
X138280142Y-76784714D01*
X138207571Y-76784714D01*
X138135000Y-76748428D01*
X138098714Y-76712142D01*
X138062428Y-76639571D01*
X138026142Y-76494428D01*
X138026142Y-76313000D01*
X138062428Y-76167857D01*
X138098714Y-76095285D01*
X138135000Y-76059000D01*
X138207571Y-76022714D01*
%TO.C,C16*%
X148322142Y-99239857D02*
X148358428Y-99276142D01*
X148394714Y-99385000D01*
X148394714Y-99457571D01*
X148358428Y-99566428D01*
X148285857Y-99639000D01*
X148213285Y-99675285D01*
X148068142Y-99711571D01*
X147959285Y-99711571D01*
X147814142Y-99675285D01*
X147741571Y-99639000D01*
X147669000Y-99566428D01*
X147632714Y-99457571D01*
X147632714Y-99385000D01*
X147669000Y-99276142D01*
X147705285Y-99239857D01*
X148394714Y-98514142D02*
X148394714Y-98949571D01*
X148394714Y-98731857D02*
X147632714Y-98731857D01*
X147741571Y-98804428D01*
X147814142Y-98877000D01*
X147850428Y-98949571D01*
X147632714Y-97861000D02*
X147632714Y-98006142D01*
X147669000Y-98078714D01*
X147705285Y-98115000D01*
X147814142Y-98187571D01*
X147959285Y-98223857D01*
X148249571Y-98223857D01*
X148322142Y-98187571D01*
X148358428Y-98151285D01*
X148394714Y-98078714D01*
X148394714Y-97933571D01*
X148358428Y-97861000D01*
X148322142Y-97824714D01*
X148249571Y-97788428D01*
X148068142Y-97788428D01*
X147995571Y-97824714D01*
X147959285Y-97861000D01*
X147923000Y-97933571D01*
X147923000Y-98078714D01*
X147959285Y-98151285D01*
X147995571Y-98187571D01*
X148068142Y-98223857D01*
%TO.C,L11*%
X143554714Y-92309857D02*
X143554714Y-92672714D01*
X142792714Y-92672714D01*
X143554714Y-91656714D02*
X143554714Y-92092142D01*
X143554714Y-91874428D02*
X142792714Y-91874428D01*
X142901571Y-91947000D01*
X142974142Y-92019571D01*
X143010428Y-92092142D01*
X143554714Y-90931000D02*
X143554714Y-91366428D01*
X143554714Y-91148714D02*
X142792714Y-91148714D01*
X142901571Y-91221285D01*
X142974142Y-91293857D01*
X143010428Y-91366428D01*
%TO.C,D12*%
X136534714Y-89315285D02*
X135772714Y-89315285D01*
X135772714Y-89133857D01*
X135809000Y-89025000D01*
X135881571Y-88952428D01*
X135954142Y-88916142D01*
X136099285Y-88879857D01*
X136208142Y-88879857D01*
X136353285Y-88916142D01*
X136425857Y-88952428D01*
X136498428Y-89025000D01*
X136534714Y-89133857D01*
X136534714Y-89315285D01*
X136534714Y-88154142D02*
X136534714Y-88589571D01*
X136534714Y-88371857D02*
X135772714Y-88371857D01*
X135881571Y-88444428D01*
X135954142Y-88517000D01*
X135990428Y-88589571D01*
X135845285Y-87863857D02*
X135809000Y-87827571D01*
X135772714Y-87755000D01*
X135772714Y-87573571D01*
X135809000Y-87501000D01*
X135845285Y-87464714D01*
X135917857Y-87428428D01*
X135990428Y-87428428D01*
X136099285Y-87464714D01*
X136534714Y-87900142D01*
X136534714Y-87428428D01*
%TO.C,U3*%
X146052714Y-84840571D02*
X146669571Y-84840571D01*
X146742142Y-84804285D01*
X146778428Y-84768000D01*
X146814714Y-84695428D01*
X146814714Y-84550285D01*
X146778428Y-84477714D01*
X146742142Y-84441428D01*
X146669571Y-84405142D01*
X146052714Y-84405142D01*
X146052714Y-84114857D02*
X146052714Y-83643142D01*
X146343000Y-83897142D01*
X146343000Y-83788285D01*
X146379285Y-83715714D01*
X146415571Y-83679428D01*
X146488142Y-83643142D01*
X146669571Y-83643142D01*
X146742142Y-83679428D01*
X146778428Y-83715714D01*
X146814714Y-83788285D01*
X146814714Y-84006000D01*
X146778428Y-84078571D01*
X146742142Y-84114857D01*
%TO.C,C13*%
X145510142Y-90272142D02*
X145473857Y-90308428D01*
X145365000Y-90344714D01*
X145292428Y-90344714D01*
X145183571Y-90308428D01*
X145111000Y-90235857D01*
X145074714Y-90163285D01*
X145038428Y-90018142D01*
X145038428Y-89909285D01*
X145074714Y-89764142D01*
X145111000Y-89691571D01*
X145183571Y-89619000D01*
X145292428Y-89582714D01*
X145365000Y-89582714D01*
X145473857Y-89619000D01*
X145510142Y-89655285D01*
X146235857Y-90344714D02*
X145800428Y-90344714D01*
X146018142Y-90344714D02*
X146018142Y-89582714D01*
X145945571Y-89691571D01*
X145873000Y-89764142D01*
X145800428Y-89800428D01*
X146489857Y-89582714D02*
X146961571Y-89582714D01*
X146707571Y-89873000D01*
X146816428Y-89873000D01*
X146889000Y-89909285D01*
X146925285Y-89945571D01*
X146961571Y-90018142D01*
X146961571Y-90199571D01*
X146925285Y-90272142D01*
X146889000Y-90308428D01*
X146816428Y-90344714D01*
X146598714Y-90344714D01*
X146526142Y-90308428D01*
X146489857Y-90272142D01*
%TO.C,C12*%
X143920142Y-79712142D02*
X143883857Y-79748428D01*
X143775000Y-79784714D01*
X143702428Y-79784714D01*
X143593571Y-79748428D01*
X143521000Y-79675857D01*
X143484714Y-79603285D01*
X143448428Y-79458142D01*
X143448428Y-79349285D01*
X143484714Y-79204142D01*
X143521000Y-79131571D01*
X143593571Y-79059000D01*
X143702428Y-79022714D01*
X143775000Y-79022714D01*
X143883857Y-79059000D01*
X143920142Y-79095285D01*
X144645857Y-79784714D02*
X144210428Y-79784714D01*
X144428142Y-79784714D02*
X144428142Y-79022714D01*
X144355571Y-79131571D01*
X144283000Y-79204142D01*
X144210428Y-79240428D01*
X144936142Y-79095285D02*
X144972428Y-79059000D01*
X145045000Y-79022714D01*
X145226428Y-79022714D01*
X145299000Y-79059000D01*
X145335285Y-79095285D01*
X145371571Y-79167857D01*
X145371571Y-79240428D01*
X145335285Y-79349285D01*
X144899857Y-79784714D01*
X145371571Y-79784714D01*
%TO.C,R14*%
X145820142Y-82844714D02*
X145566142Y-82481857D01*
X145384714Y-82844714D02*
X145384714Y-82082714D01*
X145675000Y-82082714D01*
X145747571Y-82119000D01*
X145783857Y-82155285D01*
X145820142Y-82227857D01*
X145820142Y-82336714D01*
X145783857Y-82409285D01*
X145747571Y-82445571D01*
X145675000Y-82481857D01*
X145384714Y-82481857D01*
X146545857Y-82844714D02*
X146110428Y-82844714D01*
X146328142Y-82844714D02*
X146328142Y-82082714D01*
X146255571Y-82191571D01*
X146183000Y-82264142D01*
X146110428Y-82300428D01*
X147199000Y-82336714D02*
X147199000Y-82844714D01*
X147017571Y-82046428D02*
X146836142Y-82590714D01*
X147307857Y-82590714D01*
%TO.C,R15*%
X136710142Y-81694714D02*
X136456142Y-81331857D01*
X136274714Y-81694714D02*
X136274714Y-80932714D01*
X136565000Y-80932714D01*
X136637571Y-80969000D01*
X136673857Y-81005285D01*
X136710142Y-81077857D01*
X136710142Y-81186714D01*
X136673857Y-81259285D01*
X136637571Y-81295571D01*
X136565000Y-81331857D01*
X136274714Y-81331857D01*
X137435857Y-81694714D02*
X137000428Y-81694714D01*
X137218142Y-81694714D02*
X137218142Y-80932714D01*
X137145571Y-81041571D01*
X137073000Y-81114142D01*
X137000428Y-81150428D01*
X138125285Y-80932714D02*
X137762428Y-80932714D01*
X137726142Y-81295571D01*
X137762428Y-81259285D01*
X137835000Y-81223000D01*
X138016428Y-81223000D01*
X138089000Y-81259285D01*
X138125285Y-81295571D01*
X138161571Y-81368142D01*
X138161571Y-81549571D01*
X138125285Y-81622142D01*
X138089000Y-81658428D01*
X138016428Y-81694714D01*
X137835000Y-81694714D01*
X137762428Y-81658428D01*
X137726142Y-81622142D01*
%TO.C,R17*%
X133794714Y-85239857D02*
X133431857Y-85493857D01*
X133794714Y-85675285D02*
X133032714Y-85675285D01*
X133032714Y-85385000D01*
X133069000Y-85312428D01*
X133105285Y-85276142D01*
X133177857Y-85239857D01*
X133286714Y-85239857D01*
X133359285Y-85276142D01*
X133395571Y-85312428D01*
X133431857Y-85385000D01*
X133431857Y-85675285D01*
X133794714Y-84514142D02*
X133794714Y-84949571D01*
X133794714Y-84731857D02*
X133032714Y-84731857D01*
X133141571Y-84804428D01*
X133214142Y-84877000D01*
X133250428Y-84949571D01*
X133032714Y-84260142D02*
X133032714Y-83752142D01*
X133794714Y-84078714D01*
%TO.C,R16*%
X133794714Y-88699857D02*
X133431857Y-88953857D01*
X133794714Y-89135285D02*
X133032714Y-89135285D01*
X133032714Y-88845000D01*
X133069000Y-88772428D01*
X133105285Y-88736142D01*
X133177857Y-88699857D01*
X133286714Y-88699857D01*
X133359285Y-88736142D01*
X133395571Y-88772428D01*
X133431857Y-88845000D01*
X133431857Y-89135285D01*
X133794714Y-87974142D02*
X133794714Y-88409571D01*
X133794714Y-88191857D02*
X133032714Y-88191857D01*
X133141571Y-88264428D01*
X133214142Y-88337000D01*
X133250428Y-88409571D01*
X133032714Y-87321000D02*
X133032714Y-87466142D01*
X133069000Y-87538714D01*
X133105285Y-87575000D01*
X133214142Y-87647571D01*
X133359285Y-87683857D01*
X133649571Y-87683857D01*
X133722142Y-87647571D01*
X133758428Y-87611285D01*
X133794714Y-87538714D01*
X133794714Y-87393571D01*
X133758428Y-87321000D01*
X133722142Y-87284714D01*
X133649571Y-87248428D01*
X133468142Y-87248428D01*
X133395571Y-87284714D01*
X133359285Y-87321000D01*
X133323000Y-87393571D01*
X133323000Y-87538714D01*
X133359285Y-87611285D01*
X133395571Y-87647571D01*
X133468142Y-87683857D01*
%TO.C,RL1*%
D11*
X133702380Y-109321428D02*
X133226190Y-109654761D01*
X133702380Y-109892857D02*
X132702380Y-109892857D01*
X132702380Y-109511904D01*
X132750000Y-109416666D01*
X132797619Y-109369047D01*
X132892857Y-109321428D01*
X133035714Y-109321428D01*
X133130952Y-109369047D01*
X133178571Y-109416666D01*
X133226190Y-109511904D01*
X133226190Y-109892857D01*
X133702380Y-108416666D02*
X133702380Y-108892857D01*
X132702380Y-108892857D01*
X133702380Y-107559523D02*
X133702380Y-108130952D01*
X133702380Y-107845238D02*
X132702380Y-107845238D01*
X132845238Y-107940476D01*
X132940476Y-108035714D01*
X132988095Y-108130952D01*
%TO.C,RL2*%
X140952380Y-109321428D02*
X140476190Y-109654761D01*
X140952380Y-109892857D02*
X139952380Y-109892857D01*
X139952380Y-109511904D01*
X140000000Y-109416666D01*
X140047619Y-109369047D01*
X140142857Y-109321428D01*
X140285714Y-109321428D01*
X140380952Y-109369047D01*
X140428571Y-109416666D01*
X140476190Y-109511904D01*
X140476190Y-109892857D01*
X140952380Y-108416666D02*
X140952380Y-108892857D01*
X139952380Y-108892857D01*
X140047619Y-108130952D02*
X140000000Y-108083333D01*
X139952380Y-107988095D01*
X139952380Y-107750000D01*
X140000000Y-107654761D01*
X140047619Y-107607142D01*
X140142857Y-107559523D01*
X140238095Y-107559523D01*
X140380952Y-107607142D01*
X140952380Y-108178571D01*
X140952380Y-107559523D01*
%TO.C,RL3*%
X156952380Y-118571428D02*
X156476190Y-118904761D01*
X156952380Y-119142857D02*
X155952380Y-119142857D01*
X155952380Y-118761904D01*
X156000000Y-118666666D01*
X156047619Y-118619047D01*
X156142857Y-118571428D01*
X156285714Y-118571428D01*
X156380952Y-118619047D01*
X156428571Y-118666666D01*
X156476190Y-118761904D01*
X156476190Y-119142857D01*
X156952380Y-117666666D02*
X156952380Y-118142857D01*
X155952380Y-118142857D01*
X155952380Y-117428571D02*
X155952380Y-116809523D01*
X156333333Y-117142857D01*
X156333333Y-117000000D01*
X156380952Y-116904761D01*
X156428571Y-116857142D01*
X156523809Y-116809523D01*
X156761904Y-116809523D01*
X156857142Y-116857142D01*
X156904761Y-116904761D01*
X156952380Y-117000000D01*
X156952380Y-117285714D01*
X156904761Y-117380952D01*
X156857142Y-117428571D01*
%TO.C,RL4*%
X163952380Y-118571428D02*
X163476190Y-118904761D01*
X163952380Y-119142857D02*
X162952380Y-119142857D01*
X162952380Y-118761904D01*
X163000000Y-118666666D01*
X163047619Y-118619047D01*
X163142857Y-118571428D01*
X163285714Y-118571428D01*
X163380952Y-118619047D01*
X163428571Y-118666666D01*
X163476190Y-118761904D01*
X163476190Y-119142857D01*
X163952380Y-117666666D02*
X163952380Y-118142857D01*
X162952380Y-118142857D01*
X163285714Y-116904761D02*
X163952380Y-116904761D01*
X162904761Y-117142857D02*
X163619047Y-117380952D01*
X163619047Y-116761904D01*
%TO.C,C11*%
D12*
X140510142Y-77522142D02*
X140473857Y-77558428D01*
X140365000Y-77594714D01*
X140292428Y-77594714D01*
X140183571Y-77558428D01*
X140111000Y-77485857D01*
X140074714Y-77413285D01*
X140038428Y-77268142D01*
X140038428Y-77159285D01*
X140074714Y-77014142D01*
X140111000Y-76941571D01*
X140183571Y-76869000D01*
X140292428Y-76832714D01*
X140365000Y-76832714D01*
X140473857Y-76869000D01*
X140510142Y-76905285D01*
X141235857Y-77594714D02*
X140800428Y-77594714D01*
X141018142Y-77594714D02*
X141018142Y-76832714D01*
X140945571Y-76941571D01*
X140873000Y-77014142D01*
X140800428Y-77050428D01*
X141961571Y-77594714D02*
X141526142Y-77594714D01*
X141743857Y-77594714D02*
X141743857Y-76832714D01*
X141671285Y-76941571D01*
X141598714Y-77014142D01*
X141526142Y-77050428D01*
%TO.C,P1*%
D10*
X140141904Y-73452380D02*
X140141904Y-72452380D01*
X140522857Y-72452380D01*
X140618095Y-72500000D01*
X140665714Y-72547619D01*
X140713333Y-72642857D01*
X140713333Y-72785714D01*
X140665714Y-72880952D01*
X140618095Y-72928571D01*
X140522857Y-72976190D01*
X140141904Y-72976190D01*
X141665714Y-73452380D02*
X141094285Y-73452380D01*
X141380000Y-73452380D02*
X141380000Y-72452380D01*
X141284761Y-72595238D01*
X141189523Y-72690476D01*
X141094285Y-72738095D01*
%TO.C,P3*%
X155381904Y-73452380D02*
X155381904Y-72452380D01*
X155762857Y-72452380D01*
X155858095Y-72500000D01*
X155905714Y-72547619D01*
X155953333Y-72642857D01*
X155953333Y-72785714D01*
X155905714Y-72880952D01*
X155858095Y-72928571D01*
X155762857Y-72976190D01*
X155381904Y-72976190D01*
X156286666Y-72452380D02*
X156905714Y-72452380D01*
X156572380Y-72833333D01*
X156715238Y-72833333D01*
X156810476Y-72880952D01*
X156858095Y-72928571D01*
X156905714Y-73023809D01*
X156905714Y-73261904D01*
X156858095Y-73357142D01*
X156810476Y-73404761D01*
X156715238Y-73452380D01*
X156429523Y-73452380D01*
X156334285Y-73404761D01*
X156286666Y-73357142D01*
%TO.C,U1*%
D12*
X149559428Y-97402714D02*
X149559428Y-98019571D01*
X149595714Y-98092142D01*
X149632000Y-98128428D01*
X149704571Y-98164714D01*
X149849714Y-98164714D01*
X149922285Y-98128428D01*
X149958571Y-98092142D01*
X149994857Y-98019571D01*
X149994857Y-97402714D01*
X150756857Y-98164714D02*
X150321428Y-98164714D01*
X150539142Y-98164714D02*
X150539142Y-97402714D01*
X150466571Y-97511571D01*
X150394000Y-97584142D01*
X150321428Y-97620428D01*
%TO.C,U2*%
X147582714Y-80580571D02*
X148199571Y-80580571D01*
X148272142Y-80544285D01*
X148308428Y-80508000D01*
X148344714Y-80435428D01*
X148344714Y-80290285D01*
X148308428Y-80217714D01*
X148272142Y-80181428D01*
X148199571Y-80145142D01*
X147582714Y-80145142D01*
X147655285Y-79818571D02*
X147619000Y-79782285D01*
X147582714Y-79709714D01*
X147582714Y-79528285D01*
X147619000Y-79455714D01*
X147655285Y-79419428D01*
X147727857Y-79383142D01*
X147800428Y-79383142D01*
X147909285Y-79419428D01*
X148344714Y-79854857D01*
X148344714Y-79383142D01*
%TO.C,R10*%
X146680142Y-78594714D02*
X146426142Y-78231857D01*
X146244714Y-78594714D02*
X146244714Y-77832714D01*
X146535000Y-77832714D01*
X146607571Y-77869000D01*
X146643857Y-77905285D01*
X146680142Y-77977857D01*
X146680142Y-78086714D01*
X146643857Y-78159285D01*
X146607571Y-78195571D01*
X146535000Y-78231857D01*
X146244714Y-78231857D01*
X147405857Y-78594714D02*
X146970428Y-78594714D01*
X147188142Y-78594714D02*
X147188142Y-77832714D01*
X147115571Y-77941571D01*
X147043000Y-78014142D01*
X146970428Y-78050428D01*
X147877571Y-77832714D02*
X147950142Y-77832714D01*
X148022714Y-77869000D01*
X148059000Y-77905285D01*
X148095285Y-77977857D01*
X148131571Y-78123000D01*
X148131571Y-78304428D01*
X148095285Y-78449571D01*
X148059000Y-78522142D01*
X148022714Y-78558428D01*
X147950142Y-78594714D01*
X147877571Y-78594714D01*
X147805000Y-78558428D01*
X147768714Y-78522142D01*
X147732428Y-78449571D01*
X147696142Y-78304428D01*
X147696142Y-78123000D01*
X147732428Y-77977857D01*
X147768714Y-77905285D01*
X147805000Y-77869000D01*
X147877571Y-77832714D01*
%TO.C,C8*%
X148772142Y-96697000D02*
X148808428Y-96733285D01*
X148844714Y-96842142D01*
X148844714Y-96914714D01*
X148808428Y-97023571D01*
X148735857Y-97096142D01*
X148663285Y-97132428D01*
X148518142Y-97168714D01*
X148409285Y-97168714D01*
X148264142Y-97132428D01*
X148191571Y-97096142D01*
X148119000Y-97023571D01*
X148082714Y-96914714D01*
X148082714Y-96842142D01*
X148119000Y-96733285D01*
X148155285Y-96697000D01*
X148409285Y-96261571D02*
X148373000Y-96334142D01*
X148336714Y-96370428D01*
X148264142Y-96406714D01*
X148227857Y-96406714D01*
X148155285Y-96370428D01*
X148119000Y-96334142D01*
X148082714Y-96261571D01*
X148082714Y-96116428D01*
X148119000Y-96043857D01*
X148155285Y-96007571D01*
X148227857Y-95971285D01*
X148264142Y-95971285D01*
X148336714Y-96007571D01*
X148373000Y-96043857D01*
X148409285Y-96116428D01*
X148409285Y-96261571D01*
X148445571Y-96334142D01*
X148481857Y-96370428D01*
X148554428Y-96406714D01*
X148699571Y-96406714D01*
X148772142Y-96370428D01*
X148808428Y-96334142D01*
X148844714Y-96261571D01*
X148844714Y-96116428D01*
X148808428Y-96043857D01*
X148772142Y-96007571D01*
X148699571Y-95971285D01*
X148554428Y-95971285D01*
X148481857Y-96007571D01*
X148445571Y-96043857D01*
X148409285Y-96116428D01*
%TO.C,C9*%
X147522142Y-91727000D02*
X147558428Y-91763285D01*
X147594714Y-91872142D01*
X147594714Y-91944714D01*
X147558428Y-92053571D01*
X147485857Y-92126142D01*
X147413285Y-92162428D01*
X147268142Y-92198714D01*
X147159285Y-92198714D01*
X147014142Y-92162428D01*
X146941571Y-92126142D01*
X146869000Y-92053571D01*
X146832714Y-91944714D01*
X146832714Y-91872142D01*
X146869000Y-91763285D01*
X146905285Y-91727000D01*
X147594714Y-91364142D02*
X147594714Y-91219000D01*
X147558428Y-91146428D01*
X147522142Y-91110142D01*
X147413285Y-91037571D01*
X147268142Y-91001285D01*
X146977857Y-91001285D01*
X146905285Y-91037571D01*
X146869000Y-91073857D01*
X146832714Y-91146428D01*
X146832714Y-91291571D01*
X146869000Y-91364142D01*
X146905285Y-91400428D01*
X146977857Y-91436714D01*
X147159285Y-91436714D01*
X147231857Y-91400428D01*
X147268142Y-91364142D01*
X147304428Y-91291571D01*
X147304428Y-91146428D01*
X147268142Y-91073857D01*
X147231857Y-91037571D01*
X147159285Y-91001285D01*
%TO.C,C7*%
X150973000Y-85522142D02*
X150936714Y-85558428D01*
X150827857Y-85594714D01*
X150755285Y-85594714D01*
X150646428Y-85558428D01*
X150573857Y-85485857D01*
X150537571Y-85413285D01*
X150501285Y-85268142D01*
X150501285Y-85159285D01*
X150537571Y-85014142D01*
X150573857Y-84941571D01*
X150646428Y-84869000D01*
X150755285Y-84832714D01*
X150827857Y-84832714D01*
X150936714Y-84869000D01*
X150973000Y-84905285D01*
X151227000Y-84832714D02*
X151735000Y-84832714D01*
X151408428Y-85594714D01*
%TO.C,C1*%
X147542142Y-88027000D02*
X147578428Y-88063285D01*
X147614714Y-88172142D01*
X147614714Y-88244714D01*
X147578428Y-88353571D01*
X147505857Y-88426142D01*
X147433285Y-88462428D01*
X147288142Y-88498714D01*
X147179285Y-88498714D01*
X147034142Y-88462428D01*
X146961571Y-88426142D01*
X146889000Y-88353571D01*
X146852714Y-88244714D01*
X146852714Y-88172142D01*
X146889000Y-88063285D01*
X146925285Y-88027000D01*
X147614714Y-87301285D02*
X147614714Y-87736714D01*
X147614714Y-87519000D02*
X146852714Y-87519000D01*
X146961571Y-87591571D01*
X147034142Y-87664142D01*
X147070428Y-87736714D01*
%TO.C,R1*%
X147594714Y-86527000D02*
X147231857Y-86781000D01*
X147594714Y-86962428D02*
X146832714Y-86962428D01*
X146832714Y-86672142D01*
X146869000Y-86599571D01*
X146905285Y-86563285D01*
X146977857Y-86527000D01*
X147086714Y-86527000D01*
X147159285Y-86563285D01*
X147195571Y-86599571D01*
X147231857Y-86672142D01*
X147231857Y-86962428D01*
X147594714Y-85801285D02*
X147594714Y-86236714D01*
X147594714Y-86019000D02*
X146832714Y-86019000D01*
X146941571Y-86091571D01*
X147014142Y-86164142D01*
X147050428Y-86236714D01*
%TO.C,C6*%
X160283000Y-84332142D02*
X160246714Y-84368428D01*
X160137857Y-84404714D01*
X160065285Y-84404714D01*
X159956428Y-84368428D01*
X159883857Y-84295857D01*
X159847571Y-84223285D01*
X159811285Y-84078142D01*
X159811285Y-83969285D01*
X159847571Y-83824142D01*
X159883857Y-83751571D01*
X159956428Y-83679000D01*
X160065285Y-83642714D01*
X160137857Y-83642714D01*
X160246714Y-83679000D01*
X160283000Y-83715285D01*
X160936142Y-83642714D02*
X160791000Y-83642714D01*
X160718428Y-83679000D01*
X160682142Y-83715285D01*
X160609571Y-83824142D01*
X160573285Y-83969285D01*
X160573285Y-84259571D01*
X160609571Y-84332142D01*
X160645857Y-84368428D01*
X160718428Y-84404714D01*
X160863571Y-84404714D01*
X160936142Y-84368428D01*
X160972428Y-84332142D01*
X161008714Y-84259571D01*
X161008714Y-84078142D01*
X160972428Y-84005571D01*
X160936142Y-83969285D01*
X160863571Y-83933000D01*
X160718428Y-83933000D01*
X160645857Y-83969285D01*
X160609571Y-84005571D01*
X160573285Y-84078142D01*
%TO.C,C2*%
X155572142Y-85477000D02*
X155608428Y-85513285D01*
X155644714Y-85622142D01*
X155644714Y-85694714D01*
X155608428Y-85803571D01*
X155535857Y-85876142D01*
X155463285Y-85912428D01*
X155318142Y-85948714D01*
X155209285Y-85948714D01*
X155064142Y-85912428D01*
X154991571Y-85876142D01*
X154919000Y-85803571D01*
X154882714Y-85694714D01*
X154882714Y-85622142D01*
X154919000Y-85513285D01*
X154955285Y-85477000D01*
X154955285Y-85186714D02*
X154919000Y-85150428D01*
X154882714Y-85077857D01*
X154882714Y-84896428D01*
X154919000Y-84823857D01*
X154955285Y-84787571D01*
X155027857Y-84751285D01*
X155100428Y-84751285D01*
X155209285Y-84787571D01*
X155644714Y-85223000D01*
X155644714Y-84751285D01*
%TO.C,C5*%
X164022142Y-93587000D02*
X164058428Y-93623285D01*
X164094714Y-93732142D01*
X164094714Y-93804714D01*
X164058428Y-93913571D01*
X163985857Y-93986142D01*
X163913285Y-94022428D01*
X163768142Y-94058714D01*
X163659285Y-94058714D01*
X163514142Y-94022428D01*
X163441571Y-93986142D01*
X163369000Y-93913571D01*
X163332714Y-93804714D01*
X163332714Y-93732142D01*
X163369000Y-93623285D01*
X163405285Y-93587000D01*
X163332714Y-92897571D02*
X163332714Y-93260428D01*
X163695571Y-93296714D01*
X163659285Y-93260428D01*
X163623000Y-93187857D01*
X163623000Y-93006428D01*
X163659285Y-92933857D01*
X163695571Y-92897571D01*
X163768142Y-92861285D01*
X163949571Y-92861285D01*
X164022142Y-92897571D01*
X164058428Y-92933857D01*
X164094714Y-93006428D01*
X164094714Y-93187857D01*
X164058428Y-93260428D01*
X164022142Y-93296714D01*
%TO.C,Q1*%
X148427428Y-111254285D02*
X148354857Y-111218000D01*
X148282285Y-111145428D01*
X148173428Y-111036571D01*
X148100857Y-111000285D01*
X148028285Y-111000285D01*
X148064571Y-111181714D02*
X147992000Y-111145428D01*
X147919428Y-111072857D01*
X147883142Y-110927714D01*
X147883142Y-110673714D01*
X147919428Y-110528571D01*
X147992000Y-110456000D01*
X148064571Y-110419714D01*
X148209714Y-110419714D01*
X148282285Y-110456000D01*
X148354857Y-110528571D01*
X148391142Y-110673714D01*
X148391142Y-110927714D01*
X148354857Y-111072857D01*
X148282285Y-111145428D01*
X148209714Y-111181714D01*
X148064571Y-111181714D01*
X149116857Y-111181714D02*
X148681428Y-111181714D01*
X148899142Y-111181714D02*
X148899142Y-110419714D01*
X148826571Y-110528571D01*
X148754000Y-110601142D01*
X148681428Y-110637428D01*
%TO.C,Q2*%
X150167285Y-109372571D02*
X150131000Y-109445142D01*
X150058428Y-109517714D01*
X149949571Y-109626571D01*
X149913285Y-109699142D01*
X149913285Y-109771714D01*
X150094714Y-109735428D02*
X150058428Y-109808000D01*
X149985857Y-109880571D01*
X149840714Y-109916857D01*
X149586714Y-109916857D01*
X149441571Y-109880571D01*
X149369000Y-109808000D01*
X149332714Y-109735428D01*
X149332714Y-109590285D01*
X149369000Y-109517714D01*
X149441571Y-109445142D01*
X149586714Y-109408857D01*
X149840714Y-109408857D01*
X149985857Y-109445142D01*
X150058428Y-109517714D01*
X150094714Y-109590285D01*
X150094714Y-109735428D01*
X149405285Y-109118571D02*
X149369000Y-109082285D01*
X149332714Y-109009714D01*
X149332714Y-108828285D01*
X149369000Y-108755714D01*
X149405285Y-108719428D01*
X149477857Y-108683142D01*
X149550428Y-108683142D01*
X149659285Y-108719428D01*
X150094714Y-109154857D01*
X150094714Y-108683142D01*
%TO.C,D3*%
D11*
X156552380Y-104738095D02*
X155552380Y-104738095D01*
X155552380Y-104500000D01*
X155600000Y-104357142D01*
X155695238Y-104261904D01*
X155790476Y-104214285D01*
X155980952Y-104166666D01*
X156123809Y-104166666D01*
X156314285Y-104214285D01*
X156409523Y-104261904D01*
X156504761Y-104357142D01*
X156552380Y-104500000D01*
X156552380Y-104738095D01*
X155552380Y-103833333D02*
X155552380Y-103214285D01*
X155933333Y-103547619D01*
X155933333Y-103404761D01*
X155980952Y-103309523D01*
X156028571Y-103261904D01*
X156123809Y-103214285D01*
X156361904Y-103214285D01*
X156457142Y-103261904D01*
X156504761Y-103309523D01*
X156552380Y-103404761D01*
X156552380Y-103690476D01*
X156504761Y-103785714D01*
X156457142Y-103833333D01*
%TO.C,D4*%
X163552380Y-104738095D02*
X162552380Y-104738095D01*
X162552380Y-104500000D01*
X162600000Y-104357142D01*
X162695238Y-104261904D01*
X162790476Y-104214285D01*
X162980952Y-104166666D01*
X163123809Y-104166666D01*
X163314285Y-104214285D01*
X163409523Y-104261904D01*
X163504761Y-104357142D01*
X163552380Y-104500000D01*
X163552380Y-104738095D01*
X162885714Y-103309523D02*
X163552380Y-103309523D01*
X162504761Y-103547619D02*
X163219047Y-103785714D01*
X163219047Y-103166666D01*
%TO.C,Q3*%
D12*
X148427428Y-102004285D02*
X148354857Y-101968000D01*
X148282285Y-101895428D01*
X148173428Y-101786571D01*
X148100857Y-101750285D01*
X148028285Y-101750285D01*
X148064571Y-101931714D02*
X147992000Y-101895428D01*
X147919428Y-101822857D01*
X147883142Y-101677714D01*
X147883142Y-101423714D01*
X147919428Y-101278571D01*
X147992000Y-101206000D01*
X148064571Y-101169714D01*
X148209714Y-101169714D01*
X148282285Y-101206000D01*
X148354857Y-101278571D01*
X148391142Y-101423714D01*
X148391142Y-101677714D01*
X148354857Y-101822857D01*
X148282285Y-101895428D01*
X148209714Y-101931714D01*
X148064571Y-101931714D01*
X148645142Y-101169714D02*
X149116857Y-101169714D01*
X148862857Y-101460000D01*
X148971714Y-101460000D01*
X149044285Y-101496285D01*
X149080571Y-101532571D01*
X149116857Y-101605142D01*
X149116857Y-101786571D01*
X149080571Y-101859142D01*
X149044285Y-101895428D01*
X148971714Y-101931714D01*
X148754000Y-101931714D01*
X148681428Y-101895428D01*
X148645142Y-101859142D01*
%TO.C,Q4*%
X164277285Y-99512571D02*
X164241000Y-99585142D01*
X164168428Y-99657714D01*
X164059571Y-99766571D01*
X164023285Y-99839142D01*
X164023285Y-99911714D01*
X164204714Y-99875428D02*
X164168428Y-99948000D01*
X164095857Y-100020571D01*
X163950714Y-100056857D01*
X163696714Y-100056857D01*
X163551571Y-100020571D01*
X163479000Y-99948000D01*
X163442714Y-99875428D01*
X163442714Y-99730285D01*
X163479000Y-99657714D01*
X163551571Y-99585142D01*
X163696714Y-99548857D01*
X163950714Y-99548857D01*
X164095857Y-99585142D01*
X164168428Y-99657714D01*
X164204714Y-99730285D01*
X164204714Y-99875428D01*
X163696714Y-98895714D02*
X164204714Y-98895714D01*
X163406428Y-99077142D02*
X163950714Y-99258571D01*
X163950714Y-98786857D01*
%TO.C,P2*%
D10*
X140141904Y-137702380D02*
X140141904Y-136702380D01*
X140522857Y-136702380D01*
X140618095Y-136750000D01*
X140665714Y-136797619D01*
X140713333Y-136892857D01*
X140713333Y-137035714D01*
X140665714Y-137130952D01*
X140618095Y-137178571D01*
X140522857Y-137226190D01*
X140141904Y-137226190D01*
X141094285Y-136797619D02*
X141141904Y-136750000D01*
X141237142Y-136702380D01*
X141475238Y-136702380D01*
X141570476Y-136750000D01*
X141618095Y-136797619D01*
X141665714Y-136892857D01*
X141665714Y-136988095D01*
X141618095Y-137130952D01*
X141046666Y-137702380D01*
X141665714Y-137702380D01*
%TO.C,P4*%
X155381904Y-137702380D02*
X155381904Y-136702380D01*
X155762857Y-136702380D01*
X155858095Y-136750000D01*
X155905714Y-136797619D01*
X155953333Y-136892857D01*
X155953333Y-137035714D01*
X155905714Y-137130952D01*
X155858095Y-137178571D01*
X155762857Y-137226190D01*
X155381904Y-137226190D01*
X156810476Y-137035714D02*
X156810476Y-137702380D01*
X156572380Y-136654761D02*
X156334285Y-137369047D01*
X156953333Y-137369047D01*
%TO.C,D5*%
D12*
X160124714Y-81982428D02*
X159362714Y-81982428D01*
X159362714Y-81801000D01*
X159399000Y-81692142D01*
X159471571Y-81619571D01*
X159544142Y-81583285D01*
X159689285Y-81547000D01*
X159798142Y-81547000D01*
X159943285Y-81583285D01*
X160015857Y-81619571D01*
X160088428Y-81692142D01*
X160124714Y-81801000D01*
X160124714Y-81982428D01*
X159362714Y-80857571D02*
X159362714Y-81220428D01*
X159725571Y-81256714D01*
X159689285Y-81220428D01*
X159653000Y-81147857D01*
X159653000Y-80966428D01*
X159689285Y-80893857D01*
X159725571Y-80857571D01*
X159798142Y-80821285D01*
X159979571Y-80821285D01*
X160052142Y-80857571D01*
X160088428Y-80893857D01*
X160124714Y-80966428D01*
X160124714Y-81147857D01*
X160088428Y-81220428D01*
X160052142Y-81256714D01*
%TO.C,D6*%
X158204714Y-81982428D02*
X157442714Y-81982428D01*
X157442714Y-81801000D01*
X157479000Y-81692142D01*
X157551571Y-81619571D01*
X157624142Y-81583285D01*
X157769285Y-81547000D01*
X157878142Y-81547000D01*
X158023285Y-81583285D01*
X158095857Y-81619571D01*
X158168428Y-81692142D01*
X158204714Y-81801000D01*
X158204714Y-81982428D01*
X157442714Y-80893857D02*
X157442714Y-81039000D01*
X157479000Y-81111571D01*
X157515285Y-81147857D01*
X157624142Y-81220428D01*
X157769285Y-81256714D01*
X158059571Y-81256714D01*
X158132142Y-81220428D01*
X158168428Y-81184142D01*
X158204714Y-81111571D01*
X158204714Y-80966428D01*
X158168428Y-80893857D01*
X158132142Y-80857571D01*
X158059571Y-80821285D01*
X157878142Y-80821285D01*
X157805571Y-80857571D01*
X157769285Y-80893857D01*
X157733000Y-80966428D01*
X157733000Y-81111571D01*
X157769285Y-81184142D01*
X157805571Y-81220428D01*
X157878142Y-81256714D01*
%TO.C,D7*%
X164744714Y-85062428D02*
X163982714Y-85062428D01*
X163982714Y-84881000D01*
X164019000Y-84772142D01*
X164091571Y-84699571D01*
X164164142Y-84663285D01*
X164309285Y-84627000D01*
X164418142Y-84627000D01*
X164563285Y-84663285D01*
X164635857Y-84699571D01*
X164708428Y-84772142D01*
X164744714Y-84881000D01*
X164744714Y-85062428D01*
X163982714Y-84373000D02*
X163982714Y-83865000D01*
X164744714Y-84191571D01*
%TO.C,D8*%
X164444714Y-79312428D02*
X163682714Y-79312428D01*
X163682714Y-79131000D01*
X163719000Y-79022142D01*
X163791571Y-78949571D01*
X163864142Y-78913285D01*
X164009285Y-78877000D01*
X164118142Y-78877000D01*
X164263285Y-78913285D01*
X164335857Y-78949571D01*
X164408428Y-79022142D01*
X164444714Y-79131000D01*
X164444714Y-79312428D01*
X164009285Y-78441571D02*
X163973000Y-78514142D01*
X163936714Y-78550428D01*
X163864142Y-78586714D01*
X163827857Y-78586714D01*
X163755285Y-78550428D01*
X163719000Y-78514142D01*
X163682714Y-78441571D01*
X163682714Y-78296428D01*
X163719000Y-78223857D01*
X163755285Y-78187571D01*
X163827857Y-78151285D01*
X163864142Y-78151285D01*
X163936714Y-78187571D01*
X163973000Y-78223857D01*
X164009285Y-78296428D01*
X164009285Y-78441571D01*
X164045571Y-78514142D01*
X164081857Y-78550428D01*
X164154428Y-78586714D01*
X164299571Y-78586714D01*
X164372142Y-78550428D01*
X164408428Y-78514142D01*
X164444714Y-78441571D01*
X164444714Y-78296428D01*
X164408428Y-78223857D01*
X164372142Y-78187571D01*
X164299571Y-78151285D01*
X164154428Y-78151285D01*
X164081857Y-78187571D01*
X164045571Y-78223857D01*
X164009285Y-78296428D01*
%TO.C,C3*%
X159603000Y-83292142D02*
X159566714Y-83328428D01*
X159457857Y-83364714D01*
X159385285Y-83364714D01*
X159276428Y-83328428D01*
X159203857Y-83255857D01*
X159167571Y-83183285D01*
X159131285Y-83038142D01*
X159131285Y-82929285D01*
X159167571Y-82784142D01*
X159203857Y-82711571D01*
X159276428Y-82639000D01*
X159385285Y-82602714D01*
X159457857Y-82602714D01*
X159566714Y-82639000D01*
X159603000Y-82675285D01*
X159857000Y-82602714D02*
X160328714Y-82602714D01*
X160074714Y-82893000D01*
X160183571Y-82893000D01*
X160256142Y-82929285D01*
X160292428Y-82965571D01*
X160328714Y-83038142D01*
X160328714Y-83219571D01*
X160292428Y-83292142D01*
X160256142Y-83328428D01*
X160183571Y-83364714D01*
X159965857Y-83364714D01*
X159893285Y-83328428D01*
X159857000Y-83292142D01*
%TO.C,C4*%
X163623000Y-89352142D02*
X163586714Y-89388428D01*
X163477857Y-89424714D01*
X163405285Y-89424714D01*
X163296428Y-89388428D01*
X163223857Y-89315857D01*
X163187571Y-89243285D01*
X163151285Y-89098142D01*
X163151285Y-88989285D01*
X163187571Y-88844142D01*
X163223857Y-88771571D01*
X163296428Y-88699000D01*
X163405285Y-88662714D01*
X163477857Y-88662714D01*
X163586714Y-88699000D01*
X163623000Y-88735285D01*
X164276142Y-88916714D02*
X164276142Y-89424714D01*
X164094714Y-88626428D02*
X163913285Y-89170714D01*
X164385000Y-89170714D01*
%TD*%
M02*
