%TF.GenerationSoftware,KiCad,Pcbnew,5.0.2*%
%TF.CreationDate,2020-05-26T14:16:45+02:00*%
%TF.ProjectId,cowdin-2-shutter,636f7764-696e-42d3-922d-736875747465,0.1*%
%TF.SameCoordinates,Original*%
%TF.FileFunction,Copper,L2,Bot*%
%TF.FilePolarity,Positive*%
%FSLAX46Y46*%
G04 Gerber Fmt 4.6, Leading zero omitted, Abs format (unit mm)*
G04 Created by KiCad (PCBNEW 5.0.2) date mar. 26 mai 2020 14:16:45 CEST*
%MOMM*%
%LPD*%
G01*
G04 APERTURE LIST*
%TA.AperFunction,ComponentPad*%
%ADD10C,2.200000*%
%TD*%
%TA.AperFunction,ComponentPad*%
%ADD11C,2.000000*%
%TD*%
%TA.AperFunction,ComponentPad*%
%ADD12C,2.540000*%
%TD*%
%TA.AperFunction,ComponentPad*%
%ADD13R,2.540000X2.540000*%
%TD*%
%TA.AperFunction,BGAPad,CuDef*%
%ADD14C,1.198880*%
%TD*%
%TA.AperFunction,ViaPad*%
%ADD15C,0.711200*%
%TD*%
%TA.AperFunction,Conductor*%
%ADD16C,1.524000*%
%TD*%
%TA.AperFunction,Conductor*%
%ADD17C,0.406400*%
%TD*%
%TA.AperFunction,Conductor*%
%ADD18C,0.304800*%
%TD*%
%TA.AperFunction,Conductor*%
%ADD19C,0.711200*%
%TD*%
%TA.AperFunction,Conductor*%
%ADD20C,0.254000*%
%TD*%
G04 APERTURE END LIST*
D10*
%TO.P,RL1,14*%
%TO.N,Net-(P2-Pad1)*%
X135750000Y-132000000D03*
%TO.P,RL1,11*%
%TO.N,Net-(RL1-Pad11)*%
X135750000Y-127000000D03*
%TO.P,RL1,12*%
%TO.N,Net-(RL1-Pad12)*%
X135750000Y-122000000D03*
D11*
%TO.P,RL1,A1*%
%TO.N,Net-(D1-Pad1)*%
X135750000Y-110750000D03*
%TO.P,RL1,A2*%
%TO.N,VIn*%
X135750000Y-107000000D03*
%TD*%
%TO.P,RL2,A2*%
%TO.N,Net-(D2-Pad1)*%
X142750000Y-107000000D03*
%TO.P,RL2,A1*%
%TO.N,VIn*%
X142750000Y-110750000D03*
D10*
%TO.P,RL2,12*%
%TO.N,Net-(P2-Pad3)*%
X142750000Y-122000000D03*
%TO.P,RL2,11*%
%TO.N,Net-(RL1-Pad11)*%
X142750000Y-127000000D03*
%TO.P,RL2,14*%
%TO.N,Net-(P2-Pad2)*%
X142750000Y-132000000D03*
%TD*%
%TO.P,RL3,14*%
%TO.N,Net-(P4-Pad1)*%
X151750000Y-132000000D03*
%TO.P,RL3,11*%
%TO.N,Net-(RL3-Pad11)*%
X151750000Y-127000000D03*
%TO.P,RL3,12*%
%TO.N,Net-(RL3-Pad12)*%
X151750000Y-122000000D03*
D11*
%TO.P,RL3,A1*%
%TO.N,Net-(D3-Pad1)*%
X151750000Y-110750000D03*
%TO.P,RL3,A2*%
%TO.N,VIn*%
X151750000Y-107000000D03*
%TD*%
%TO.P,RL4,A2*%
%TO.N,Net-(D4-Pad1)*%
X158750000Y-107000000D03*
%TO.P,RL4,A1*%
%TO.N,VIn*%
X158750000Y-110750000D03*
D10*
%TO.P,RL4,12*%
%TO.N,Net-(P4-Pad3)*%
X158750000Y-122000000D03*
%TO.P,RL4,11*%
%TO.N,Net-(RL3-Pad11)*%
X158750000Y-127000000D03*
%TO.P,RL4,14*%
%TO.N,Net-(P4-Pad2)*%
X158750000Y-132000000D03*
%TD*%
D12*
%TO.P,P1,2*%
%TO.N,VIn*%
X140880000Y-66830000D03*
%TO.P,P1,3*%
%TO.N,CAN_H*%
X145960000Y-66830000D03*
D13*
%TO.P,P1,1*%
%TO.N,GND*%
X135800000Y-66830000D03*
%TD*%
%TO.P,P3,1*%
%TO.N,CAN_L*%
X151040000Y-66830000D03*
D12*
%TO.P,P3,3*%
%TO.N,IN_2*%
X161200000Y-66830000D03*
%TO.P,P3,2*%
%TO.N,IN_1*%
X156120000Y-66830000D03*
%TD*%
D13*
%TO.P,P2,1*%
%TO.N,Net-(P2-Pad1)*%
X135800000Y-143170000D03*
D12*
%TO.P,P2,3*%
%TO.N,Net-(P2-Pad3)*%
X145960000Y-143170000D03*
%TO.P,P2,2*%
%TO.N,Net-(P2-Pad2)*%
X140880000Y-143170000D03*
%TD*%
D13*
%TO.P,P4,1*%
%TO.N,Net-(P4-Pad1)*%
X151040000Y-143170000D03*
D12*
%TO.P,P4,3*%
%TO.N,Net-(P4-Pad3)*%
X161200000Y-143170000D03*
%TO.P,P4,2*%
%TO.N,Net-(P4-Pad2)*%
X156120000Y-143170000D03*
%TD*%
D14*
%TO.P,TP1,1*%
%TO.N,SWD_CLK*%
X153750000Y-93900000D03*
%TD*%
%TO.P,TP2,1*%
%TO.N,SWD_DAT*%
X153750000Y-96440000D03*
%TD*%
%TO.P,TP3,1*%
%TO.N,RESET*%
X153750000Y-91360000D03*
%TD*%
%TO.P,TP4,1*%
%TO.N,GND*%
X153750000Y-88820000D03*
%TD*%
D15*
%TO.N,GND*%
X144330000Y-88500000D03*
X145250000Y-91380000D03*
X142500000Y-85000000D03*
X138000000Y-86400000D03*
X136400000Y-86400000D03*
X144300000Y-91380000D03*
X146200000Y-91380000D03*
X143470000Y-81170000D03*
X141000000Y-80600000D03*
X140000000Y-80600000D03*
X142000000Y-80600000D03*
X134750000Y-83000000D03*
X135600000Y-76640000D03*
X134700000Y-76640000D03*
X134700000Y-80750000D03*
X135600000Y-80750000D03*
X145350000Y-76750000D03*
X150750000Y-83800000D03*
X151500000Y-91750000D03*
X148500000Y-89420000D03*
X148500000Y-95420000D03*
X155340000Y-97590000D03*
X159840000Y-88410000D03*
X160680000Y-94250000D03*
X153860000Y-84100000D03*
X144330000Y-87630000D03*
X144330000Y-89370000D03*
X160860000Y-86500000D03*
X163750000Y-97100000D03*
X147350000Y-114270000D03*
X147350000Y-105020000D03*
X147350000Y-109020000D03*
X163770000Y-102200000D03*
X153750000Y-88820000D03*
X155750000Y-79350000D03*
X155000000Y-79350000D03*
X156500000Y-79350000D03*
X162100000Y-79250000D03*
X161250000Y-79250000D03*
X163000000Y-79250000D03*
X156150000Y-82990000D03*
X160860000Y-87390000D03*
%TO.N,Net-(R16-Pad2)*%
X134750000Y-86490000D03*
X139100000Y-83260000D03*
%TO.N,RESET*%
X149750000Y-85250000D03*
X151630000Y-90400000D03*
%TO.N,SWD_CLK*%
X152000000Y-92750000D03*
%TO.N,SWD_DAT*%
X152000000Y-94000000D03*
%TO.N,REL1*%
X153510000Y-107000000D03*
X153510000Y-102250000D03*
%TO.N,REL2*%
X150000000Y-105300000D03*
X152500000Y-102250000D03*
%TO.N,Net-(D1-Pad1)*%
X140500000Y-112000000D03*
X143000000Y-114500000D03*
%TD*%
D16*
%TO.N,Net-(P2-Pad1)*%
X135750000Y-132000000D02*
X135750000Y-136080000D01*
X135750000Y-136080000D02*
X135800000Y-136130000D01*
X135800000Y-136130000D02*
X135800000Y-143170000D01*
%TO.N,Net-(P2-Pad3)*%
X145960000Y-143170000D02*
X145960000Y-125210000D01*
X145960000Y-125210000D02*
X142750000Y-122000000D01*
%TO.N,Net-(P2-Pad2)*%
X140880000Y-143170000D02*
X140880000Y-133870000D01*
X140880000Y-133870000D02*
X142750000Y-132000000D01*
%TO.N,Net-(P4-Pad1)*%
X151040000Y-143170000D02*
X151040000Y-136850000D01*
X151040000Y-136850000D02*
X151750000Y-136140000D01*
X151750000Y-136140000D02*
X151750000Y-132000000D01*
%TO.N,Net-(P4-Pad3)*%
X162050000Y-135280000D02*
X162050000Y-125300000D01*
X162050000Y-125300000D02*
X158750000Y-122000000D01*
X161200000Y-143170000D02*
X161200000Y-136130000D01*
X161200000Y-136130000D02*
X162050000Y-135280000D01*
%TO.N,Net-(P4-Pad2)*%
X156120000Y-143170000D02*
X156120000Y-134630000D01*
X156120000Y-134630000D02*
X158750000Y-132000000D01*
%TO.N,Net-(RL1-Pad11)*%
X142750000Y-127000000D02*
X135750000Y-127000000D01*
%TO.N,Net-(RL3-Pad11)*%
X151750000Y-127000000D02*
X158750000Y-127000000D01*
D17*
%TO.N,GND*%
X136400000Y-86400000D02*
X138000000Y-86400000D01*
X138000000Y-86400000D02*
X141100000Y-86400000D01*
X141100000Y-86400000D02*
X142500000Y-85000000D01*
X144330000Y-87630000D02*
X144330000Y-86830000D01*
X144330000Y-86830000D02*
X142500000Y-85000000D01*
X143470000Y-81170000D02*
X143470000Y-84030000D01*
X143470000Y-84030000D02*
X142500000Y-85000000D01*
D18*
X142000000Y-80600000D02*
X142900000Y-80600000D01*
X142900000Y-80600000D02*
X143470000Y-81170000D01*
D17*
X140000000Y-80600000D02*
X137640000Y-80600000D01*
X137640000Y-80600000D02*
X137490000Y-80750000D01*
X137490000Y-80750000D02*
X135600000Y-80750000D01*
X134700000Y-80750000D02*
X134700000Y-81810000D01*
X134700000Y-81810000D02*
X134750000Y-81860000D01*
X134750000Y-81860000D02*
X134750000Y-83000000D01*
D18*
X145350000Y-76750000D02*
X145350000Y-79290000D01*
X145350000Y-79290000D02*
X143470000Y-81170000D01*
D17*
X150750000Y-83800000D02*
X147360000Y-83800000D01*
X147360000Y-83800000D02*
X144330000Y-86830000D01*
X150660000Y-95420000D02*
X148500000Y-95420000D01*
X155340000Y-97590000D02*
X152830000Y-97590000D01*
X152830000Y-97590000D02*
X150660000Y-95420000D01*
X155340000Y-97590000D02*
X159340000Y-97590000D01*
X159340000Y-97590000D02*
X160680000Y-96250000D01*
X160680000Y-96250000D02*
X160680000Y-94250000D01*
X160680000Y-94250000D02*
X160680000Y-89250000D01*
X160680000Y-89250000D02*
X159840000Y-88410000D01*
X150750000Y-83800000D02*
X152390000Y-83800000D01*
X152390000Y-83800000D02*
X152690000Y-84100000D01*
X152690000Y-84100000D02*
X153860000Y-84100000D01*
X145250000Y-91380000D02*
X145250000Y-90290000D01*
X145250000Y-90290000D02*
X144330000Y-89370000D01*
X148500000Y-89420000D02*
X146120000Y-89420000D01*
X146120000Y-89420000D02*
X145250000Y-90290000D01*
X148500000Y-89420000D02*
X149170000Y-89420000D01*
X149170000Y-89420000D02*
X151500000Y-91750000D01*
X160860000Y-86500000D02*
X160860000Y-87390000D01*
X160860000Y-87390000D02*
X159840000Y-88410000D01*
X163750000Y-97100000D02*
X161530000Y-97100000D01*
X161530000Y-97100000D02*
X160680000Y-96250000D01*
X148500000Y-102880000D02*
X148500000Y-95420000D01*
X147350000Y-105020000D02*
X147350000Y-104030000D01*
X147350000Y-104030000D02*
X148500000Y-102880000D01*
X147350000Y-105020000D02*
X147350000Y-109020000D01*
X147350000Y-109020000D02*
X147350000Y-114270000D01*
X163750000Y-97100000D02*
X163750000Y-99500000D01*
X163750000Y-99500000D02*
X163770000Y-99520000D01*
X163770000Y-99520000D02*
X163770000Y-102200000D01*
X150660000Y-95420000D02*
X150660000Y-92590000D01*
X150660000Y-92590000D02*
X151500000Y-91750000D01*
X151500000Y-91750000D02*
X152530000Y-91750000D01*
X152530000Y-91750000D02*
X153410000Y-92630000D01*
X153410000Y-92630000D02*
X155620000Y-92630000D01*
X155620000Y-92630000D02*
X159840000Y-88410000D01*
D19*
X135800000Y-66830000D02*
X135800000Y-73360000D01*
X135800000Y-73360000D02*
X135600000Y-73560000D01*
X135600000Y-73560000D02*
X135600000Y-76640000D01*
D17*
X160860000Y-86500000D02*
X156070000Y-86500000D01*
X156070000Y-86500000D02*
X153750000Y-88820000D01*
%TO.N,Net-(R16-Pad2)*%
X139100000Y-83260000D02*
X137620000Y-84740000D01*
X137620000Y-84740000D02*
X136500000Y-84740000D01*
X136500000Y-84740000D02*
X134750000Y-86490000D01*
D18*
%TO.N,RESET*%
X151630000Y-90400000D02*
X151630000Y-89290000D01*
X151630000Y-89290000D02*
X150590000Y-88250000D01*
X150590000Y-88250000D02*
X150590000Y-86090000D01*
X150590000Y-86090000D02*
X149750000Y-85250000D01*
D17*
X151630000Y-90400000D02*
X152790000Y-90400000D01*
X152790000Y-90400000D02*
X153750000Y-91360000D01*
D18*
%TO.N,SWD_CLK*%
X152000000Y-92750000D02*
X152600000Y-92750000D01*
X152600000Y-92750000D02*
X153750000Y-93900000D01*
%TO.N,SWD_DAT*%
X152000000Y-94000000D02*
X152000000Y-94690000D01*
X152000000Y-94690000D02*
X153750000Y-96440000D01*
%TO.N,REL1*%
X153510000Y-107000000D02*
X153510000Y-102250000D01*
%TO.N,REL2*%
X150000000Y-105300000D02*
X150000000Y-104750000D01*
X150000000Y-104750000D02*
X152500000Y-102250000D01*
D17*
%TO.N,Net-(D1-Pad1)*%
X140500000Y-112000000D02*
X143000000Y-114500000D01*
%TD*%
D20*
%TO.N,GND*%
G36*
X164645601Y-114873000D02*
X143525025Y-114873000D01*
X143538327Y-114859698D01*
X143635000Y-114626309D01*
X143635000Y-114373691D01*
X143538327Y-114140302D01*
X143359698Y-113961673D01*
X143126309Y-113865000D01*
X143047499Y-113865000D01*
X141135000Y-111952502D01*
X141135000Y-111873691D01*
X141038327Y-111640302D01*
X140859698Y-111461673D01*
X140626309Y-111365000D01*
X140373691Y-111365000D01*
X140140302Y-111461673D01*
X139961673Y-111640302D01*
X139865000Y-111873691D01*
X139865000Y-112126309D01*
X139961673Y-112359698D01*
X140140302Y-112538327D01*
X140373691Y-112635000D01*
X140452502Y-112635000D01*
X142365000Y-114547499D01*
X142365000Y-114626309D01*
X142461673Y-114859698D01*
X142474975Y-114873000D01*
X132354400Y-114873000D01*
X132354400Y-110495512D01*
X134470600Y-110495512D01*
X134470600Y-111004488D01*
X134665377Y-111474722D01*
X135025278Y-111834623D01*
X135495512Y-112029400D01*
X136004488Y-112029400D01*
X136474722Y-111834623D01*
X136834623Y-111474722D01*
X137029400Y-111004488D01*
X137029400Y-110495512D01*
X141470600Y-110495512D01*
X141470600Y-111004488D01*
X141665377Y-111474722D01*
X142025278Y-111834623D01*
X142495512Y-112029400D01*
X143004488Y-112029400D01*
X143474722Y-111834623D01*
X143834623Y-111474722D01*
X144029400Y-111004488D01*
X144029400Y-110495512D01*
X150470600Y-110495512D01*
X150470600Y-111004488D01*
X150665377Y-111474722D01*
X151025278Y-111834623D01*
X151495512Y-112029400D01*
X152004488Y-112029400D01*
X152474722Y-111834623D01*
X152834623Y-111474722D01*
X153029400Y-111004488D01*
X153029400Y-110495512D01*
X157470600Y-110495512D01*
X157470600Y-111004488D01*
X157665377Y-111474722D01*
X158025278Y-111834623D01*
X158495512Y-112029400D01*
X159004488Y-112029400D01*
X159474722Y-111834623D01*
X159834623Y-111474722D01*
X160029400Y-111004488D01*
X160029400Y-110495512D01*
X159834623Y-110025278D01*
X159474722Y-109665377D01*
X159004488Y-109470600D01*
X158495512Y-109470600D01*
X158025278Y-109665377D01*
X157665377Y-110025278D01*
X157470600Y-110495512D01*
X153029400Y-110495512D01*
X152834623Y-110025278D01*
X152474722Y-109665377D01*
X152004488Y-109470600D01*
X151495512Y-109470600D01*
X151025278Y-109665377D01*
X150665377Y-110025278D01*
X150470600Y-110495512D01*
X144029400Y-110495512D01*
X143834623Y-110025278D01*
X143474722Y-109665377D01*
X143004488Y-109470600D01*
X142495512Y-109470600D01*
X142025278Y-109665377D01*
X141665377Y-110025278D01*
X141470600Y-110495512D01*
X137029400Y-110495512D01*
X136834623Y-110025278D01*
X136474722Y-109665377D01*
X136004488Y-109470600D01*
X135495512Y-109470600D01*
X135025278Y-109665377D01*
X134665377Y-110025278D01*
X134470600Y-110495512D01*
X132354400Y-110495512D01*
X132354400Y-106745512D01*
X134470600Y-106745512D01*
X134470600Y-107254488D01*
X134665377Y-107724722D01*
X135025278Y-108084623D01*
X135495512Y-108279400D01*
X136004488Y-108279400D01*
X136474722Y-108084623D01*
X136834623Y-107724722D01*
X137029400Y-107254488D01*
X137029400Y-106745512D01*
X141470600Y-106745512D01*
X141470600Y-107254488D01*
X141665377Y-107724722D01*
X142025278Y-108084623D01*
X142495512Y-108279400D01*
X143004488Y-108279400D01*
X143474722Y-108084623D01*
X143834623Y-107724722D01*
X144029400Y-107254488D01*
X144029400Y-106745512D01*
X143834623Y-106275278D01*
X143474722Y-105915377D01*
X143004488Y-105720600D01*
X142495512Y-105720600D01*
X142025278Y-105915377D01*
X141665377Y-106275278D01*
X141470600Y-106745512D01*
X137029400Y-106745512D01*
X136834623Y-106275278D01*
X136474722Y-105915377D01*
X136004488Y-105720600D01*
X135495512Y-105720600D01*
X135025278Y-105915377D01*
X134665377Y-106275278D01*
X134470600Y-106745512D01*
X132354400Y-106745512D01*
X132354400Y-105173691D01*
X149365000Y-105173691D01*
X149365000Y-105426309D01*
X149461673Y-105659698D01*
X149640302Y-105838327D01*
X149873691Y-105935000D01*
X150126309Y-105935000D01*
X150359698Y-105838327D01*
X150538327Y-105659698D01*
X150635000Y-105426309D01*
X150635000Y-105173691D01*
X150538327Y-104940302D01*
X150479341Y-104881316D01*
X152475658Y-102885000D01*
X152626309Y-102885000D01*
X152859698Y-102788327D01*
X153005000Y-102643025D01*
X153078201Y-102716226D01*
X153078200Y-106533775D01*
X152981677Y-106630298D01*
X152834623Y-106275278D01*
X152474722Y-105915377D01*
X152004488Y-105720600D01*
X151495512Y-105720600D01*
X151025278Y-105915377D01*
X150665377Y-106275278D01*
X150470600Y-106745512D01*
X150470600Y-107254488D01*
X150665377Y-107724722D01*
X151025278Y-108084623D01*
X151495512Y-108279400D01*
X152004488Y-108279400D01*
X152474722Y-108084623D01*
X152834623Y-107724722D01*
X152981677Y-107369702D01*
X153150302Y-107538327D01*
X153383691Y-107635000D01*
X153636309Y-107635000D01*
X153869698Y-107538327D01*
X154048327Y-107359698D01*
X154145000Y-107126309D01*
X154145000Y-106873691D01*
X154091907Y-106745512D01*
X157470600Y-106745512D01*
X157470600Y-107254488D01*
X157665377Y-107724722D01*
X158025278Y-108084623D01*
X158495512Y-108279400D01*
X159004488Y-108279400D01*
X159474722Y-108084623D01*
X159834623Y-107724722D01*
X160029400Y-107254488D01*
X160029400Y-106745512D01*
X159834623Y-106275278D01*
X159474722Y-105915377D01*
X159004488Y-105720600D01*
X158495512Y-105720600D01*
X158025278Y-105915377D01*
X157665377Y-106275278D01*
X157470600Y-106745512D01*
X154091907Y-106745512D01*
X154048327Y-106640302D01*
X153941800Y-106533775D01*
X153941800Y-102716225D01*
X154048327Y-102609698D01*
X154145000Y-102376309D01*
X154145000Y-102123691D01*
X154048327Y-101890302D01*
X153869698Y-101711673D01*
X153636309Y-101615000D01*
X153383691Y-101615000D01*
X153150302Y-101711673D01*
X153005000Y-101856975D01*
X152859698Y-101711673D01*
X152626309Y-101615000D01*
X152373691Y-101615000D01*
X152140302Y-101711673D01*
X151961673Y-101890302D01*
X151865000Y-102123691D01*
X151865000Y-102274342D01*
X149724740Y-104414602D01*
X149688691Y-104438690D01*
X149664603Y-104474740D01*
X149664601Y-104474742D01*
X149593254Y-104581521D01*
X149559742Y-104750000D01*
X149568201Y-104792526D01*
X149568201Y-104833774D01*
X149461673Y-104940302D01*
X149365000Y-105173691D01*
X132354400Y-105173691D01*
X132354400Y-92623691D01*
X151365000Y-92623691D01*
X151365000Y-92876309D01*
X151461673Y-93109698D01*
X151640302Y-93288327D01*
X151849549Y-93375000D01*
X151640302Y-93461673D01*
X151461673Y-93640302D01*
X151365000Y-93873691D01*
X151365000Y-94126309D01*
X151461673Y-94359698D01*
X151568201Y-94466226D01*
X151568201Y-94647474D01*
X151559742Y-94690000D01*
X151593254Y-94858479D01*
X151664601Y-94965258D01*
X151664603Y-94965260D01*
X151688691Y-95001310D01*
X151724740Y-95025397D01*
X152898508Y-96199165D01*
X152871160Y-96265188D01*
X152871160Y-96614812D01*
X153004956Y-96937823D01*
X153252177Y-97185044D01*
X153575188Y-97318840D01*
X153924812Y-97318840D01*
X154247823Y-97185044D01*
X154495044Y-96937823D01*
X154628840Y-96614812D01*
X154628840Y-96265188D01*
X154495044Y-95942177D01*
X154247823Y-95694956D01*
X153924812Y-95561160D01*
X153575188Y-95561160D01*
X153509165Y-95588508D01*
X152431800Y-94511143D01*
X152431800Y-94466225D01*
X152538327Y-94359698D01*
X152635000Y-94126309D01*
X152635000Y-93873691D01*
X152538327Y-93640302D01*
X152359698Y-93461673D01*
X152150451Y-93375000D01*
X152359698Y-93288327D01*
X152443684Y-93204341D01*
X152898508Y-93659165D01*
X152871160Y-93725188D01*
X152871160Y-94074812D01*
X153004956Y-94397823D01*
X153252177Y-94645044D01*
X153575188Y-94778840D01*
X153924812Y-94778840D01*
X154247823Y-94645044D01*
X154495044Y-94397823D01*
X154628840Y-94074812D01*
X154628840Y-93725188D01*
X154495044Y-93402177D01*
X154247823Y-93154956D01*
X153924812Y-93021160D01*
X153575188Y-93021160D01*
X153509165Y-93048508D01*
X152935400Y-92474743D01*
X152911310Y-92438690D01*
X152768480Y-92343254D01*
X152642526Y-92318200D01*
X152642522Y-92318200D01*
X152600000Y-92309742D01*
X152557478Y-92318200D01*
X152466225Y-92318200D01*
X152359698Y-92211673D01*
X152126309Y-92115000D01*
X151873691Y-92115000D01*
X151640302Y-92211673D01*
X151461673Y-92390302D01*
X151365000Y-92623691D01*
X132354400Y-92623691D01*
X132354400Y-86363691D01*
X134115000Y-86363691D01*
X134115000Y-86616309D01*
X134211673Y-86849698D01*
X134390302Y-87028327D01*
X134623691Y-87125000D01*
X134876309Y-87125000D01*
X135109698Y-87028327D01*
X135288327Y-86849698D01*
X135385000Y-86616309D01*
X135385000Y-86537498D01*
X136699899Y-85222600D01*
X137572472Y-85222600D01*
X137620000Y-85232054D01*
X137667528Y-85222600D01*
X137667529Y-85222600D01*
X137808301Y-85194599D01*
X137914422Y-85123691D01*
X149115000Y-85123691D01*
X149115000Y-85376309D01*
X149211673Y-85609698D01*
X149390302Y-85788327D01*
X149623691Y-85885000D01*
X149774343Y-85885000D01*
X150158201Y-86268858D01*
X150158200Y-88207478D01*
X150149742Y-88250000D01*
X150158200Y-88292522D01*
X150158200Y-88292525D01*
X150183254Y-88418479D01*
X150278690Y-88561310D01*
X150314742Y-88585399D01*
X151198201Y-89468859D01*
X151198200Y-89933775D01*
X151091673Y-90040302D01*
X150995000Y-90273691D01*
X150995000Y-90526309D01*
X151091673Y-90759698D01*
X151270302Y-90938327D01*
X151503691Y-91035000D01*
X151756309Y-91035000D01*
X151989698Y-90938327D01*
X152045425Y-90882600D01*
X152590102Y-90882600D01*
X152877466Y-91169964D01*
X152871160Y-91185188D01*
X152871160Y-91534812D01*
X153004956Y-91857823D01*
X153252177Y-92105044D01*
X153575188Y-92238840D01*
X153924812Y-92238840D01*
X154247823Y-92105044D01*
X154495044Y-91857823D01*
X154628840Y-91534812D01*
X154628840Y-91185188D01*
X154495044Y-90862177D01*
X154247823Y-90614956D01*
X153924812Y-90481160D01*
X153575188Y-90481160D01*
X153559964Y-90487466D01*
X153164862Y-90092364D01*
X153137935Y-90052065D01*
X152978301Y-89945401D01*
X152837529Y-89917400D01*
X152837528Y-89917400D01*
X152790000Y-89907946D01*
X152742472Y-89917400D01*
X152061800Y-89917400D01*
X152061800Y-89682329D01*
X153067276Y-89682329D01*
X153116721Y-89907700D01*
X153581171Y-90067249D01*
X154071324Y-90036916D01*
X154383279Y-89907700D01*
X154432724Y-89682329D01*
X153750000Y-88999605D01*
X153067276Y-89682329D01*
X152061800Y-89682329D01*
X152061800Y-89332521D01*
X152070258Y-89289999D01*
X152061800Y-89247477D01*
X152061800Y-89247474D01*
X152036746Y-89121520D01*
X151941310Y-88978690D01*
X151905260Y-88954602D01*
X151601829Y-88651171D01*
X152502751Y-88651171D01*
X152533084Y-89141324D01*
X152662300Y-89453279D01*
X152887671Y-89502724D01*
X153570395Y-88820000D01*
X153929605Y-88820000D01*
X154612329Y-89502724D01*
X154837700Y-89453279D01*
X154997249Y-88988829D01*
X154966916Y-88498676D01*
X154837700Y-88186721D01*
X154612329Y-88137276D01*
X153929605Y-88820000D01*
X153570395Y-88820000D01*
X152887671Y-88137276D01*
X152662300Y-88186721D01*
X152502751Y-88651171D01*
X151601829Y-88651171D01*
X151021800Y-88071143D01*
X151021800Y-87957671D01*
X153067276Y-87957671D01*
X153750000Y-88640395D01*
X154432724Y-87957671D01*
X154383279Y-87732300D01*
X153918829Y-87572751D01*
X153428676Y-87603084D01*
X153116721Y-87732300D01*
X153067276Y-87957671D01*
X151021800Y-87957671D01*
X151021800Y-86132520D01*
X151030258Y-86089999D01*
X151021800Y-86047478D01*
X151021800Y-86047474D01*
X150996746Y-85921520D01*
X150901310Y-85778690D01*
X150865257Y-85754600D01*
X150385000Y-85274343D01*
X150385000Y-85123691D01*
X150288327Y-84890302D01*
X150109698Y-84711673D01*
X149876309Y-84615000D01*
X149623691Y-84615000D01*
X149390302Y-84711673D01*
X149211673Y-84890302D01*
X149115000Y-85123691D01*
X137914422Y-85123691D01*
X137967935Y-85087935D01*
X137994862Y-85047636D01*
X139147499Y-83895000D01*
X139226309Y-83895000D01*
X139459698Y-83798327D01*
X139638327Y-83619698D01*
X139735000Y-83386309D01*
X139735000Y-83133691D01*
X139638327Y-82900302D01*
X139459698Y-82721673D01*
X139226309Y-82625000D01*
X138973691Y-82625000D01*
X138740302Y-82721673D01*
X138561673Y-82900302D01*
X138465000Y-83133691D01*
X138465000Y-83212501D01*
X137420102Y-84257400D01*
X136547529Y-84257400D01*
X136500000Y-84247946D01*
X136452471Y-84257400D01*
X136311699Y-84285401D01*
X136152065Y-84392065D01*
X136125140Y-84432361D01*
X134702502Y-85855000D01*
X134623691Y-85855000D01*
X134390302Y-85951673D01*
X134211673Y-86130302D01*
X134115000Y-86363691D01*
X132354400Y-86363691D01*
X132354400Y-67115750D01*
X133895000Y-67115750D01*
X133895000Y-68226310D01*
X133991673Y-68459699D01*
X134170302Y-68638327D01*
X134403691Y-68735000D01*
X135514250Y-68735000D01*
X135673000Y-68576250D01*
X135673000Y-66957000D01*
X135927000Y-66957000D01*
X135927000Y-68576250D01*
X136085750Y-68735000D01*
X137196309Y-68735000D01*
X137429698Y-68638327D01*
X137608327Y-68459699D01*
X137705000Y-68226310D01*
X137705000Y-67115750D01*
X137546250Y-66957000D01*
X135927000Y-66957000D01*
X135673000Y-66957000D01*
X134053750Y-66957000D01*
X133895000Y-67115750D01*
X132354400Y-67115750D01*
X132354400Y-65433690D01*
X133895000Y-65433690D01*
X133895000Y-66544250D01*
X134053750Y-66703000D01*
X135673000Y-66703000D01*
X135673000Y-65083750D01*
X135927000Y-65083750D01*
X135927000Y-66703000D01*
X137546250Y-66703000D01*
X137705000Y-66544250D01*
X137705000Y-66521805D01*
X139330600Y-66521805D01*
X139330600Y-67138195D01*
X139566482Y-67707665D01*
X140002335Y-68143518D01*
X140571805Y-68379400D01*
X141188195Y-68379400D01*
X141757665Y-68143518D01*
X142193518Y-67707665D01*
X142429400Y-67138195D01*
X142429400Y-66521805D01*
X144410600Y-66521805D01*
X144410600Y-67138195D01*
X144646482Y-67707665D01*
X145082335Y-68143518D01*
X145651805Y-68379400D01*
X146268195Y-68379400D01*
X146837665Y-68143518D01*
X147273518Y-67707665D01*
X147509400Y-67138195D01*
X147509400Y-66521805D01*
X147273518Y-65952335D01*
X146881183Y-65560000D01*
X149485127Y-65560000D01*
X149485127Y-68100000D01*
X149506812Y-68209016D01*
X149568564Y-68301436D01*
X149660984Y-68363188D01*
X149770000Y-68384873D01*
X152310000Y-68384873D01*
X152419016Y-68363188D01*
X152511436Y-68301436D01*
X152573188Y-68209016D01*
X152594873Y-68100000D01*
X152594873Y-66521805D01*
X154570600Y-66521805D01*
X154570600Y-67138195D01*
X154806482Y-67707665D01*
X155242335Y-68143518D01*
X155811805Y-68379400D01*
X156428195Y-68379400D01*
X156997665Y-68143518D01*
X157433518Y-67707665D01*
X157669400Y-67138195D01*
X157669400Y-66521805D01*
X159650600Y-66521805D01*
X159650600Y-67138195D01*
X159886482Y-67707665D01*
X160322335Y-68143518D01*
X160891805Y-68379400D01*
X161508195Y-68379400D01*
X162077665Y-68143518D01*
X162513518Y-67707665D01*
X162749400Y-67138195D01*
X162749400Y-66521805D01*
X162513518Y-65952335D01*
X162077665Y-65516482D01*
X161508195Y-65280600D01*
X160891805Y-65280600D01*
X160322335Y-65516482D01*
X159886482Y-65952335D01*
X159650600Y-66521805D01*
X157669400Y-66521805D01*
X157433518Y-65952335D01*
X156997665Y-65516482D01*
X156428195Y-65280600D01*
X155811805Y-65280600D01*
X155242335Y-65516482D01*
X154806482Y-65952335D01*
X154570600Y-66521805D01*
X152594873Y-66521805D01*
X152594873Y-65560000D01*
X152573188Y-65450984D01*
X152511436Y-65358564D01*
X152419016Y-65296812D01*
X152310000Y-65275127D01*
X149770000Y-65275127D01*
X149660984Y-65296812D01*
X149568564Y-65358564D01*
X149506812Y-65450984D01*
X149485127Y-65560000D01*
X146881183Y-65560000D01*
X146837665Y-65516482D01*
X146268195Y-65280600D01*
X145651805Y-65280600D01*
X145082335Y-65516482D01*
X144646482Y-65952335D01*
X144410600Y-66521805D01*
X142429400Y-66521805D01*
X142193518Y-65952335D01*
X141757665Y-65516482D01*
X141188195Y-65280600D01*
X140571805Y-65280600D01*
X140002335Y-65516482D01*
X139566482Y-65952335D01*
X139330600Y-66521805D01*
X137705000Y-66521805D01*
X137705000Y-65433690D01*
X137608327Y-65200301D01*
X137429698Y-65021673D01*
X137196309Y-64925000D01*
X136085750Y-64925000D01*
X135927000Y-65083750D01*
X135673000Y-65083750D01*
X135514250Y-64925000D01*
X134403691Y-64925000D01*
X134170302Y-65021673D01*
X133991673Y-65200301D01*
X133895000Y-65433690D01*
X132354400Y-65433690D01*
X132354400Y-62104400D01*
X164645600Y-62104400D01*
X164645601Y-114873000D01*
X164645601Y-114873000D01*
G37*
X164645601Y-114873000D02*
X143525025Y-114873000D01*
X143538327Y-114859698D01*
X143635000Y-114626309D01*
X143635000Y-114373691D01*
X143538327Y-114140302D01*
X143359698Y-113961673D01*
X143126309Y-113865000D01*
X143047499Y-113865000D01*
X141135000Y-111952502D01*
X141135000Y-111873691D01*
X141038327Y-111640302D01*
X140859698Y-111461673D01*
X140626309Y-111365000D01*
X140373691Y-111365000D01*
X140140302Y-111461673D01*
X139961673Y-111640302D01*
X139865000Y-111873691D01*
X139865000Y-112126309D01*
X139961673Y-112359698D01*
X140140302Y-112538327D01*
X140373691Y-112635000D01*
X140452502Y-112635000D01*
X142365000Y-114547499D01*
X142365000Y-114626309D01*
X142461673Y-114859698D01*
X142474975Y-114873000D01*
X132354400Y-114873000D01*
X132354400Y-110495512D01*
X134470600Y-110495512D01*
X134470600Y-111004488D01*
X134665377Y-111474722D01*
X135025278Y-111834623D01*
X135495512Y-112029400D01*
X136004488Y-112029400D01*
X136474722Y-111834623D01*
X136834623Y-111474722D01*
X137029400Y-111004488D01*
X137029400Y-110495512D01*
X141470600Y-110495512D01*
X141470600Y-111004488D01*
X141665377Y-111474722D01*
X142025278Y-111834623D01*
X142495512Y-112029400D01*
X143004488Y-112029400D01*
X143474722Y-111834623D01*
X143834623Y-111474722D01*
X144029400Y-111004488D01*
X144029400Y-110495512D01*
X150470600Y-110495512D01*
X150470600Y-111004488D01*
X150665377Y-111474722D01*
X151025278Y-111834623D01*
X151495512Y-112029400D01*
X152004488Y-112029400D01*
X152474722Y-111834623D01*
X152834623Y-111474722D01*
X153029400Y-111004488D01*
X153029400Y-110495512D01*
X157470600Y-110495512D01*
X157470600Y-111004488D01*
X157665377Y-111474722D01*
X158025278Y-111834623D01*
X158495512Y-112029400D01*
X159004488Y-112029400D01*
X159474722Y-111834623D01*
X159834623Y-111474722D01*
X160029400Y-111004488D01*
X160029400Y-110495512D01*
X159834623Y-110025278D01*
X159474722Y-109665377D01*
X159004488Y-109470600D01*
X158495512Y-109470600D01*
X158025278Y-109665377D01*
X157665377Y-110025278D01*
X157470600Y-110495512D01*
X153029400Y-110495512D01*
X152834623Y-110025278D01*
X152474722Y-109665377D01*
X152004488Y-109470600D01*
X151495512Y-109470600D01*
X151025278Y-109665377D01*
X150665377Y-110025278D01*
X150470600Y-110495512D01*
X144029400Y-110495512D01*
X143834623Y-110025278D01*
X143474722Y-109665377D01*
X143004488Y-109470600D01*
X142495512Y-109470600D01*
X142025278Y-109665377D01*
X141665377Y-110025278D01*
X141470600Y-110495512D01*
X137029400Y-110495512D01*
X136834623Y-110025278D01*
X136474722Y-109665377D01*
X136004488Y-109470600D01*
X135495512Y-109470600D01*
X135025278Y-109665377D01*
X134665377Y-110025278D01*
X134470600Y-110495512D01*
X132354400Y-110495512D01*
X132354400Y-106745512D01*
X134470600Y-106745512D01*
X134470600Y-107254488D01*
X134665377Y-107724722D01*
X135025278Y-108084623D01*
X135495512Y-108279400D01*
X136004488Y-108279400D01*
X136474722Y-108084623D01*
X136834623Y-107724722D01*
X137029400Y-107254488D01*
X137029400Y-106745512D01*
X141470600Y-106745512D01*
X141470600Y-107254488D01*
X141665377Y-107724722D01*
X142025278Y-108084623D01*
X142495512Y-108279400D01*
X143004488Y-108279400D01*
X143474722Y-108084623D01*
X143834623Y-107724722D01*
X144029400Y-107254488D01*
X144029400Y-106745512D01*
X143834623Y-106275278D01*
X143474722Y-105915377D01*
X143004488Y-105720600D01*
X142495512Y-105720600D01*
X142025278Y-105915377D01*
X141665377Y-106275278D01*
X141470600Y-106745512D01*
X137029400Y-106745512D01*
X136834623Y-106275278D01*
X136474722Y-105915377D01*
X136004488Y-105720600D01*
X135495512Y-105720600D01*
X135025278Y-105915377D01*
X134665377Y-106275278D01*
X134470600Y-106745512D01*
X132354400Y-106745512D01*
X132354400Y-105173691D01*
X149365000Y-105173691D01*
X149365000Y-105426309D01*
X149461673Y-105659698D01*
X149640302Y-105838327D01*
X149873691Y-105935000D01*
X150126309Y-105935000D01*
X150359698Y-105838327D01*
X150538327Y-105659698D01*
X150635000Y-105426309D01*
X150635000Y-105173691D01*
X150538327Y-104940302D01*
X150479341Y-104881316D01*
X152475658Y-102885000D01*
X152626309Y-102885000D01*
X152859698Y-102788327D01*
X153005000Y-102643025D01*
X153078201Y-102716226D01*
X153078200Y-106533775D01*
X152981677Y-106630298D01*
X152834623Y-106275278D01*
X152474722Y-105915377D01*
X152004488Y-105720600D01*
X151495512Y-105720600D01*
X151025278Y-105915377D01*
X150665377Y-106275278D01*
X150470600Y-106745512D01*
X150470600Y-107254488D01*
X150665377Y-107724722D01*
X151025278Y-108084623D01*
X151495512Y-108279400D01*
X152004488Y-108279400D01*
X152474722Y-108084623D01*
X152834623Y-107724722D01*
X152981677Y-107369702D01*
X153150302Y-107538327D01*
X153383691Y-107635000D01*
X153636309Y-107635000D01*
X153869698Y-107538327D01*
X154048327Y-107359698D01*
X154145000Y-107126309D01*
X154145000Y-106873691D01*
X154091907Y-106745512D01*
X157470600Y-106745512D01*
X157470600Y-107254488D01*
X157665377Y-107724722D01*
X158025278Y-108084623D01*
X158495512Y-108279400D01*
X159004488Y-108279400D01*
X159474722Y-108084623D01*
X159834623Y-107724722D01*
X160029400Y-107254488D01*
X160029400Y-106745512D01*
X159834623Y-106275278D01*
X159474722Y-105915377D01*
X159004488Y-105720600D01*
X158495512Y-105720600D01*
X158025278Y-105915377D01*
X157665377Y-106275278D01*
X157470600Y-106745512D01*
X154091907Y-106745512D01*
X154048327Y-106640302D01*
X153941800Y-106533775D01*
X153941800Y-102716225D01*
X154048327Y-102609698D01*
X154145000Y-102376309D01*
X154145000Y-102123691D01*
X154048327Y-101890302D01*
X153869698Y-101711673D01*
X153636309Y-101615000D01*
X153383691Y-101615000D01*
X153150302Y-101711673D01*
X153005000Y-101856975D01*
X152859698Y-101711673D01*
X152626309Y-101615000D01*
X152373691Y-101615000D01*
X152140302Y-101711673D01*
X151961673Y-101890302D01*
X151865000Y-102123691D01*
X151865000Y-102274342D01*
X149724740Y-104414602D01*
X149688691Y-104438690D01*
X149664603Y-104474740D01*
X149664601Y-104474742D01*
X149593254Y-104581521D01*
X149559742Y-104750000D01*
X149568201Y-104792526D01*
X149568201Y-104833774D01*
X149461673Y-104940302D01*
X149365000Y-105173691D01*
X132354400Y-105173691D01*
X132354400Y-92623691D01*
X151365000Y-92623691D01*
X151365000Y-92876309D01*
X151461673Y-93109698D01*
X151640302Y-93288327D01*
X151849549Y-93375000D01*
X151640302Y-93461673D01*
X151461673Y-93640302D01*
X151365000Y-93873691D01*
X151365000Y-94126309D01*
X151461673Y-94359698D01*
X151568201Y-94466226D01*
X151568201Y-94647474D01*
X151559742Y-94690000D01*
X151593254Y-94858479D01*
X151664601Y-94965258D01*
X151664603Y-94965260D01*
X151688691Y-95001310D01*
X151724740Y-95025397D01*
X152898508Y-96199165D01*
X152871160Y-96265188D01*
X152871160Y-96614812D01*
X153004956Y-96937823D01*
X153252177Y-97185044D01*
X153575188Y-97318840D01*
X153924812Y-97318840D01*
X154247823Y-97185044D01*
X154495044Y-96937823D01*
X154628840Y-96614812D01*
X154628840Y-96265188D01*
X154495044Y-95942177D01*
X154247823Y-95694956D01*
X153924812Y-95561160D01*
X153575188Y-95561160D01*
X153509165Y-95588508D01*
X152431800Y-94511143D01*
X152431800Y-94466225D01*
X152538327Y-94359698D01*
X152635000Y-94126309D01*
X152635000Y-93873691D01*
X152538327Y-93640302D01*
X152359698Y-93461673D01*
X152150451Y-93375000D01*
X152359698Y-93288327D01*
X152443684Y-93204341D01*
X152898508Y-93659165D01*
X152871160Y-93725188D01*
X152871160Y-94074812D01*
X153004956Y-94397823D01*
X153252177Y-94645044D01*
X153575188Y-94778840D01*
X153924812Y-94778840D01*
X154247823Y-94645044D01*
X154495044Y-94397823D01*
X154628840Y-94074812D01*
X154628840Y-93725188D01*
X154495044Y-93402177D01*
X154247823Y-93154956D01*
X153924812Y-93021160D01*
X153575188Y-93021160D01*
X153509165Y-93048508D01*
X152935400Y-92474743D01*
X152911310Y-92438690D01*
X152768480Y-92343254D01*
X152642526Y-92318200D01*
X152642522Y-92318200D01*
X152600000Y-92309742D01*
X152557478Y-92318200D01*
X152466225Y-92318200D01*
X152359698Y-92211673D01*
X152126309Y-92115000D01*
X151873691Y-92115000D01*
X151640302Y-92211673D01*
X151461673Y-92390302D01*
X151365000Y-92623691D01*
X132354400Y-92623691D01*
X132354400Y-86363691D01*
X134115000Y-86363691D01*
X134115000Y-86616309D01*
X134211673Y-86849698D01*
X134390302Y-87028327D01*
X134623691Y-87125000D01*
X134876309Y-87125000D01*
X135109698Y-87028327D01*
X135288327Y-86849698D01*
X135385000Y-86616309D01*
X135385000Y-86537498D01*
X136699899Y-85222600D01*
X137572472Y-85222600D01*
X137620000Y-85232054D01*
X137667528Y-85222600D01*
X137667529Y-85222600D01*
X137808301Y-85194599D01*
X137914422Y-85123691D01*
X149115000Y-85123691D01*
X149115000Y-85376309D01*
X149211673Y-85609698D01*
X149390302Y-85788327D01*
X149623691Y-85885000D01*
X149774343Y-85885000D01*
X150158201Y-86268858D01*
X150158200Y-88207478D01*
X150149742Y-88250000D01*
X150158200Y-88292522D01*
X150158200Y-88292525D01*
X150183254Y-88418479D01*
X150278690Y-88561310D01*
X150314742Y-88585399D01*
X151198201Y-89468859D01*
X151198200Y-89933775D01*
X151091673Y-90040302D01*
X150995000Y-90273691D01*
X150995000Y-90526309D01*
X151091673Y-90759698D01*
X151270302Y-90938327D01*
X151503691Y-91035000D01*
X151756309Y-91035000D01*
X151989698Y-90938327D01*
X152045425Y-90882600D01*
X152590102Y-90882600D01*
X152877466Y-91169964D01*
X152871160Y-91185188D01*
X152871160Y-91534812D01*
X153004956Y-91857823D01*
X153252177Y-92105044D01*
X153575188Y-92238840D01*
X153924812Y-92238840D01*
X154247823Y-92105044D01*
X154495044Y-91857823D01*
X154628840Y-91534812D01*
X154628840Y-91185188D01*
X154495044Y-90862177D01*
X154247823Y-90614956D01*
X153924812Y-90481160D01*
X153575188Y-90481160D01*
X153559964Y-90487466D01*
X153164862Y-90092364D01*
X153137935Y-90052065D01*
X152978301Y-89945401D01*
X152837529Y-89917400D01*
X152837528Y-89917400D01*
X152790000Y-89907946D01*
X152742472Y-89917400D01*
X152061800Y-89917400D01*
X152061800Y-89682329D01*
X153067276Y-89682329D01*
X153116721Y-89907700D01*
X153581171Y-90067249D01*
X154071324Y-90036916D01*
X154383279Y-89907700D01*
X154432724Y-89682329D01*
X153750000Y-88999605D01*
X153067276Y-89682329D01*
X152061800Y-89682329D01*
X152061800Y-89332521D01*
X152070258Y-89289999D01*
X152061800Y-89247477D01*
X152061800Y-89247474D01*
X152036746Y-89121520D01*
X151941310Y-88978690D01*
X151905260Y-88954602D01*
X151601829Y-88651171D01*
X152502751Y-88651171D01*
X152533084Y-89141324D01*
X152662300Y-89453279D01*
X152887671Y-89502724D01*
X153570395Y-88820000D01*
X153929605Y-88820000D01*
X154612329Y-89502724D01*
X154837700Y-89453279D01*
X154997249Y-88988829D01*
X154966916Y-88498676D01*
X154837700Y-88186721D01*
X154612329Y-88137276D01*
X153929605Y-88820000D01*
X153570395Y-88820000D01*
X152887671Y-88137276D01*
X152662300Y-88186721D01*
X152502751Y-88651171D01*
X151601829Y-88651171D01*
X151021800Y-88071143D01*
X151021800Y-87957671D01*
X153067276Y-87957671D01*
X153750000Y-88640395D01*
X154432724Y-87957671D01*
X154383279Y-87732300D01*
X153918829Y-87572751D01*
X153428676Y-87603084D01*
X153116721Y-87732300D01*
X153067276Y-87957671D01*
X151021800Y-87957671D01*
X151021800Y-86132520D01*
X151030258Y-86089999D01*
X151021800Y-86047478D01*
X151021800Y-86047474D01*
X150996746Y-85921520D01*
X150901310Y-85778690D01*
X150865257Y-85754600D01*
X150385000Y-85274343D01*
X150385000Y-85123691D01*
X150288327Y-84890302D01*
X150109698Y-84711673D01*
X149876309Y-84615000D01*
X149623691Y-84615000D01*
X149390302Y-84711673D01*
X149211673Y-84890302D01*
X149115000Y-85123691D01*
X137914422Y-85123691D01*
X137967935Y-85087935D01*
X137994862Y-85047636D01*
X139147499Y-83895000D01*
X139226309Y-83895000D01*
X139459698Y-83798327D01*
X139638327Y-83619698D01*
X139735000Y-83386309D01*
X139735000Y-83133691D01*
X139638327Y-82900302D01*
X139459698Y-82721673D01*
X139226309Y-82625000D01*
X138973691Y-82625000D01*
X138740302Y-82721673D01*
X138561673Y-82900302D01*
X138465000Y-83133691D01*
X138465000Y-83212501D01*
X137420102Y-84257400D01*
X136547529Y-84257400D01*
X136500000Y-84247946D01*
X136452471Y-84257400D01*
X136311699Y-84285401D01*
X136152065Y-84392065D01*
X136125140Y-84432361D01*
X134702502Y-85855000D01*
X134623691Y-85855000D01*
X134390302Y-85951673D01*
X134211673Y-86130302D01*
X134115000Y-86363691D01*
X132354400Y-86363691D01*
X132354400Y-67115750D01*
X133895000Y-67115750D01*
X133895000Y-68226310D01*
X133991673Y-68459699D01*
X134170302Y-68638327D01*
X134403691Y-68735000D01*
X135514250Y-68735000D01*
X135673000Y-68576250D01*
X135673000Y-66957000D01*
X135927000Y-66957000D01*
X135927000Y-68576250D01*
X136085750Y-68735000D01*
X137196309Y-68735000D01*
X137429698Y-68638327D01*
X137608327Y-68459699D01*
X137705000Y-68226310D01*
X137705000Y-67115750D01*
X137546250Y-66957000D01*
X135927000Y-66957000D01*
X135673000Y-66957000D01*
X134053750Y-66957000D01*
X133895000Y-67115750D01*
X132354400Y-67115750D01*
X132354400Y-65433690D01*
X133895000Y-65433690D01*
X133895000Y-66544250D01*
X134053750Y-66703000D01*
X135673000Y-66703000D01*
X135673000Y-65083750D01*
X135927000Y-65083750D01*
X135927000Y-66703000D01*
X137546250Y-66703000D01*
X137705000Y-66544250D01*
X137705000Y-66521805D01*
X139330600Y-66521805D01*
X139330600Y-67138195D01*
X139566482Y-67707665D01*
X140002335Y-68143518D01*
X140571805Y-68379400D01*
X141188195Y-68379400D01*
X141757665Y-68143518D01*
X142193518Y-67707665D01*
X142429400Y-67138195D01*
X142429400Y-66521805D01*
X144410600Y-66521805D01*
X144410600Y-67138195D01*
X144646482Y-67707665D01*
X145082335Y-68143518D01*
X145651805Y-68379400D01*
X146268195Y-68379400D01*
X146837665Y-68143518D01*
X147273518Y-67707665D01*
X147509400Y-67138195D01*
X147509400Y-66521805D01*
X147273518Y-65952335D01*
X146881183Y-65560000D01*
X149485127Y-65560000D01*
X149485127Y-68100000D01*
X149506812Y-68209016D01*
X149568564Y-68301436D01*
X149660984Y-68363188D01*
X149770000Y-68384873D01*
X152310000Y-68384873D01*
X152419016Y-68363188D01*
X152511436Y-68301436D01*
X152573188Y-68209016D01*
X152594873Y-68100000D01*
X152594873Y-66521805D01*
X154570600Y-66521805D01*
X154570600Y-67138195D01*
X154806482Y-67707665D01*
X155242335Y-68143518D01*
X155811805Y-68379400D01*
X156428195Y-68379400D01*
X156997665Y-68143518D01*
X157433518Y-67707665D01*
X157669400Y-67138195D01*
X157669400Y-66521805D01*
X159650600Y-66521805D01*
X159650600Y-67138195D01*
X159886482Y-67707665D01*
X160322335Y-68143518D01*
X160891805Y-68379400D01*
X161508195Y-68379400D01*
X162077665Y-68143518D01*
X162513518Y-67707665D01*
X162749400Y-67138195D01*
X162749400Y-66521805D01*
X162513518Y-65952335D01*
X162077665Y-65516482D01*
X161508195Y-65280600D01*
X160891805Y-65280600D01*
X160322335Y-65516482D01*
X159886482Y-65952335D01*
X159650600Y-66521805D01*
X157669400Y-66521805D01*
X157433518Y-65952335D01*
X156997665Y-65516482D01*
X156428195Y-65280600D01*
X155811805Y-65280600D01*
X155242335Y-65516482D01*
X154806482Y-65952335D01*
X154570600Y-66521805D01*
X152594873Y-66521805D01*
X152594873Y-65560000D01*
X152573188Y-65450984D01*
X152511436Y-65358564D01*
X152419016Y-65296812D01*
X152310000Y-65275127D01*
X149770000Y-65275127D01*
X149660984Y-65296812D01*
X149568564Y-65358564D01*
X149506812Y-65450984D01*
X149485127Y-65560000D01*
X146881183Y-65560000D01*
X146837665Y-65516482D01*
X146268195Y-65280600D01*
X145651805Y-65280600D01*
X145082335Y-65516482D01*
X144646482Y-65952335D01*
X144410600Y-66521805D01*
X142429400Y-66521805D01*
X142193518Y-65952335D01*
X141757665Y-65516482D01*
X141188195Y-65280600D01*
X140571805Y-65280600D01*
X140002335Y-65516482D01*
X139566482Y-65952335D01*
X139330600Y-66521805D01*
X137705000Y-66521805D01*
X137705000Y-65433690D01*
X137608327Y-65200301D01*
X137429698Y-65021673D01*
X137196309Y-64925000D01*
X136085750Y-64925000D01*
X135927000Y-65083750D01*
X135673000Y-65083750D01*
X135514250Y-64925000D01*
X134403691Y-64925000D01*
X134170302Y-65021673D01*
X133991673Y-65200301D01*
X133895000Y-65433690D01*
X132354400Y-65433690D01*
X132354400Y-62104400D01*
X164645600Y-62104400D01*
X164645601Y-114873000D01*
%TD*%
M02*
